<svg xmlns="http://www.w3.org/2000/svg" width="50" height="50" viewBox="0 0 50 50" xmlns:xlink="http://www.w3.org/1999/xlink">
  <defs>
    <polygon id="b" points="50 24.691 50 0 0 0 0 24.691 0 49.382 50 49.382 50 24.691"/>
    <circle id="a" cx="25" cy="25" r="25"/>
    <mask id="d" width="50" height="50" x="0" y="0" fill="white">
      <use xlink:href="#a"/>
    </mask>
  </defs>
  <g fill="none" fill-rule="evenodd">
    <g>
      <mask id="c" fill="white">
        <use xlink:href="#b"/>
      </mask>
      <path fill="#CCCCCC" d="M50,24.6910494 C50,38.3274691 38.8075,49.3824074 25,49.3824074 C11.1925,49.3824074 0,38.3274691 0,24.6910494 C0,11.0546296 11.1925,-0.000308641975 25,-0.000308641975 C38.8075,-0.000308641975 50,11.0546296 50,24.6910494" mask="url(#c)"/>
    </g>
    <path fill="#FFFFFF" d="M25,49.3830247 C31.881875,49.3830247 38.1125,46.6354938 42.63375,42.1929012 C41.9725,41.2737654 40.93625,40.3941358 39.313125,39.8169753 C36.171875,38.6984568 32.5875,38.2021605 30.260625,36.9262346 C28.98125,36.2262346 28.82875,34.4719136 29.951875,33.5459877 C31.874375,31.9608025 32.935,29.4466049 33.505625,26.8891975 C34.58125,26.170679 37.24625,21.5719136 34.6475,20.8737654 C35.18,18.4040123 34.711875,15.7083333 34.39,14.3385802 C35.9925,11.3404321 34.773125,8.80709877 34.144375,7.82067901 C34.021875,7.62746914 33.735625,7.64660494 33.629375,7.84969136 C31.571875,11.7842593 23.65125,6.30030864 18.433125,10.4953704 C13.78875,14.2305556 14.826875,19.3916667 15.268125,20.920679 C13.28375,21.7453704 15.496875,26.1466049 16.4925,26.8799383 C17.061875,29.4404321 18.123125,31.9583333 20.048125,33.5459877 C21.17125,34.4719136 21.018125,36.2262346 19.73875,36.9262346 C17.411875,38.2021605 13.828125,38.6984568 10.68625,39.8169753 C9.06375,40.3941358 8.0275,41.2737654 7.36625,42.1929012 C11.8875,46.6354938 18.118125,49.3830247 25,49.3830247"/>
    <use stroke="#CCCCCC" stroke-width="4" mask="url(#d)" xlink:href="#a"/>
  </g>
</svg>
