<?xml version="1.0" encoding="UTF-8" standalone="no"?>
<svg width="20px" height="20px" viewBox="0 0 20 20" version="1.1" xmlns="http://www.w3.org/2000/svg" xmlns:xlink="http://www.w3.org/1999/xlink">
    <!-- Generator: Sketch 3.8.3 (29802) - http://www.bohemiancoding.com/sketch -->
    <title>organization</title>
    <desc>Created with Sketch.</desc>
    <defs></defs>
    <g id="Page-1" stroke="none" stroke-width="1" fill="none" fill-rule="evenodd">
        <g id="organization" fill="#0087e6">
            <g id="flow-tree">
                <g id="Flow_tree">
                    <path d="M18,14.824 L18,12.5 C18,10.567 16.433,9 14.5,9 L12.5,9 C11.672,9 11,8.328 11,7.5 L11,5.176 C11.825,4.796 12.4,3.968 12.4,3 C12.4,1.674 11.326,0.6 10,0.6 C8.674,0.6 7.6,1.674 7.6,3 C7.6,3.967 8.176,4.796 9,5.176 L9,7.5 C9,8.328 8.328,9 7.5,9 L5.5,9 C3.567,9 2,10.567 2,12.5 L2,14.824 C1.175,15.204 0.6,16.033 0.6,17 C0.6,18.326 1.674,19.4 3,19.4 C4.326,19.4 5.4,18.325 5.4,17 C5.4,16.033 4.824,15.204 4,14.824 L4,12.5 C4,11.672 4.672,11 5.5,11 L7.5,11 C8.039,11 8.544,10.868 9,10.65 L9,14.824 C8.175,15.204 7.6,16.033 7.6,17 C7.6,18.326 8.674,19.4 10,19.4 C11.326,19.4 12.4,18.325 12.4,17 C12.4,16.033 11.824,15.204 11,14.824 L11,10.65 C11.456,10.868 11.961,11 12.5,11 L14.5,11 C15.328,11 16,11.672 16,12.5 L16,14.824 C15.175,15.204 14.6,16.032 14.6,17 C14.6,18.326 15.674,19.4 17,19.4 C18.326,19.4 19.4,18.325 19.4,17 C19.4,16.033 18.825,15.204 18,14.824 L18,14.824 Z M10,1.615 C10.764,1.615 11.384,2.234 11.384,3 C11.384,3.764 10.764,4.385 10,4.385 C9.235,4.385 8.616,3.764 8.616,3 C8.616,2.234 9.235,1.615 10,1.615 L10,1.615 Z M3,18.385 C2.234,18.385 1.615,17.764 1.615,17 C1.615,16.234 2.234,15.615 3,15.615 C3.764,15.615 4.384,16.234 4.384,17 C4.384,17.764 3.764,18.385 3,18.385 L3,18.385 Z M10,18.385 C9.234,18.385 8.615,17.764 8.615,17 C8.615,16.234 9.234,15.615 10,15.615 C10.764,15.615 11.384,16.234 11.384,17 C11.384,17.764 10.764,18.385 10,18.385 L10,18.385 Z M17,18.385 C16.234,18.385 15.615,17.764 15.615,17 C15.615,16.234 16.234,15.615 17,15.615 C17.764,15.615 18.384,16.234 18.384,17 C18.384,17.764 17.764,18.385 17,18.385 L17,18.385 Z" id="Shape"></path>
                </g>
            </g>
        </g>
    </g>
</svg>
