<?xml version="1.0" encoding="UTF-8" standalone="no"?>
<svg width="12px" height="13px" viewBox="0 0 12 13" version="1.1" xmlns="http://www.w3.org/2000/svg" xmlns:xlink="http://www.w3.org/1999/xlink">
    <!-- Generator: Sketch 3.8.3 (29802) - http://www.bohemiancoding.com/sketch -->
    <title>Artboard 1</title>
    <desc>Created with Sketch.</desc>
    <defs></defs>
    <g id="Page-1" stroke="none" stroke-width="1" fill="none" fill-rule="evenodd">
        <g id="cross" fill="#FFFFFF">
            <g id="Page-1">
                <g id="cross">
                    <path d="M11.5509813,12.5609375 C10.9522898,13.1471875 9.98212861,13.1471875 9.38471358,12.5609375 L6.00063826,8.7734375 L2.61656295,12.5596875 C2.01787139,13.1459375 1.04771023,13.1459375 0.450295197,12.5596875 C-0.148396362,11.9734375 -0.148396362,11.0234375 0.450295197,10.4384375 L3.97095899,6.5009375 L0.449018669,2.5609375 C-0.14967289,1.9746875 -0.14967289,1.0259375 0.449018669,0.4396875 C1.04771023,-0.1465625 2.01659486,-0.1465625 2.61528642,0.4396875 L6.00063826,4.2284375 L9.38471358,0.4396875 C9.98340514,-0.1465625 10.9522898,-0.1465625 11.5509813,0.4396875 C12.1496729,1.0259375 12.1496729,1.9759375 11.5509813,2.5609375 L8.03031754,6.5009375 L11.5509813,10.4384375 C12.1496729,11.0246875 12.1496729,11.9746875 11.5509813,12.5609375 L11.5509813,12.5609375 L11.5509813,12.5609375 Z" id="Shape"></path>
                </g>
            </g>
        </g>
        <g id="Artboard-1"></g>
    </g>
</svg>