<?xml version="1.0" standalone="no"?>
<!DOCTYPE svg PUBLIC "-//W3C//DTD SVG 1.1//EN" "http://www.w3.org/Graphics/SVG/1.1/DTD/svg11.dtd" >
<svg xmlns="http://www.w3.org/2000/svg" xmlns:xlink="http://www.w3.org/1999/xlink" version="1.1">
<metadata>
Created by FontForge 20160407 at Mon Jul 18 05:34:42 2016
 By Jimmy Warting
Copyright (c) 1988, 1990, 1993, 2003 Linotype Library GmbH, www.linotype.com. All rights reserved. Copyright (c) 1988, 1990, 1993 Adobe Systems Incorporated. All Rights Reserved.
</metadata>
<defs>
<font id="HelveticaNeueLTPro-It" horiz-adv-x="556" >
  <font-face 
    font-family="Helvetica Neue LT Pro"
    font-weight="400"
    font-style="italic"
    font-stretch="normal"
    units-per-em="1000"
    panose-1="2 11 6 4 2 2 2 9 2 4"
    ascent="714"
    descent="-286"
    x-height="517"
    cap-height="714"
    bbox="-166 -214 1106 973"
    underline-thickness="50"
    underline-position="-100"
    slope="-12"
    stemh="75"
    stemv="85"
    unicode-range="U+000D-FB02"
  />
<missing-glyph horiz-adv-x="512" 
d="M222 117h56v67h-56v-67zM225 234h46c0 35 2 59 6 72s18 30 43 52c51 47 63 77 63 120c0 79 -53 131 -124 131c-72 0 -126 -42 -135 -137l50 -8c8 68 41 95 82 95s76 -37 76 -85c0 -25 -7 -42 -50 -83c-22 -22 -37 -42 -46 -59s-13 -44 -13 -81zM462 50h-412v617h412v-617
zM512 718h-512v-718h512v718z" />
    <glyph glyph-name="fi" unicode="fi" horiz-adv-x="519" 
d="M23 0l96 442h-88l15 75h88c27 104 32 205 167 205c24 0 48 -1 71 -8l-14 -72c-15 3 -28 5 -40 5c-83 0 -82 -67 -100 -130h99l-14 -75h-100l-95 -442h-85zM527 714l-22 -104h-86l22 104h86zM292 0l108 517h85l-108 -517h-85z" />
    <glyph glyph-name="fl" unicode="fl" horiz-adv-x="519" 
d="M292 0l150 714h85l-150 -714h-85zM23 0l96 442h-88l15 75h88c27 104 32 205 167 205c24 0 48 -1 71 -8l-14 -72c-15 3 -28 5 -40 5c-83 0 -82 -67 -100 -130h99l-14 -75h-100l-95 -442h-85z" />
    <glyph glyph-name="IJ" unicode="IJ" horiz-adv-x="766" 
d="M7 0l150 714h95l-150 -714h-95zM772 714l-113 -538c-27 -123 -80 -193 -223 -193c-115 0 -198 53 -198 152c0 24 2 60 9 99h96c-5 -24 -9 -49 -10 -74c0 -68 40 -97 105 -97c96 0 120 85 136 162l104 489h94z" />
    <glyph glyph-name="ij" unicode="ij" horiz-adv-x="445" 
d="M230 714l-22 -104h-86l22 104h86zM-5 0l108 517h85l-108 -517h-85zM453 714l-22 -104h-86l22 104h86zM103 -192l15 75c11 -3 22 -6 33 -6c37 0 46 24 62 97l113 543h85l-130 -614c-15 -64 -54 -101 -122 -101c-19 0 -37 1 -56 6z" />
    <glyph glyph-name="napostrophe" unicode="&#x22;n" horiz-adv-x="581" 
d="M20 0l109 517h82l-16 -78h2c43 59 112 90 184 90c97 0 144 -41 144 -133c0 -23 -6 -61 -15 -101l-63 -295h-85l66 302c3 20 12 62 12 80c0 49 -39 72 -90 72c-47 0 -96 -25 -128 -60c-31 -27 -46 -67 -57 -108l-60 -286h-85zM96 714l19 88h111c-9 -51 -15 -82 -18 -91
c-3 -10 -7 -20 -13 -29c-12 -20 -36 -39 -101 -40l8 35c26 6 38 12 46 37h-52z" />
    <glyph glyph-name=".notdef" horiz-adv-x="512" 
d="M222 117h56v67h-56v-67zM225 234h46c0 35 2 59 6 72s18 30 43 52c51 47 63 77 63 120c0 79 -53 131 -124 131c-72 0 -126 -42 -135 -137l50 -8c8 68 41 95 82 95s76 -37 76 -85c0 -25 -7 -42 -50 -83c-22 -22 -37 -42 -46 -59s-13 -44 -13 -81zM462 50h-412v617h412v-617
zM512 718h-512v-718h512v718z" />
    <glyph glyph-name="space" unicode=" " horiz-adv-x="278" 
 />
    <glyph glyph-name="exclam" unicode="!" horiz-adv-x="259" 
d="M252 714l-47 -223l-90 -308h-46l43 308l47 223h93zM0 0l24 111h111l-24 -111h-111z" />
    <glyph glyph-name="quotedbl" unicode="&#x22;" horiz-adv-x="426" 
d="M286 456v258h68v-258h-68zM146 456v258h68v-258h-68z" />
    <glyph glyph-name="numbersign" unicode="#" 
d="M353 424h-122l-21 -150h122zM102 0l29 206h-97l9 68h97l21 150h-101l9 68h102l29 205h69l-29 -205h122l29 205h69l-29 -205h91l-9 -68h-91l-21 -150h93l-9 -68h-93l-29 -206h-69l29 206h-123l-29 -206h-69z" />
    <glyph glyph-name="dollar" unicode="$" 
d="M154 -97l18 85c-127 21 -189 109 -182 246h90c-5 -97 31 -153 108 -169l54 269c-96 29 -177 69 -177 185c0 136 125 225 257 212l13 63h53l-14 -69c94 -26 170 -99 162 -222h-90c3 85 -30 129 -87 148l-49 -246l54 -19c100 -28 152 -88 152 -180
c0 -160 -160 -242 -292 -223l-17 -80h-53zM293 322l-54 -264c52 -14 187 26 187 139c0 95 -64 101 -133 125zM259 418l48 238c-60 0 -152 -28 -152 -127c0 -55 43 -89 91 -105z" />
    <glyph glyph-name="percent" unicode="%" horiz-adv-x="926" 
d="M79 454c0 108 57 255 185 255c96 0 146 -49 146 -145c0 -114 -54 -255 -187 -255c-89 0 -144 54 -144 145zM581 137c0 -61 20 -94 79 -94c87 0 116 121 116 205c0 57 -24 85 -73 85c-87 0 -122 -128 -122 -196zM513 133c0 108 57 255 185 255c96 0 146 -49 146 -145
c0 -114 -54 -255 -187 -255c-89 0 -144 54 -144 145zM209 -28l435 753h64l-435 -753h-64zM147 458c0 -61 20 -94 79 -94c87 0 116 121 116 205c0 57 -24 85 -73 85c-87 0 -122 -128 -122 -196z" />
    <glyph glyph-name="ampersand" unicode="&#x26;" horiz-adv-x="630" 
d="M246 551c0 -45 22 -80 45 -117c51 29 126 69 126 131c0 45 -35 74 -79 74c-52 0 -92 -33 -92 -88zM468 0l-44 74c-55 -52 -121 -86 -204 -86c-111 0 -199 69 -199 185c0 120 106 177 199 225c-28 44 -59 94 -59 158c0 95 75 158 178 158c83 0 163 -45 163 -136
c0 -100 -97 -160 -176 -202l112 -184c28 39 56 96 63 145h82c-21 -95 -55 -151 -103 -207l85 -130h-97zM384 130l-127 208c-68 -35 -151 -82 -151 -169c0 -64 59 -106 123 -106s104 24 155 67z" />
    <glyph glyph-name="quoteright" unicode="&#x2019;" horiz-adv-x="278" 
d="M138 603l24 111h111c-26 -111 -26 -247 -166 -258l10 48c54 8 64 54 77 99h-56z" />
    <glyph glyph-name="parenleft" unicode="(" horiz-adv-x="259" 
d="M172 -198h-56c-48 104 -81 252 -81 368c0 227 111 395 258 561h70c-145 -174 -243 -366 -243 -597c0 -113 15 -224 52 -332z" />
    <glyph glyph-name="parenright" unicode=")" horiz-adv-x="259" 
d="M-47 -198h-70c146 170 243 367 243 596c0 113 -15 225 -52 333h56c47 -108 81 -252 81 -369c0 -228 -111 -394 -258 -560z" />
    <glyph glyph-name="asterisk" unicode="*" horiz-adv-x="352" 
d="M272 714l-25 -113l110 11l5 -48l-107 -14l49 -100l-49 -23l-47 103l-78 -87l-37 37l77 84l-95 48l25 46l96 -49l22 105h54z" />
    <glyph glyph-name="plus" unicode="+" horiz-adv-x="600" 
d="M334 506v-219h218v-68h-218v-219h-68v219h-218v68h218v219h68z" />
    <glyph glyph-name="comma" unicode="," horiz-adv-x="278" 
d="M15 0l24 111h111c-26 -111 -26 -247 -166 -258l10 48c54 8 64 54 77 99h-56z" />
    <glyph glyph-name="hyphen" unicode="-" horiz-adv-x="389" 
d="M26 238l16 80h290l-16 -80h-290z" />
    <glyph glyph-name="period" unicode="." horiz-adv-x="278" 
d="M15 0l24 111h111l-24 -111h-111z" />
    <glyph glyph-name="slash" unicode="/" horiz-adv-x="333" 
d="M-18 -17l296 748h73l-296 -748h-73z" />
    <glyph glyph-name="zero" unicode="0" 
d="M115 249c0 -113 31 -186 115 -186c158 0 206 292 206 354c0 79 15 217 -108 217c-154 0 -213 -285 -213 -385zM25 263c0 160 88 446 310 446c124 0 191 -79 191 -268c0 -130 -71 -453 -305 -453c-149 0 -196 122 -196 275z" />
    <glyph glyph-name="one" unicode="1" 
d="M433 709l-151 -709h-90l115 539c-64 -15 -118 -20 -183 -20l14 68c87 0 186 41 229 122h66z" />
    <glyph glyph-name="two" unicode="2" 
d="M158 468h-90c16 147 102 241 255 241c115 0 199 -72 199 -189c0 -173 -192 -246 -313 -323c-45 -29 -97 -71 -116 -122h369l-16 -75h-452c16 214 207 261 346 365c51 40 92 79 92 150c0 75 -46 119 -119 119c-96 0 -150 -77 -155 -166z" />
    <glyph glyph-name="three" unicode="3" 
d="M214 336l15 68c90 -5 196 10 196 132c0 84 -61 98 -120 98c-80 0 -132 -45 -144 -144h-90c16 116 88 219 239 219c125 0 205 -57 205 -177c0 -83 -63 -143 -127 -162c69 -31 92 -84 92 -147c0 -98 -81 -235 -256 -235c-140 0 -226 72 -223 231h90
c-3 -77 22 -156 135 -156c95 0 164 60 164 156c0 108 -91 117 -176 117z" />
    <glyph glyph-name="four" unicode="4" 
d="M271 0l36 166h-311l17 84l420 459h72l-98 -468h94l-15 -75h-94l-36 -166h-85zM387 562l-293 -321h228l67 321h-2z" />
    <glyph glyph-name="five" unicode="5" 
d="M523 697l-15 -75h-291l-56 -192l2 -2c35 27 81 39 125 39c128 0 199 -93 199 -214c0 -75 -25 -147 -80 -198c-55 -48 -114 -67 -187 -67c-129 0 -213 73 -213 202h90c0 -83 41 -127 128 -127c111 0 172 84 172 186c0 92 -49 143 -141 143c-51 0 -102 -26 -126 -69h-76
l110 374h359z" />
    <glyph glyph-name="six" unicode="6" 
d="M545 525h-90c-1 72 -35 109 -110 109c-134 0 -177 -144 -207 -249h2c33 49 96 71 155 71c118 0 200 -92 200 -208c0 -147 -97 -260 -253 -260c-148 0 -213 103 -213 239c0 94 23 209 60 291c51 119 130 191 270 191c117 0 183 -69 186 -184zM405 244
c0 81 -46 137 -130 137c-101 0 -156 -80 -156 -175c0 -84 42 -143 131 -143c104 0 155 88 155 181z" />
    <glyph glyph-name="seven" unicode="7" 
d="M576 697l-12 -71c-163 -152 -304 -416 -370 -626h-97c73 232 203 442 374 622h-369l17 75h457z" />
    <glyph glyph-name="eight" unicode="8" 
d="M104 519c0 123 100 190 216 190c104 0 199 -65 199 -176c0 -79 -51 -142 -127 -159v-2c69 -29 100 -94 100 -167c0 -131 -113 -217 -237 -217s-233 64 -233 201c0 107 66 178 170 197v2c-51 23 -88 75 -88 131zM249 63c89 0 153 54 153 145c0 76 -47 128 -131 128
c-93 0 -159 -50 -159 -146c0 -85 57 -127 137 -127zM194 516c0 -75 52 -105 120 -105s115 47 115 115c0 72 -42 108 -113 108c-72 0 -122 -46 -122 -118z" />
    <glyph glyph-name="nine" unicode="9" 
d="M4 169h90c0 -68 32 -106 103 -106c135 0 182 140 214 244l-2 2c-33 -49 -97 -70 -156 -70c-118 0 -199 93 -199 208c0 144 97 262 247 262c149 0 218 -96 218 -238c0 -93 -22 -202 -59 -287c-54 -121 -120 -196 -262 -196c-118 0 -197 58 -194 181zM274 314
c101 0 155 81 155 175c0 88 -45 145 -137 145c-98 0 -148 -98 -148 -183c0 -81 45 -137 130 -137z" />
    <glyph glyph-name="colon" unicode=":" horiz-adv-x="278" 
d="M234 517l-23 -111h-112l23 111h112zM15 0l22 111h113l-23 -111h-112z" />
    <glyph glyph-name="semicolon" unicode=";" horiz-adv-x="278" 
d="M234 517l-24 -111h-111l24 111h111zM15 0l24 111h111c-26 -111 -26 -247 -166 -258l10 48c54 8 64 54 77 99h-56z" />
    <glyph glyph-name="less" unicode="&#x3c;" horiz-adv-x="600" 
d="M554 514v-68l-425 -193l425 -193v-68l-508 230v62z" />
    <glyph glyph-name="equal" unicode="=" horiz-adv-x="600" 
d="M48 118v68h504v-68h-504zM552 388v-68h-504v68h504z" />
    <glyph glyph-name="greater" unicode="&#x3e;" horiz-adv-x="600" 
d="M46 -8v68l425 193l-425 193v68l508 -230v-62z" />
    <glyph glyph-name="question" unicode="?" 
d="M145 0l24 111h111l-24 -111h-111zM171 488h-85c8 134 106 234 242 234c100 0 207 -52 207 -165c0 -206 -220 -202 -252 -352l-4 -22h-83c8 47 19 90 50 129c24 32 57 58 104 90c48 32 95 77 95 140c0 72 -47 105 -115 105c-95 0 -151 -71 -159 -159z" />
    <glyph glyph-name="at" unicode="@" horiz-adv-x="800" 
d="M618 554l-84 -284c-5 -17 -11 -36 -11 -51c0 -19 7 -31 24 -31c61 0 138 123 138 230c0 158 -131 258 -271 258c-171 0 -304 -146 -304 -321c0 -179 141 -317 309 -317c95 0 191 48 248 121h63c-65 -110 -184 -176 -313 -176c-211 0 -375 165 -375 377
c0 205 168 371 371 371c185 0 340 -128 340 -308c0 -173 -141 -290 -234 -290c-35 0 -61 21 -64 65h-3c-31 -35 -75 -67 -124 -67c-85 0 -143 70 -143 158c0 139 94 284 235 284c47 0 89 -22 112 -82l23 63h63zM420 505c-93 0 -160 -122 -160 -209c0 -56 35 -97 86 -97
c87 0 155 130 155 213c0 48 -39 93 -81 93z" />
    <glyph glyph-name="A" unicode="A" horiz-adv-x="667" 
d="M-55 0l430 714h104l129 -714h-98l-33 215h-301l-125 -215h-106zM410 630l-191 -335h246l-53 335h-2z" />
    <glyph glyph-name="B" unicode="B" horiz-adv-x="685" 
d="M231 634l-48 -227h212c100 0 152 47 152 136c0 84 -81 91 -140 91h-176zM7 0l149 714h287c140 0 199 -63 199 -171c0 -79 -52 -158 -136 -172v-2c65 -19 107 -72 107 -148c0 -136 -112 -221 -253 -221h-353zM167 327l-52 -247h230c47 0 173 10 173 141
c0 91 -70 106 -147 106h-204z" />
    <glyph glyph-name="C" unicode="C" horiz-adv-x="722" 
d="M565 241h95c-36 -160 -140 -258 -316 -258c-195 0 -306 116 -306 313c0 231 148 435 392 435c154 0 272 -82 272 -247h-95c0 112 -73 167 -177 167c-199 0 -297 -183 -297 -355c0 -139 68 -233 211 -233c117 0 190 66 221 178z" />
    <glyph glyph-name="D" unicode="D" horiz-adv-x="704" 
d="M234 634l-117 -554h165c203 0 301 178 301 351c0 105 -39 203 -197 203h-152zM7 0l151 714h250c177 0 270 -104 270 -273c0 -269 -161 -441 -397 -441h-274z" />
    <glyph glyph-name="E" unicode="E" horiz-adv-x="611" 
d="M7 0l151 714h492l-16 -80h-397l-48 -227h370l-16 -80h-371l-52 -247h402l-18 -80h-497z" />
    <glyph glyph-name="F" unicode="F" horiz-adv-x="574" 
d="M7 0l149 714h470l-17 -80h-375l-47 -227h330l-17 -80h-330l-68 -327h-95z" />
    <glyph glyph-name="G" unicode="G" horiz-adv-x="759" 
d="M563 0l-6 71c-55 -60 -136 -88 -213 -88c-195 0 -306 116 -306 313c0 231 148 435 392 435c158 0 287 -74 287 -239h-95c0 109 -88 159 -192 159c-199 0 -297 -183 -297 -355c0 -139 68 -233 211 -233c152 0 223 94 258 233h-228l16 80h311l-78 -376h-60z" />
    <glyph glyph-name="H" unicode="H" horiz-adv-x="722" 
d="M7 0l150 714h96l-65 -307h374l64 307h95l-150 -714h-95l69 327h-374l-69 -327h-95z" />
    <glyph glyph-name="I" unicode="I" horiz-adv-x="259" 
d="M7 0l150 714h95l-150 -714h-95z" />
    <glyph glyph-name="J" unicode="J" horiz-adv-x="519" 
d="M525 714l-113 -538c-27 -123 -80 -193 -223 -193c-115 0 -198 53 -198 152c0 24 2 60 9 99h96c-5 -24 -9 -49 -10 -74c0 -68 40 -97 105 -97c96 0 120 85 136 162l104 489h94z" />
    <glyph glyph-name="K" unicode="K" horiz-adv-x="667" 
d="M7 0l151 714h95l-75 -352l2 -2l404 354h127l-344 -294l229 -420h-105l-195 362l-143 -121l-51 -241h-95z" />
    <glyph glyph-name="L" unicode="L" 
d="M7 0l150 714h95l-132 -634h377l-17 -80h-473z" />
    <glyph glyph-name="M" unicode="M" horiz-adv-x="870" 
d="M7 0l150 714h132l95 -614h2l353 614h132l-151 -714h-91l146 625h-2l-364 -625h-91l-93 625h-2l-125 -625h-91z" />
    <glyph glyph-name="N" unicode="N" horiz-adv-x="722" 
d="M7 0l151 714h102l255 -591h2l119 591h92l-151 -714h-102l-253 587h-2l-121 -587h-92z" />
    <glyph glyph-name="O" unicode="O" horiz-adv-x="759" 
d="M133 296c0 -139 68 -233 211 -233c189 0 289 181 289 352c0 132 -71 236 -203 236c-199 0 -297 -183 -297 -355zM38 296c0 231 148 435 392 435c185 0 298 -139 298 -316c0 -224 -146 -432 -384 -432c-195 0 -306 116 -306 313z" />
    <glyph glyph-name="P" unicode="P" horiz-adv-x="648" 
d="M236 634l-55 -262h215c103 0 158 60 158 145c0 88 -54 117 -117 117h-201zM7 0l149 714h281c137 0 212 -66 212 -197c0 -89 -62 -225 -273 -225h-212l-62 -292h-95z" />
    <glyph glyph-name="Q" unicode="Q" horiz-adv-x="759" 
d="M381 146l54 57l79 -77c80 66 119 182 119 289c0 132 -71 236 -203 236c-199 0 -297 -183 -297 -355c0 -139 68 -233 211 -233c38 0 72 7 102 21zM663 -18l-54 -56l-99 96c-48 -25 -103 -39 -166 -39c-195 0 -306 116 -306 313c0 231 148 435 392 435
c185 0 298 -139 298 -316c0 -137 -55 -268 -152 -349z" />
    <glyph glyph-name="R" unicode="R" horiz-adv-x="685" 
d="M7 0l151 714h275c121 0 235 -41 235 -182c0 -95 -66 -179 -161 -192v-2c61 -19 81 -83 73 -155c-5 -64 -28 -127 1 -183h-99c-9 27 -13 80 2 153c22 128 -26 149 -69 152h-38h-211l-64 -305h-95zM236 634l-53 -249h214c149 0 176 90 176 141c0 88 -69 108 -140 108h-197z
" />
    <glyph glyph-name="S" unicode="S" horiz-adv-x="648" 
d="M614 503h-95c3 113 -65 148 -164 148c-69 0 -165 -33 -165 -117c0 -69 51 -96 116 -115l96 -26c88 -24 172 -65 172 -193c0 -148 -150 -217 -278 -217c-172 0 -294 76 -281 251h95c-5 -129 74 -171 190 -171c89 0 179 41 179 137c0 73 -58 99 -127 118l-97 26
c-85 24 -160 74 -160 180c0 138 133 207 260 207c140 0 264 -69 259 -228z" />
    <glyph glyph-name="T" unicode="T" horiz-adv-x="574" 
d="M653 714l-18 -80h-240l-134 -634h-95l134 634h-240l17 80h576z" />
    <glyph glyph-name="U" unicode="U" horiz-adv-x="722" 
d="M728 714l-89 -428c-12 -56 -24 -109 -36 -137c-48 -117 -157 -166 -278 -166c-211 0 -300 111 -259 311l89 420h95l-94 -444c-32 -139 30 -207 169 -207c157 0 188 89 218 223l90 428h95z" />
    <glyph glyph-name="V" unicode="V" horiz-adv-x="611" 
d="M691 714l-403 -714h-107l-102 714h97l73 -621h2l339 621h101z" />
    <glyph glyph-name="W" unicode="W" horiz-adv-x="926" 
d="M983 714l-328 -714h-99l-45 616h-2l-282 -616h-102l-45 714h94l25 -601h2l274 601h108l40 -603h2l260 603h98z" />
    <glyph glyph-name="X" unicode="X" horiz-adv-x="611" 
d="M-44 0l310 373l-172 341h102l132 -282l229 282h107l-294 -354l181 -360h-98l-144 302l-244 -302h-109z" />
    <glyph glyph-name="Y" unicode="Y" horiz-adv-x="611" 
d="M193 0l61 287l-188 427h101l146 -346l271 346h110l-346 -427l-62 -287h-93z" />
    <glyph glyph-name="Z" unicode="Z" horiz-adv-x="611" 
d="M-38 0l17 79l536 555h-409l20 80h521l-17 -81l-540 -553h456l-17 -80h-567z" />
    <glyph glyph-name="bracketleft" unicode="[" horiz-adv-x="259" 
d="M-29 -198l192 929h189l-14 -65h-108l-164 -799h108l-14 -65h-189z" />
    <glyph glyph-name="backslash" unicode="\" horiz-adv-x="333" 
d="M55 731l296 -748h-73l-296 748h73z" />
    <glyph glyph-name="bracketright" unicode="]" horiz-adv-x="259" 
d="M253 731l-192 -929h-189l14 65h108l164 799h-108l14 65h189z" />
    <glyph glyph-name="asciicircum" unicode="^" horiz-adv-x="600" 
d="M50 264l218 433h64l218 -433h-70l-181 360l-178 -360h-71z" />
    <glyph glyph-name="underscore" unicode="_" horiz-adv-x="500" 
d="M0 -125v50h500v-50h-500z" />
    <glyph glyph-name="quoteleft" unicode="&#x2018;" horiz-adv-x="278" 
d="M246 567l-24 -111h-111c27 113 26 245 166 258l-10 -48c-53 -8 -66 -54 -77 -99h56z" />
    <glyph glyph-name="a" unicode="a" horiz-adv-x="519" 
d="M138 361h-85c16 115 115 168 224 168c100 0 189 -28 189 -132c0 -29 -9 -66 -16 -94l-33 -141c-4 -21 -14 -50 -14 -74s10 -32 25 -32c8 0 19 4 27 7l-13 -63c-13 -7 -37 -12 -52 -12c-47 0 -72 28 -67 73l-2 2c-36 -48 -85 -75 -173 -75c-86 0 -158 40 -158 146
c0 150 146 159 261 170c91 8 130 13 130 82c0 55 -59 68 -104 68c-65 0 -128 -26 -139 -93zM75 135c0 -48 45 -72 93 -72c67 0 116 23 145 68c28 39 33 85 45 133h-2c-71 -51 -279 2 -281 -129z" />
    <glyph glyph-name="b" unicode="b" horiz-adv-x="593" 
d="M-5 0l151 714h85l-55 -261l2 -2c39 49 94 78 158 78c138 0 203 -91 203 -223c0 -161 -98 -318 -273 -318c-95 0 -163 56 -174 108h-2l-19 -96h-76zM454 306c0 83 -39 148 -118 148c-149 0 -211 -153 -211 -262c0 -81 57 -129 141 -129c123 0 188 143 188 243z" />
    <glyph glyph-name="c" unicode="c" horiz-adv-x="537" 
d="M501 353h-85c0 64 -42 101 -109 101c-131 0 -201 -130 -201 -243c0 -80 32 -148 128 -148c73 0 127 42 151 106h85c-31 -116 -116 -181 -236 -181c-141 0 -213 83 -213 223c0 164 101 318 286 318c117 0 190 -55 194 -176z" />
    <glyph glyph-name="d" unicode="d" horiz-adv-x="593" 
d="M606 714l-151 -714h-80l18 74h-2c-51 -67 -102 -86 -171 -86c-132 0 -203 87 -203 212c0 156 106 329 287 329c64 0 140 -22 161 -91h2l55 276h84zM102 200c0 -84 40 -137 133 -137c129 0 202 149 202 257c0 77 -46 134 -130 134c-135 0 -205 -139 -205 -254z" />
    <glyph glyph-name="e" unicode="e" horiz-adv-x="537" 
d="M487 233h-389c-2 -15 -3 -30 -3 -45c0 -80 65 -125 134 -125c75 0 125 35 149 99h85c-27 -115 -122 -174 -234 -174c-172 0 -219 118 -219 208c0 198 124 333 266 333c152 0 219 -84 219 -229c0 -27 -5 -52 -8 -67zM110 308h300c5 73 -27 146 -121 146
c-100 0 -155 -66 -179 -146z" />
    <glyph glyph-name="f" unicode="f" horiz-adv-x="296" 
d="M23 0l96 442h-88l15 75h88c27 104 32 205 167 205c24 0 48 -1 71 -8l-14 -72c-15 3 -28 5 -40 5c-83 0 -82 -67 -100 -130h99l-14 -75h-100l-95 -442h-85z" />
    <glyph glyph-name="g" unicode="g" horiz-adv-x="574" 
d="M552 517l-93 -442c-12 -53 -25 -105 -40 -141c-44 -104 -124 -144 -235 -144c-105 0 -203 45 -206 160h85c5 -69 65 -85 130 -85c131 0 159 105 185 208l-2 2c-37 -56 -96 -79 -161 -79c-128 0 -194 90 -194 214c0 152 101 319 269 319c76 0 148 -41 164 -105v-2h2l16 95
h80zM106 210c0 -74 42 -139 127 -139c128 0 188 144 188 248c0 81 -43 135 -132 135c-119 0 -183 -149 -183 -244z" />
    <glyph glyph-name="h" unicode="h" 
d="M-5 0l151 714h85l-61 -273l2 -2c43 59 112 90 184 90c97 0 144 -41 144 -133c0 -23 -6 -61 -15 -101l-63 -295h-85l66 302c3 20 12 62 12 80c0 49 -39 72 -90 72c-47 0 -96 -25 -128 -60c-31 -27 -46 -67 -57 -108l-60 -286h-85z" />
    <glyph glyph-name="i" unicode="i" horiz-adv-x="222" 
d="M230 714l-22 -104h-86l22 104h86zM-5 0l108 517h85l-108 -517h-85z" />
    <glyph glyph-name="j" unicode="j" horiz-adv-x="222" 
d="M230 714l-22 -104h-86l22 104h86zM-120 -192l15 75c11 -3 22 -6 33 -6c37 0 46 24 62 97l113 543h85l-130 -614c-15 -64 -54 -101 -122 -101c-19 0 -37 1 -56 6z" />
    <glyph glyph-name="k" unicode="k" horiz-adv-x="481" 
d="M-5 0l151 714h84l-89 -420l2 -2l260 225h111l-225 -191l128 -326h-95l-101 275l-102 -91l-39 -184h-85z" />
    <glyph glyph-name="l" unicode="l" horiz-adv-x="222" 
d="M-5 0l150 714h85l-150 -714h-85z" />
    <glyph glyph-name="m" unicode="m" horiz-adv-x="852" 
d="M-5 0l110 517h79l-19 -77l2 -2c44 55 108 91 180 91c65 0 115 -25 130 -93c40 56 108 93 177 93c73 0 144 -32 144 -116c0 -31 -8 -74 -15 -103l-65 -310h-85l72 328c4 16 8 41 8 56c0 40 -34 70 -79 70c-48 0 -101 -34 -130 -71c-28 -31 -39 -72 -48 -116l-57 -267h-85
l62 295c9 40 16 79 16 91c0 43 -25 68 -72 68c-46 0 -97 -31 -127 -66c-36 -35 -44 -66 -55 -117l-58 -271h-85z" />
    <glyph glyph-name="n" unicode="n" 
d="M-5 0l109 517h82l-16 -78h2c43 59 112 90 184 90c97 0 144 -41 144 -133c0 -23 -6 -61 -15 -101l-63 -295h-85l66 302c3 20 12 62 12 80c0 49 -39 72 -90 72c-47 0 -96 -25 -128 -60c-31 -27 -46 -67 -57 -108l-60 -286h-85z" />
    <glyph glyph-name="o" unicode="o" horiz-adv-x="574" 
d="M17 204c0 169 108 325 289 325c139 0 215 -75 215 -214c0 -168 -105 -327 -286 -327c-136 0 -218 91 -218 216zM102 205c0 -85 49 -142 142 -142c124 0 192 144 192 245c0 81 -43 146 -136 146c-131 0 -198 -142 -198 -249z" />
    <glyph glyph-name="p" unicode="p" horiz-adv-x="593" 
d="M-49 -198l151 715h80l-18 -74h2c51 67 102 86 171 86c132 0 203 -87 203 -212c0 -156 -106 -329 -287 -329c-62 0 -142 22 -161 91h-2l-55 -277h-84zM455 317c0 84 -40 137 -133 137c-129 0 -202 -149 -202 -257c0 -77 46 -134 130 -134c135 0 205 139 205 254z" />
    <glyph glyph-name="q" unicode="q" horiz-adv-x="593" 
d="M102 212c0 -81 39 -149 132 -149c136 0 197 155 197 264c0 79 -49 127 -133 127c-125 0 -196 -135 -196 -242zM561 517l-151 -715h-86l56 264h-2c-40 -49 -99 -78 -163 -78c-135 0 -198 96 -198 224c0 160 101 317 272 317c76 0 139 -23 167 -94h2l17 82h86z" />
    <glyph glyph-name="r" unicode="r" horiz-adv-x="333" 
d="M-5 0l108 517h80l-25 -111h2c40 71 101 123 188 123c11 0 19 3 30 0l-20 -91c-4 1 -8 1 -13 1h-12c-21 0 -31 0 -51 -5c-47 -12 -83 -43 -110 -84c-23 -33 -35 -82 -43 -121l-49 -229h-85z" />
    <glyph glyph-name="s" unicode="s" horiz-adv-x="481" 
d="M440 365h-85c3 59 -47 89 -107 89c-52 0 -110 -14 -110 -66c0 -47 68 -69 136 -95c68 -30 137 -64 137 -145c0 -115 -111 -160 -211 -160c-118 0 -209 43 -209 175h85c-5 -76 61 -100 132 -100c56 0 118 20 118 79c0 51 -69 68 -136 98c-69 27 -137 62 -137 140
c0 96 96 149 192 149s195 -43 195 -164z" />
    <glyph glyph-name="t" unicode="t" horiz-adv-x="315" 
d="M253 670l-32 -153h103l-16 -75h-103l-64 -304c-1 -12 -3 -22 -3 -34c0 -27 24 -35 51 -35c17 0 33 4 49 9l-15 -78c-20 -4 -40 -6 -60 -6c-63 0 -116 18 -116 84c0 15 2 27 5 43l68 321h-87l16 75h87l32 153h85z" />
    <glyph glyph-name="u" unicode="u" 
d="M520 517l-109 -517h-82l16 78h-2c-43 -59 -112 -90 -184 -90c-97 0 -144 41 -144 133c0 23 6 61 15 101l63 295h85l-66 -302c-5 -19 -12 -62 -12 -80c0 -49 39 -72 90 -72c95 0 166 82 185 168l60 286h85z" />
    <glyph glyph-name="v" unicode="v" horiz-adv-x="481" 
d="M494 517l-287 -517h-91l-74 517h90l44 -430h2l224 430h92z" />
    <glyph glyph-name="w" unicode="w" horiz-adv-x="759" 
d="M762 517l-267 -517h-90l-26 402h-2l-185 -402h-90l-61 517h90l32 -411h2l186 411h96l25 -411h2l196 411h92z" />
    <glyph glyph-name="x" unicode="x" horiz-adv-x="481" 
d="M-66 0l242 274l-115 243h98l78 -188l154 188h103l-222 -250l132 -267h-97l-94 212l-176 -212h-103z" />
    <glyph glyph-name="y" unicode="y" horiz-adv-x="481" 
d="M505 517l-342 -605c-43 -67 -79 -122 -167 -122c-20 0 -43 5 -59 13l15 69c13 -8 34 -14 49 -14c39 0 60 23 80 56l52 86l-91 517h91l60 -411h2l217 411h93z" />
    <glyph glyph-name="z" unicode="z" horiz-adv-x="444" 
d="M-53 0l12 64l360 378h-278l15 75h393l-13 -61l-363 -381h309l-14 -75h-421z" />
    <glyph glyph-name="braceleft" unicode="{" horiz-adv-x="333" 
d="M395 731l-13 -60h-50c-38 0 -58 -44 -66 -88l-37 -181c-21 -93 -90 -128 -115 -134l-1 -3c19 -3 65 -25 65 -96c0 -12 -3 -23 -6 -38l-37 -181c-2 -11 -3 -23 -3 -34c0 -31 5 -54 33 -54h50l-13 -60h-70c-41 0 -85 31 -85 90c0 12 1 26 4 41l38 182c3 15 4 29 4 41
c0 47 -28 76 -63 76l15 68c43 0 91 46 107 118l38 182c16 85 85 131 135 131h70z" />
    <glyph glyph-name="bar" unicode="|" horiz-adv-x="222" 
d="M77 -214v1000h68v-1000h-68z" />
    <glyph glyph-name="braceright" unicode="}" horiz-adv-x="333" 
d="M-91 -198l13 60h50c38 0 58 44 66 88l37 181c19 93 92 129 115 134l1 3c-19 3 -65 25 -65 96c0 12 3 23 6 38l37 181c2 11 3 22 3 34c0 31 -5 54 -33 54h-50l13 60h70c41 0 85 -31 85 -90c0 -12 -1 -26 -4 -41l-38 -182c-3 -15 -4 -29 -4 -41c0 -48 28 -77 63 -77
l-15 -68c-43 0 -91 -48 -107 -117l-38 -182c-16 -85 -85 -131 -135 -131h-70z" />
    <glyph glyph-name="asciitilde" unicode="~" horiz-adv-x="600" 
d="M495 319l36 -50c-29 -43 -63 -86 -125 -86c-37 0 -69 14 -102 33c-32 19 -68 39 -115 39c-44 0 -68 -41 -84 -76l-36 50c21 43 59 86 125 86c35 0 72 -15 111 -32c37 -16 75 -40 102 -40c41 0 64 41 88 76z" />
    <glyph glyph-name="exclamdown" unicode="&#xa1;" horiz-adv-x="259" 
d="M-27 -198l47 223l90 308h46l-43 -308l-47 -223h-93zM225 517l-24 -111h-111l24 111h111z" />
    <glyph glyph-name="cent" unicode="&#xa2;" 
d="M395 169h85c-31 -116 -116 -181 -239 -181l-22 -104h-39l23 107c-115 15 -172 95 -172 220c0 164 112 318 286 318l19 91h39l-20 -93c96 -12 156 -67 156 -174h-85c0 60 -33 96 -86 104l-84 -399c68 5 116 47 139 111zM116 211c0 -77 27 -139 102 -150l84 398
c-121 -8 -186 -135 -186 -248z" />
    <glyph glyph-name="sterling" unicode="&#xa3;" 
d="M26 -12l-29 75c75 59 125 107 125 184c0 24 -2 49 -10 80h-86l10 45h62c-11 41 -23 84 -23 127c0 133 116 232 242 232c149 0 227 -109 219 -246h-90c8 83 -33 171 -122 171c-92 0 -159 -71 -159 -167c0 -40 8 -80 23 -117h154l-10 -45h-130c7 -19 10 -45 10 -68
c0 -65 -67 -148 -134 -188v-2c29 15 77 27 112 27c31 0 57 -8 84 -16c27 -9 53 -22 85 -22c35 0 67 27 94 46l32 -72c-36 -25 -93 -49 -136 -49c-36 0 -71 12 -104 24c-35 12 -66 24 -101 24c-44 0 -81 -22 -118 -43z" />
    <glyph glyph-name="fraction" unicode="&#x2044;" horiz-adv-x="167" 
d="M-166 -28l435 753h64l-435 -753h-64z" />
    <glyph glyph-name="yen" unicode="&#xa5;" 
d="M170 0l36 174h-145l14 60h144l8 52l-8 23h-130l14 60h97l-110 345h98l101 -344l239 344h108l-249 -345h96l-13 -60h-129l-24 -33l-9 -42h147l-14 -60h-146l-36 -174h-89z" />
    <glyph glyph-name="florin" unicode="&#x192;" 
d="M150 449h95l46 164c21 75 80 101 156 101c23 0 44 -4 65 -8l-20 -73c-12 5 -27 6 -40 6c-64 0 -75 -28 -96 -103l-24 -87h111l-18 -68h-111l-118 -415c-23 -87 -68 -131 -159 -131c-19 0 -37 2 -56 5l21 74c11 -3 23 -5 38 -4c48 7 66 43 77 84l110 387h-95z" />
    <glyph glyph-name="section" unicode="&#xa7;" 
d="M520 555h-80c1 60 -29 101 -97 101c-51 0 -95 -32 -95 -77c0 -39 22 -66 47 -93c56 -57 114 -111 161 -175c23 -31 35 -57 35 -96c0 -88 -56 -151 -143 -162c19 -20 29 -62 29 -89c0 -113 -93 -159 -194 -162c-113 3 -176 81 -176 189h80c0 -69 37 -114 110 -114
c52 0 95 29 95 80c0 35 -27 76 -49 101l-134 145c-31 34 -63 87 -63 136c0 91 55 138 139 157c-16 23 -22 51 -22 79c0 103 88 156 182 156c105 0 183 -66 175 -176zM126 351c0 -40 32 -79 59 -107l70 -75c8 -8 43 -46 59 -65c56 12 97 40 97 100c0 75 -152 179 -193 241
c-13 0 -53 -22 -62 -31c-20 -17 -30 -38 -30 -63z" />
    <glyph glyph-name="currency" unicode="&#xa4;" 
d="M281 524c-95 0 -168 -76 -168 -175c0 -97 74 -173 167 -173s163 79 163 175c0 93 -70 173 -162 173zM25 555l49 49l56 -56c39 32 95 51 151 51c53 0 107 -19 143 -50l57 56l50 -51l-55 -55c35 -37 52 -92 52 -148s-17 -109 -52 -150l55 -56l-47 -47l-56 58
c-39 -36 -92 -55 -148 -55c-59 0 -112 18 -152 54l-55 -58l-48 48l55 58c-33 40 -52 90 -52 146s17 111 54 148z" />
    <glyph glyph-name="quotesingle" unicode="'" horiz-adv-x="278" 
d="M142 456v258h68v-258h-68z" />
    <glyph glyph-name="quotedblleft" unicode="&#x201c;" horiz-adv-x="426" 
d="M224 567l-24 -111h-111c27 113 26 245 166 258l-10 -48c-53 -8 -66 -54 -77 -99h56zM406 567l-24 -111h-111c27 113 26 245 166 258l-10 -48c-53 -8 -66 -54 -77 -99h56z" />
    <glyph glyph-name="guillemotleft" unicode="&#xab;" horiz-adv-x="463" 
d="M349 114l-123 136l22 92l174 100l-21 -85l-120 -68l87 -90zM153 114l-123 136l22 92l174 100l-21 -85l-120 -68l87 -90z" />
    <glyph glyph-name="guilsinglleft" unicode="&#x2039;" horiz-adv-x="259" 
d="M153 114l-123 136l22 92l174 100l-21 -85l-120 -68l87 -90z" />
    <glyph glyph-name="guilsinglright" unicode="&#x203a;" horiz-adv-x="259" 
d="M92 442l123 -136l-22 -92l-174 -100l21 85l120 68l-87 90z" />
    <glyph glyph-name="endash" unicode="&#x2013;" horiz-adv-x="500" 
d="M-23 238l16 80h500l-16 -80h-500z" />
    <glyph glyph-name="dagger" unicode="&#x2020;" 
d="M128 -155l126 597h-191l16 75h191l42 197h85l-42 -197h191l-16 -75h-191l-126 -597h-85z" />
    <glyph glyph-name="daggerdbl" unicode="&#x2021;" 
d="M128 -155l42 197h-191l16 75h191l68 325h-191l16 75h191l42 197h85l-42 -197h191l-16 -75h-191l-68 -325h191l-16 -75h-191l-42 -197h-85z" />
    <glyph glyph-name="periodcentered" unicode="&#xb7;" horiz-adv-x="278" 
d="M67 253c0 37 31 64 64 64c36 0 64 -28 64 -64c0 -37 -28 -64 -64 -64c-35 0 -64 29 -64 64z" />
    <glyph glyph-name="paragraph" unicode="&#xb6;" horiz-adv-x="600" 
d="M142 -155l102 491c-123 0 -192 82 -171 186c27 129 127 192 267 192h238l-181 -869h-64l169 814h-126l-169 -814h-65z" />
    <glyph glyph-name="bullet" unicode="&#x2022;" horiz-adv-x="500" 
d="M72 357c0 99 79 178 178 178s179 -79 179 -178s-80 -179 -179 -179s-178 80 -178 179z" />
    <glyph glyph-name="quotesinglbase" unicode="&#x201a;" horiz-adv-x="278" 
d="M-2 0l24 111h111c-26 -111 -26 -247 -166 -258l10 48c54 8 64 54 77 99h-56z" />
    <glyph glyph-name="quotedblbase" unicode="&#x201e;" horiz-adv-x="426" 
d="M177 0l24 111h111c-26 -111 -26 -247 -166 -258l10 48c54 8 64 54 77 99h-56zM-5 0l24 111h111c-26 -111 -26 -247 -166 -258l10 48c54 8 64 54 77 99h-56z" />
    <glyph glyph-name="quotedblright" unicode="&#x201d;" horiz-adv-x="426" 
d="M298 603l24 111h111c-26 -111 -26 -247 -166 -258l10 48c54 8 64 54 77 99h-56zM116 603l24 111h111c-26 -111 -26 -247 -166 -258l10 48c54 8 64 54 77 99h-56z" />
    <glyph glyph-name="guillemotright" unicode="&#xbb;" horiz-adv-x="463" 
d="M296 442l123 -136l-22 -92l-174 -100l21 85l120 68l-87 90zM100 442l123 -136l-22 -92l-174 -100l21 85l120 68l-87 90z" />
    <glyph glyph-name="ellipsis" unicode="&#x2026;" horiz-adv-x="1000" 
d="M705 0l24 111h111l-24 -111h-111zM372 0l24 111h111l-24 -111h-111zM39 0l24 111h111l-24 -111h-111z" />
    <glyph glyph-name="perthousand" unicode="&#x2030;" horiz-adv-x="1074" 
d="M441 127c0 -40 18 -84 58 -84c67 0 103 93 100 153c0 40 -18 84 -58 84c-67 0 -103 -93 -100 -153zM373 127c0 107 57 208 174 208c83 0 120 -55 120 -134c0 -103 -52 -213 -172 -213c-90 0 -122 59 -122 139zM104 -28l435 753h64l-435 -753h-64zM116 501
c0 -40 18 -84 58 -84c67 0 103 93 100 153c0 40 -18 84 -58 84c-67 0 -103 -93 -100 -153zM48 501c0 107 57 208 174 208c83 0 120 -55 120 -134c0 -103 -52 -213 -172 -213c-90 0 -122 59 -122 139zM791 127c0 -40 18 -84 58 -84c67 0 103 93 100 153c0 40 -18 84 -58 84
c-67 0 -103 -93 -100 -153zM723 127c0 107 57 208 174 208c83 0 120 -55 120 -134c0 -103 -52 -213 -172 -213c-90 0 -122 59 -122 139z" />
    <glyph glyph-name="questiondown" unicode="&#xbf;" 
d="M373 517l-25 -111h-110l22 111h113zM346 25h85c-16 -143 -107 -235 -253 -235c-105 0 -197 65 -197 178c0 81 47 136 110 183c68 49 137 89 145 181h83c-19 -119 -68 -161 -161 -225c-44 -32 -87 -73 -87 -132c0 -64 47 -110 110 -110c100 0 149 67 165 160z" />
    <glyph glyph-name="grave" unicode="`" horiz-adv-x="222" 
d="M217 732l67 -143h-67l-101 143h101z" />
    <glyph glyph-name="acute" unicode="&#xb4;" horiz-adv-x="222" 
d="M177 589l93 143h113l-136 -143h-70z" />
    <glyph glyph-name="circumflex" unicode="&#x2c6;" horiz-adv-x="222" 
d="M70 589l133 143h86l75 -143h-74l-51 93l-87 -93h-82z" />
    <glyph glyph-name="tilde" unicode="&#x2dc;" horiz-adv-x="222" 
d="M115 608h-52c16 47 41 109 99 109c27 0 52 -13 77 -25c25 -11 47 -24 64 -21c31 0 39 18 51 41h51c-16 -51 -41 -109 -102 -109c-44 0 -112 51 -141 46c-27 0 -39 -18 -47 -41z" />
    <glyph glyph-name="macron" unicode="&#xaf;" horiz-adv-x="222" 
d="M92 627l12 55h269l-11 -55h-270z" />
    <glyph glyph-name="breve" unicode="&#x2d8;" horiz-adv-x="222" 
d="M94 730h45c1 -61 34 -84 94 -84c65 0 98 24 117 84h45c-12 -89 -78 -139 -166 -139c-89 0 -138 47 -135 139z" />
    <glyph glyph-name="dotaccent" unicode="&#x2d9;" horiz-adv-x="222" 
d="M175 602l21 104h89l-21 -104h-89z" />
    <glyph glyph-name="dieresis" unicode="&#xa8;" horiz-adv-x="222" 
d="M115 602l21 104h89l-21 -104h-89zM278 602l21 104h89l-21 -104h-89z" />
    <glyph glyph-name="ring" unicode="&#x2da;" horiz-adv-x="222" 
d="M126 680c0 61 52 113 113 113s113 -52 113 -113s-52 -113 -113 -113s-113 52 -113 113zM171 680c0 -39 29 -68 68 -68s68 29 68 68s-29 68 -68 68s-68 -29 -68 -68z" />
    <glyph glyph-name="cedilla" unicode="&#xb8;" horiz-adv-x="222" 
d="M-121 -188l18 43c21 -7 41 -15 64 -15c31 0 60 3 60 30c0 23 -23 31 -46 31c-15 0 -29 -1 -42 -8l-19 30l68 77h48l-51 -54h2c7 3 17 4 26 4c42 0 89 -19 89 -73c0 -61 -66 -87 -119 -87c-33 0 -65 7 -98 22z" />
    <glyph glyph-name="hungarumlaut" unicode="&#x2dd;" horiz-adv-x="222" 
d="M219 589l93 143h113l-136 -143h-70zM53 589l93 143h113l-136 -143h-70z" />
    <glyph glyph-name="ogonek" unicode="&#x2db;" horiz-adv-x="222" 
d="M17 0h67c-27 -17 -42 -27 -70 -51s-53 -51 -53 -72c0 -25 12 -37 37 -37c23 0 45 4 72 24l37 -12c-39 -47 -73 -62 -125 -62c-41 0 -89 13 -89 71c0 52 61 101 124 139z" />
    <glyph glyph-name="caron" unicode="&#x2c7;" horiz-adv-x="222" 
d="M403 732l-135 -143h-86l-77 143h76l51 -93l93 93h78z" />
    <glyph glyph-name="emdash" unicode="&#x2014;" horiz-adv-x="1000" 
d="M107 238l16 80h740l-16 -80h-740z" />
    <glyph glyph-name="AE" unicode="&#xc6;" horiz-adv-x="926" 
d="M-79 0l520 714h524l-17 -80h-351l-47 -227h330l-18 -80h-329l-53 -247h357l-16 -80h-455l43 208h-230l-149 -208h-109zM480 634l-245 -346h192l75 346h-22z" />
    <glyph glyph-name="ordfeminine" unicode="&#xaa;" horiz-adv-x="311" 
d="M262 499l12 45h-2c-41 -34 -181 3 -179 -77c0 -25 27 -37 59 -37c73 4 98 25 110 69zM135 606h-60c9 69 74 103 147 103c48 0 127 -20 127 -73c0 -15 -7 -37 -10 -53l-20 -83c-4 -17 -13 -43 -13 -58c0 -11 9 -12 17 -12c5 0 10 1 15 3l-8 -46c-9 -4 -23 -7 -34 -7
c-31 0 -47 19 -44 46h-3c-21 -28 -58 -46 -97 -46c-71 0 -119 22 -119 93c0 70 74 90 130 95c65 5 126 11 126 56c0 29 -35 35 -67 35c-43 0 -79 -14 -87 -53z" />
    <glyph glyph-name="Lslash" unicode="&#x141;" 
d="M7 0l50 235l-78 -48l17 82l78 48l83 397h95l-69 -330l221 136l-17 -83l-221 -135l-46 -222h377l-17 -80h-473z" />
    <glyph glyph-name="Oslash" unicode="&#xd8;" horiz-adv-x="759" 
d="M606 541l-425 -406c35 -45 87 -72 163 -72c189 0 289 181 289 352c0 48 -9 90 -27 126zM158 173l425 406c-35 45 -85 72 -153 72c-199 0 -297 -183 -297 -355c0 -47 8 -88 25 -123zM-12 10l100 96c-32 49 -50 114 -50 190c0 231 148 435 392 435c93 0 166 -35 217 -91
l98 93l29 -32l-100 -95c35 -53 54 -119 54 -191c0 -224 -146 -432 -384 -432c-100 0 -177 32 -229 88h-3l-95 -93z" />
    <glyph glyph-name="OE" unicode="&#x152;" horiz-adv-x="1074" 
d="M1106 714l-16 -80h-379l-48 -227h347l-16 -80h-347l-52 -247h384l-16 -80h-475l13 57h-2c-40 -51 -111 -74 -176 -74c-187 0 -281 141 -281 317c0 212 144 431 376 431c78 0 163 -28 206 -97l16 80h466zM538 257l56 277c11 59 -93 117 -167 117
c-192 0 -290 -187 -290 -359c0 -116 62 -229 191 -229c55 0 110 19 150 58s49 83 60 136z" />
    <glyph glyph-name="ordmasculine" unicode="&#xba;" horiz-adv-x="344" 
d="M44 512c0 101 72 197 190 197c91 0 141 -46 141 -130c0 -101 -71 -199 -186 -199c-88 0 -146 43 -145 132zM104 513c0 -47 28 -83 85 -83c76 0 126 73 126 145c0 47 -25 84 -85 84c-83 0 -126 -81 -126 -146z" />
    <glyph glyph-name="ae" unicode="&#xe6;" horiz-adv-x="870" 
d="M80 132c0 -51 47 -69 96 -69c47 0 92 12 125 45c35 35 53 108 61 158c-101 -48 -282 -8 -282 -134zM147 362h-83c19 122 118 167 231 167c67 0 133 -17 165 -81c37 52 101 81 165 81c132 0 199 -74 199 -203c0 -31 -6 -62 -14 -93h-375c-3 -16 -5 -33 -5 -52
c0 -62 39 -118 124 -118c76 0 126 35 153 99h87c-7 -20 -16 -39 -28 -58c-53 -80 -122 -116 -219 -116c-80 0 -153 24 -182 112c-45 -76 -115 -112 -203 -112c-86 0 -167 31 -167 144c0 112 98 147 197 158c98 11 196 11 196 95c0 59 -62 69 -113 69
c-64 0 -113 -32 -128 -92zM449 308h290c11 76 -23 146 -118 146c-93 0 -153 -70 -172 -146z" />
    <glyph glyph-name="dotlessi" unicode="&#x131;" horiz-adv-x="222" 
d="M80 0h-85l108 517h85z" />
    <glyph glyph-name="lslash" unicode="&#x142;" horiz-adv-x="222" 
d="M145 714h85l-53 -232l2 -2l66 52l-10 -78l-74 -57l-81 -397h-85l68 322l-70 -54l10 77l74 57z" />
    <glyph glyph-name="oslash" unicode="&#xf8;" horiz-adv-x="574" 
d="M-30 13l77 70c-20 33 -30 73 -30 121c0 169 108 325 289 325c74 0 129 -21 165 -63l70 63l25 -28l-73 -66c19 -32 28 -72 28 -120c0 -168 -105 -327 -286 -327c-73 0 -129 22 -166 65l-75 -68zM113 142l295 267c-23 27 -57 45 -108 45c-131 0 -198 -142 -198 -249
c0 -25 3 -46 10 -63h1zM425 374l-295 -266c23 -27 61 -45 114 -45c124 0 192 144 192 245c0 25 -4 47 -11 66z" />
    <glyph glyph-name="oe" unicode="&#x153;" horiz-adv-x="907" 
d="M667 454c-95 0 -157 -64 -175 -146h290c1 11 2 18 2 29c0 61 -37 117 -117 117zM102 195c0 -72 43 -132 128 -132c141 0 187 174 187 282c0 72 -52 109 -120 109c-127 0 -195 -152 -195 -259zM751 163h87c-39 -117 -129 -175 -250 -175c-81 0 -147 22 -179 102
c-37 -65 -109 -102 -184 -102c-129 0 -208 63 -208 203c0 163 109 338 288 338c81 0 145 -21 174 -101c37 69 114 101 190 101c135 0 200 -81 200 -205c0 -24 -6 -68 -11 -91h-379c-4 -16 -7 -34 -7 -53c0 -80 51 -117 131 -117c68 0 125 41 148 100z" />
    <glyph glyph-name="germandbls" unicode="&#xdf;" horiz-adv-x="537" 
d="M-5 0l107 504c26 135 86 227 225 227c97 0 187 -41 187 -150c0 -96 -63 -173 -149 -184v-2c74 -11 113 -75 113 -147c0 -140 -106 -260 -249 -260c-25 0 -49 1 -73 5l14 72c5 -1 10 -2 15 -2h15c107 0 193 64 193 178c0 103 -74 119 -161 116l15 70c90 -5 182 35 182 137
c0 60 -53 92 -98 92c-101 0 -129 -82 -145 -159l-105 -497h-86z" />
    <glyph glyph-name="onesuperior" unicode="&#xb9;" horiz-adv-x="333" 
d="M304 709l-90 -429h-66l66 325c-39 -13 -70 -17 -117 -17l9 50c72 0 128 32 151 71h47z" />
    <glyph glyph-name="logicalnot" unicode="&#xac;" horiz-adv-x="600" 
d="M552 388v-279h-68v211h-436v68h504z" />
    <glyph glyph-name="mu" unicode="&#xb5;" 
d="M520 517l-109 -517h-82l16 78h-2c-43 -59 -113 -90 -172 -90c-47 0 -82 22 -93 38h-2l-47 -224h-85l149 715h85l-66 -302c-5 -19 -12 -62 -12 -80c0 -49 39 -72 90 -72c95 0 166 82 185 168l60 286h85z" />
    <glyph glyph-name="trademark" unicode="&#x2122;" horiz-adv-x="990" 
d="M926 714v-412h-68v344h-2l-135 -344h-43l-135 344h-2v-344h-68v412h105l123 -313l121 313h104zM390 714v-55h-129v-357h-68v357h-129v55h326z" />
    <glyph glyph-name="Eth" unicode="&#xd0;" horiz-adv-x="704" 
d="M234 634l-48 -227h200l-14 -68h-200l-55 -259h165c203 0 301 178 301 351c0 105 -39 203 -197 203h-152zM7 0l72 339h-66l14 68h66l65 307h250c177 0 270 -104 270 -273c0 -269 -161 -441 -397 -441h-274z" />
    <glyph glyph-name="onehalf" unicode="&#xbd;" horiz-adv-x="834" 
d="M124 -28l435 753h64l-435 -753h-64zM542 281h-68c9 89 67 148 171 148c75 0 134 -44 134 -115c0 -66 -48 -110 -107 -142l-63 -36c-43 -24 -98 -54 -103 -81h231l-10 -55h-296c0 80 40 117 124 170l64 40c39 24 92 52 92 101c0 40 -27 63 -72 63c-60 0 -94 -38 -97 -93z
M286 709l-90 -429h-66l66 325c-39 -13 -70 -17 -117 -17l9 50c72 0 128 32 151 71h47z" />
    <glyph glyph-name="plusminus" unicode="&#xb1;" horiz-adv-x="600" 
d="M48 0v68h504v-68h-504zM48 271v68h218v166h68v-166h218v-68h-218v-167h-68v167h-218z" />
    <glyph glyph-name="Thorn" unicode="&#xde;" horiz-adv-x="648" 
d="M211 520l-55 -262h215c103 0 158 60 158 145c0 88 -54 117 -117 117h-201zM7 0l149 714h95l-23 -114h184c137 0 212 -66 212 -197c0 -89 -62 -225 -273 -225h-212l-37 -178h-95z" />
    <glyph glyph-name="onequarter" unicode="&#xbc;" horiz-adv-x="834" 
d="M124 -28l435 753h64l-435 -753h-64zM286 709l-90 -429h-66l66 325c-39 -13 -70 -17 -117 -17l9 50c72 0 128 32 151 71h47zM482 151h139l41 181h-2zM589 0l22 96h-199l11 58l269 275h58l-64 -278h61l-13 -55h-60l-22 -96h-63z" />
    <glyph glyph-name="divide" unicode="&#xf7;" horiz-adv-x="600" 
d="M236 47c0 35 29 64 64 64s64 -29 64 -64c0 -32 -30 -64 -63 -64c-35 0 -65 29 -65 64zM236 459c0 35 29 64 64 64s64 -29 64 -64c0 -32 -30 -64 -63 -64c-35 0 -65 29 -65 64zM48 219v68h504v-68h-504z" />
    <glyph glyph-name="brokenbar" unicode="&#xa6;" horiz-adv-x="222" 
d="M145 661v-250h-68v250h68zM77 -89v250h68v-250h-68z" />
    <glyph glyph-name="degree" unicode="&#xb0;" horiz-adv-x="400" 
d="M127 561c0 -56 42 -98 98 -98s98 42 98 98s-42 98 -98 98s-98 -42 -98 -98zM77 561c0 83 65 148 148 148s148 -65 148 -148s-65 -148 -148 -148s-148 65 -148 148z" />
    <glyph glyph-name="thorn" unicode="&#xfe;" horiz-adv-x="593" 
d="M-49 -198l191 912h85l-63 -271h2c51 67 102 86 171 86c132 0 203 -87 203 -212c0 -156 -106 -329 -287 -329c-62 0 -142 22 -161 91h-2l-55 -277h-84zM455 317c0 84 -40 137 -133 137c-129 0 -202 -149 -202 -257c0 -77 46 -134 130 -134c135 0 205 139 205 254z" />
    <glyph glyph-name="threequarters" unicode="&#xbe;" horiz-adv-x="834" 
d="M199 -28l435 753h64l-435 -753h-64zM160 477l9 50c56 -5 124 7 124 73c0 43 -33 54 -74 54c-52 0 -86 -31 -89 -78h-68c4 77 65 133 160 133c76 0 139 -35 139 -108c0 -47 -37 -86 -88 -98v-2c44 -15 65 -48 65 -89c0 -67 -61 -139 -172 -139c-105 0 -153 52 -149 140h68
c-3 -48 9 -85 83 -85c60 0 102 29 102 85c0 65 -56 67 -110 64zM659 151l41 181h-2l-178 -181h139zM627 0l22 96h-199l11 58l269 275h58l-64 -278h61l-13 -55h-60l-22 -96h-63z" />
    <glyph glyph-name="twosuperior" unicode="&#xb2;" horiz-adv-x="333" 
d="M123 561h-68c9 89 67 148 171 148c75 0 134 -44 134 -115c0 -66 -48 -110 -107 -142l-63 -36c-43 -24 -98 -54 -103 -81h231l-10 -55h-296c0 80 40 117 124 170l64 40c39 24 92 52 92 101c0 40 -27 63 -72 63c-60 -3 -94 -38 -97 -93z" />
    <glyph glyph-name="registered" unicode="&#xae;" horiz-adv-x="800" 
d="M323 521v-139h71c60 0 115 3 115 72c0 58 -50 67 -96 67h-90zM255 139v437h169c104 0 153 -41 153 -125c0 -79 -50 -112 -115 -119l125 -193h-73l-119 188h-72v-188h-68zM92 359c0 -183 133 -321 309 -321c173 0 307 138 307 321c0 179 -134 317 -307 317
c-176 0 -309 -138 -309 -317zM24 359c0 211 172 372 377 372c204 0 375 -161 375 -372c0 -215 -171 -376 -375 -376c-205 0 -377 161 -377 376z" />
    <glyph glyph-name="minus" unicode="&#x2212;" horiz-adv-x="600" 
d="M48 219v68h504v-68h-504z" />
    <glyph glyph-name="eth" unicode="&#xf0;" horiz-adv-x="574" 
d="M464 734l44 -38l-108 -55c78 -75 129 -150 129 -299c0 -195 -99 -354 -294 -354c-136 0 -218 91 -218 211c0 160 108 307 289 307c45 0 90 -10 129 -53h2c-19 62 -74 128 -109 152l-114 -57l-42 40l113 56c-19 15 -36 27 -59 42l64 45c23 -15 45 -29 69 -50zM300 431
c-131 0 -198 -133 -198 -231c0 -80 49 -137 142 -137c124 0 195 139 195 236c0 76 -46 132 -139 132z" />
    <glyph glyph-name="multiply" unicode="&#xd7;" horiz-adv-x="600" 
d="M119 24l-48 48l182 182l-181 180l48 48l181 -180l180 180l48 -48l-180 -180l181 -182l-48 -48l-181 182z" />
    <glyph glyph-name="threesuperior" unicode="&#xb3;" horiz-adv-x="333" 
d="M160 477l9 50c56 -5 124 7 124 73c0 43 -33 54 -74 54c-52 0 -86 -31 -89 -78h-68c4 77 65 133 160 133c76 0 139 -35 139 -108c0 -47 -37 -86 -88 -98v-2c44 -15 65 -48 65 -89c0 -67 -61 -139 -172 -139c-105 0 -153 52 -149 140h68c-3 -48 9 -85 83 -85
c60 0 102 29 102 85c0 65 -56 67 -110 64z" />
    <glyph glyph-name="copyright" unicode="&#xa9;" horiz-adv-x="800" 
d="M535 285h64c-21 -97 -94 -157 -186 -157c-136 0 -222 98 -222 229c0 133 82 228 219 228c96 0 172 -53 188 -152h-63c-11 56 -57 97 -124 97c-99 0 -152 -75 -152 -171c0 -93 58 -176 154 -176c67 0 113 42 122 102zM92 359c0 -183 133 -321 309 -321
c173 0 307 138 307 321c0 178 -134 317 -307 317c-176 0 -309 -139 -309 -317zM24 359c0 211 172 372 377 372c204 0 375 -161 375 -372c0 -215 -171 -376 -375 -376c-205 0 -377 161 -377 376z" />
    <glyph glyph-name="Aacute" unicode="&#xc1;" horiz-adv-x="667" 
d="M-55 0l430 714h104l129 -714h-98l-33 215h-301l-125 -215h-106zM410 630l-191 -335h246l-53 335h-2zM378 779l93 143h113l-136 -143h-70z" />
    <glyph glyph-name="Acircumflex" unicode="&#xc2;" horiz-adv-x="667" 
d="M-55 0l430 714h104l129 -714h-98l-33 215h-301l-125 -215h-106zM410 630l-191 -335h246l-53 335h-2zM282 779l133 143h86l75 -143h-74l-51 93l-87 -93h-82z" />
    <glyph glyph-name="Adieresis" unicode="&#xc4;" horiz-adv-x="667" 
d="M-55 0l430 714h104l129 -714h-98l-33 215h-301l-125 -215h-106zM410 630l-191 -335h246l-53 335h-2zM318 792l21 104h89l-21 -104h-89zM481 792l21 104h89l-21 -104h-89z" />
    <glyph glyph-name="Agrave" unicode="&#xc0;" horiz-adv-x="667" 
d="M-55 0l430 714h104l129 -714h-98l-33 215h-301l-125 -215h-106zM410 630l-191 -335h246l-53 335h-2zM411 922l67 -143h-67l-101 143h101z" />
    <glyph glyph-name="Aring" unicode="&#xc5;" horiz-adv-x="667" 
d="M-55 0l430 714h104l129 -714h-98l-33 215h-301l-125 -215h-106zM410 630l-191 -335h246l-53 335h-2zM326 860c0 61 52 113 113 113s113 -52 113 -113s-52 -113 -113 -113s-113 52 -113 113zM371 860c0 -39 29 -68 68 -68s68 29 68 68s-29 68 -68 68s-68 -29 -68 -68z" />
    <glyph glyph-name="Atilde" unicode="&#xc3;" horiz-adv-x="667" 
d="M-55 0l430 714h104l129 -714h-98l-33 215h-301l-125 -215h-106zM410 630l-191 -335h246l-53 335h-2zM309 798h-52c16 47 41 109 99 109c27 0 52 -13 77 -25c25 -11 47 -24 64 -21c31 0 39 18 51 41h51c-16 -51 -41 -109 -102 -109c-44 0 -112 51 -141 46
c-27 0 -39 -18 -47 -41z" />
    <glyph glyph-name="Ccedilla" unicode="&#xc7;" horiz-adv-x="722" 
d="M183 -188l18 43c21 -7 41 -15 64 -15c31 0 60 3 60 30c0 23 -23 31 -46 31c-15 0 -29 -1 -42 -8l-19 30l57 65c-21 4 -42 9 -61 16c-113 42 -176 144 -176 292c0 231 148 435 392 435c154 0 272 -82 272 -247h-95c0 112 -73 167 -177 167c-199 0 -297 -183 -297 -355
c0 -139 68 -233 211 -233c117 0 190 66 221 178h95c-36 -160 -140 -258 -316 -258c-9 0 -17 0 -26 1l-35 -38h2c7 3 17 4 26 4c42 0 89 -19 89 -73c0 -61 -66 -87 -119 -87c-33 0 -65 7 -98 22z" />
    <glyph glyph-name="Eacute" unicode="&#xc9;" horiz-adv-x="611" 
d="M7 0l151 714h492l-16 -80h-397l-48 -227h370l-16 -80h-371l-52 -247h402l-18 -80h-497zM372 779l93 143h113l-136 -143h-70z" />
    <glyph glyph-name="Ecircumflex" unicode="&#xca;" horiz-adv-x="611" 
d="M7 0l151 714h492l-16 -80h-397l-48 -227h370l-16 -80h-371l-52 -247h402l-18 -80h-497zM260 779l133 143h86l75 -143h-74l-51 93l-87 -93h-82z" />
    <glyph glyph-name="Edieresis" unicode="&#xcb;" horiz-adv-x="611" 
d="M7 0l151 714h492l-16 -80h-397l-48 -227h370l-16 -80h-371l-52 -247h402l-18 -80h-497zM284 792l21 104h89l-21 -104h-89zM447 792l21 104h89l-21 -104h-89z" />
    <glyph glyph-name="Egrave" unicode="&#xc8;" horiz-adv-x="611" 
d="M7 0l151 714h492l-16 -80h-397l-48 -227h370l-16 -80h-371l-52 -247h402l-18 -80h-497zM411 922l67 -143h-67l-101 143h101z" />
    <glyph glyph-name="Iacute" unicode="&#xcd;" horiz-adv-x="259" 
d="M7 0l150 714h95l-150 -714h-95zM156 779l93 143h113l-136 -143h-70z" />
    <glyph glyph-name="Icircumflex" unicode="&#xce;" horiz-adv-x="259" 
d="M7 0l150 714h95l-150 -714h-95zM68 779l133 143h86l75 -143h-74l-51 93l-87 -93h-82z" />
    <glyph glyph-name="Idieresis" unicode="&#xcf;" horiz-adv-x="259" 
d="M7 0l150 714h95l-150 -714h-95zM93 792l21 104h89l-21 -104h-89zM256 792l21 104h89l-21 -104h-89z" />
    <glyph glyph-name="Igrave" unicode="&#xcc;" horiz-adv-x="259" 
d="M7 0l150 714h95l-150 -714h-95zM189 922l67 -143h-67l-101 143h101z" />
    <glyph glyph-name="Ntilde" unicode="&#xd1;" horiz-adv-x="722" 
d="M7 0l151 714h102l255 -591h2l119 591h92l-151 -714h-102l-253 587h-2l-121 -587h-92zM342 798h-52c16 47 41 109 99 109c27 0 52 -13 77 -25c25 -11 47 -24 64 -21c31 0 39 18 51 41h51c-16 -51 -41 -109 -102 -109c-44 0 -112 51 -141 46c-27 0 -39 -18 -47 -41z" />
    <glyph glyph-name="Oacute" unicode="&#xd3;" horiz-adv-x="759" 
d="M133 296c0 -139 68 -233 211 -233c189 0 289 181 289 352c0 132 -71 236 -203 236c-199 0 -297 -183 -297 -355zM38 296c0 231 148 435 392 435c185 0 298 -139 298 -316c0 -224 -146 -432 -384 -432c-195 0 -306 116 -306 313zM393 779l93 143h113l-136 -143h-70z" />
    <glyph glyph-name="Ocircumflex" unicode="&#xd4;" horiz-adv-x="759" 
d="M133 296c0 -139 68 -233 211 -233c189 0 289 181 289 352c0 132 -71 236 -203 236c-199 0 -297 -183 -297 -355zM38 296c0 231 148 435 392 435c185 0 298 -139 298 -316c0 -224 -146 -432 -384 -432c-195 0 -306 116 -306 313zM312 779l133 143h86l75 -143h-74l-51 93
l-87 -93h-82z" />
    <glyph glyph-name="Odieresis" unicode="&#xd6;" horiz-adv-x="759" 
d="M133 296c0 -139 68 -233 211 -233c189 0 289 181 289 352c0 132 -71 236 -203 236c-199 0 -297 -183 -297 -355zM38 296c0 231 148 435 392 435c185 0 298 -139 298 -316c0 -224 -146 -432 -384 -432c-195 0 -306 116 -306 313zM327 792l21 104h89l-21 -104h-89zM490 792
l21 104h89l-21 -104h-89z" />
    <glyph glyph-name="Ograve" unicode="&#xd2;" horiz-adv-x="759" 
d="M133 296c0 -139 68 -233 211 -233c189 0 289 181 289 352c0 132 -71 236 -203 236c-199 0 -297 -183 -297 -355zM38 296c0 231 148 435 392 435c185 0 298 -139 298 -316c0 -224 -146 -432 -384 -432c-195 0 -306 116 -306 313zM427 922l67 -143h-67l-101 143h101z" />
    <glyph glyph-name="Otilde" unicode="&#xd5;" horiz-adv-x="759" 
d="M133 296c0 -139 68 -233 211 -233c189 0 289 181 289 352c0 132 -71 236 -203 236c-199 0 -297 -183 -297 -355zM38 296c0 231 148 435 392 435c185 0 298 -139 298 -316c0 -224 -146 -432 -384 -432c-195 0 -306 116 -306 313zM348 798h-52c16 47 41 109 99 109
c27 0 52 -13 77 -25c25 -11 47 -24 64 -21c31 0 39 18 51 41h51c-16 -51 -41 -109 -102 -109c-44 0 -112 51 -141 46c-27 0 -39 -18 -47 -41z" />
    <glyph glyph-name="Scaron" unicode="&#x160;" horiz-adv-x="648" 
d="M614 503h-95c3 113 -65 148 -164 148c-69 0 -165 -33 -165 -117c0 -69 51 -96 116 -115l96 -26c88 -24 172 -65 172 -193c0 -148 -150 -217 -278 -217c-172 0 -294 76 -281 251h95c-5 -129 74 -171 190 -171c89 0 179 41 179 137c0 73 -58 99 -127 118l-97 26
c-85 24 -160 74 -160 180c0 138 133 207 260 207c140 0 264 -69 259 -228zM562 922l-135 -143h-86l-77 143h76l51 -93l93 93h78z" />
    <glyph glyph-name="Uacute" unicode="&#xda;" horiz-adv-x="722" 
d="M728 714l-89 -428c-12 -56 -24 -109 -36 -137c-48 -117 -157 -166 -278 -166c-211 0 -300 111 -259 311l89 420h95l-94 -444c-32 -139 30 -207 169 -207c157 0 188 89 218 223l90 428h95zM405 779l93 143h113l-136 -143h-70z" />
    <glyph glyph-name="Ucircumflex" unicode="&#xdb;" horiz-adv-x="722" 
d="M728 714l-89 -428c-12 -56 -24 -109 -36 -137c-48 -117 -157 -166 -278 -166c-211 0 -300 111 -259 311l89 420h95l-94 -444c-32 -139 30 -207 169 -207c157 0 188 89 218 223l90 428h95zM303 779l133 143h86l75 -143h-74l-51 93l-87 -93h-82z" />
    <glyph glyph-name="Udieresis" unicode="&#xdc;" horiz-adv-x="722" 
d="M728 714l-89 -428c-12 -56 -24 -109 -36 -137c-48 -117 -157 -166 -278 -166c-211 0 -300 111 -259 311l89 420h95l-94 -444c-32 -139 30 -207 169 -207c157 0 188 89 218 223l90 428h95zM319 792l21 104h89l-21 -104h-89zM482 792l21 104h89l-21 -104h-89z" />
    <glyph glyph-name="Ugrave" unicode="&#xd9;" horiz-adv-x="722" 
d="M728 714l-89 -428c-12 -56 -24 -109 -36 -137c-48 -117 -157 -166 -278 -166c-211 0 -300 111 -259 311l89 420h95l-94 -444c-32 -139 30 -207 169 -207c157 0 188 89 218 223l90 428h95zM408 922l67 -143h-67l-101 143h101z" />
    <glyph glyph-name="Yacute" unicode="&#xdd;" horiz-adv-x="611" 
d="M193 0l61 287l-188 427h101l146 -346l271 346h110l-346 -427l-62 -287h-93zM359 779l93 143h113l-136 -143h-70z" />
    <glyph glyph-name="Ydieresis" unicode="&#x178;" horiz-adv-x="611" 
d="M193 0l61 287l-188 427h101l146 -346l271 346h110l-346 -427l-62 -287h-93zM262 792l21 104h89l-21 -104h-89zM425 792l21 104h89l-21 -104h-89z" />
    <glyph glyph-name="Zcaron" unicode="&#x17d;" horiz-adv-x="611" 
d="M-38 0l17 79l536 555h-409l20 80h521l-17 -81l-540 -553h456l-17 -80h-567zM564 922l-135 -143h-86l-77 143h76l51 -93l93 93h78z" />
    <glyph glyph-name="aacute" unicode="&#xe1;" horiz-adv-x="519" 
d="M138 361h-85c16 115 115 168 224 168c100 0 189 -28 189 -132c0 -29 -9 -66 -16 -94l-33 -141c-4 -21 -14 -50 -14 -74s10 -32 25 -32c8 0 19 4 27 7l-13 -63c-13 -7 -37 -12 -52 -12c-47 0 -72 28 -67 73l-2 2c-36 -48 -85 -75 -173 -75c-86 0 -158 40 -158 146
c0 150 146 159 261 170c91 8 130 13 130 82c0 55 -59 68 -104 68c-65 0 -128 -26 -139 -93zM75 135c0 -48 45 -72 93 -72c67 0 116 23 145 68c28 39 33 85 45 133h-2c-71 -51 -279 2 -281 -129zM271 589l93 143h113l-136 -143h-70z" />
    <glyph glyph-name="acircumflex" unicode="&#xe2;" horiz-adv-x="519" 
d="M138 361h-85c16 115 115 168 224 168c100 0 189 -28 189 -132c0 -29 -9 -66 -16 -94l-33 -141c-4 -21 -14 -50 -14 -74s10 -32 25 -32c8 0 19 4 27 7l-13 -63c-13 -7 -37 -12 -52 -12c-47 0 -72 28 -67 73l-2 2c-36 -48 -85 -75 -173 -75c-86 0 -158 40 -158 146
c0 150 146 159 261 170c91 8 130 13 130 82c0 55 -59 68 -104 68c-65 0 -128 -26 -139 -93zM75 135c0 -48 45 -72 93 -72c67 0 116 23 145 68c28 39 33 85 45 133h-2c-71 -51 -279 2 -281 -129zM149 589l133 143h86l75 -143h-74l-51 93l-87 -93h-82z" />
    <glyph glyph-name="adieresis" unicode="&#xe4;" horiz-adv-x="519" 
d="M138 361h-85c16 115 115 168 224 168c100 0 189 -28 189 -132c0 -29 -9 -66 -16 -94l-33 -141c-4 -21 -14 -50 -14 -74s10 -32 25 -32c8 0 19 4 27 7l-13 -63c-13 -7 -37 -12 -52 -12c-47 0 -72 28 -67 73l-2 2c-36 -48 -85 -75 -173 -75c-86 0 -158 40 -158 146
c0 150 146 159 261 170c91 8 130 13 130 82c0 55 -59 68 -104 68c-65 0 -128 -26 -139 -93zM75 135c0 -48 45 -72 93 -72c67 0 116 23 145 68c28 39 33 85 45 133h-2c-71 -51 -279 2 -281 -129zM176 602l21 104h89l-21 -104h-89zM339 602l21 104h89l-21 -104h-89z" />
    <glyph glyph-name="agrave" unicode="&#xe0;" horiz-adv-x="519" 
d="M138 361h-85c16 115 115 168 224 168c100 0 189 -28 189 -132c0 -29 -9 -66 -16 -94l-33 -141c-4 -21 -14 -50 -14 -74s10 -32 25 -32c8 0 19 4 27 7l-13 -63c-13 -7 -37 -12 -52 -12c-47 0 -72 28 -67 73l-2 2c-36 -48 -85 -75 -173 -75c-86 0 -158 40 -158 146
c0 150 146 159 261 170c91 8 130 13 130 82c0 55 -59 68 -104 68c-65 0 -128 -26 -139 -93zM75 135c0 -48 45 -72 93 -72c67 0 116 23 145 68c28 39 33 85 45 133h-2c-71 -51 -279 2 -281 -129zM308 732l67 -143h-67l-101 143h101z" />
    <glyph glyph-name="aring" unicode="&#xe5;" horiz-adv-x="519" 
d="M138 361h-85c16 115 115 168 224 168c100 0 189 -28 189 -132c0 -29 -9 -66 -16 -94l-33 -141c-4 -21 -14 -50 -14 -74s10 -32 25 -32c8 0 19 4 27 7l-13 -63c-13 -7 -37 -12 -52 -12c-47 0 -72 28 -67 73l-2 2c-36 -48 -85 -75 -173 -75c-86 0 -158 40 -158 146
c0 150 146 159 261 170c91 8 130 13 130 82c0 55 -59 68 -104 68c-65 0 -128 -26 -139 -93zM75 135c0 -48 45 -72 93 -72c67 0 116 23 145 68c28 39 33 85 45 133h-2c-71 -51 -279 2 -281 -129zM204 674c0 61 52 113 113 113s113 -52 113 -113s-52 -113 -113 -113
s-113 52 -113 113zM249 674c0 -39 29 -68 68 -68s68 29 68 68s-29 68 -68 68s-68 -29 -68 -68z" />
    <glyph glyph-name="atilde" unicode="&#xe3;" horiz-adv-x="519" 
d="M138 361h-85c16 115 115 168 224 168c100 0 189 -28 189 -132c0 -29 -9 -66 -16 -94l-33 -141c-4 -21 -14 -50 -14 -74s10 -32 25 -32c8 0 19 4 27 7l-13 -63c-13 -7 -37 -12 -52 -12c-47 0 -72 28 -67 73l-2 2c-36 -48 -85 -75 -173 -75c-86 0 -158 40 -158 146
c0 150 146 159 261 170c91 8 130 13 130 82c0 55 -59 68 -104 68c-65 0 -128 -26 -139 -93zM75 135c0 -48 45 -72 93 -72c67 0 116 23 145 68c28 39 33 85 45 133h-2c-71 -51 -279 2 -281 -129zM186 608h-52c16 47 41 109 99 109c27 0 52 -13 77 -25c25 -11 47 -24 64 -21
c31 0 39 18 51 41h51c-16 -51 -41 -109 -102 -109c-44 0 -112 51 -141 46c-27 0 -39 -18 -47 -41z" />
    <glyph glyph-name="ccedilla" unicode="&#xe7;" horiz-adv-x="537" 
d="M79 -188l18 43c21 -7 41 -15 64 -15c31 0 60 3 60 30c0 23 -23 31 -46 31c-15 0 -29 -1 -42 -8l-19 30l62 70c-43 8 -77 26 -102 54c-35 39 -53 94 -53 164c0 164 101 318 286 318c117 0 190 -55 194 -176h-85c0 64 -42 101 -109 101c-131 0 -201 -130 -201 -243
c0 -80 32 -148 128 -148c73 0 127 42 151 106h85c-31 -116 -116 -181 -236 -181h-15l-40 -42h2c7 3 17 4 26 4c42 0 89 -19 89 -73c0 -61 -66 -87 -119 -87c-33 0 -65 7 -98 22z" />
    <glyph glyph-name="eacute" unicode="&#xe9;" horiz-adv-x="537" 
d="M487 233h-389c-2 -15 -3 -30 -3 -45c0 -80 65 -125 134 -125c75 0 125 35 149 99h85c-27 -115 -122 -174 -234 -174c-172 0 -219 118 -219 208c0 198 124 333 266 333c152 0 219 -84 219 -229c0 -27 -5 -52 -8 -67zM110 308h300c5 73 -27 146 -121 146
c-100 0 -155 -66 -179 -146zM272 589l93 143h113l-136 -143h-70z" />
    <glyph glyph-name="ecircumflex" unicode="&#xea;" horiz-adv-x="537" 
d="M487 233h-389c-2 -15 -3 -30 -3 -45c0 -80 65 -125 134 -125c75 0 125 35 149 99h85c-27 -115 -122 -174 -234 -174c-172 0 -219 118 -219 208c0 198 124 333 266 333c152 0 219 -84 219 -229c0 -27 -5 -52 -8 -67zM110 308h300c5 73 -27 146 -121 146
c-100 0 -155 -66 -179 -146zM152 589l133 143h86l75 -143h-74l-51 93l-87 -93h-82z" />
    <glyph glyph-name="edieresis" unicode="&#xeb;" horiz-adv-x="537" 
d="M487 233h-389c-2 -15 -3 -30 -3 -45c0 -80 65 -125 134 -125c75 0 125 35 149 99h85c-27 -115 -122 -174 -234 -174c-172 0 -219 118 -219 208c0 198 124 333 266 333c152 0 219 -84 219 -229c0 -27 -5 -52 -8 -67zM110 308h300c5 73 -27 146 -121 146
c-100 0 -155 -66 -179 -146zM184 602l21 104h89l-21 -104h-89zM347 602l21 104h89l-21 -104h-89z" />
    <glyph glyph-name="egrave" unicode="&#xe8;" horiz-adv-x="537" 
d="M487 233h-389c-2 -15 -3 -30 -3 -45c0 -80 65 -125 134 -125c75 0 125 35 149 99h85c-27 -115 -122 -174 -234 -174c-172 0 -219 118 -219 208c0 198 124 333 266 333c152 0 219 -84 219 -229c0 -27 -5 -52 -8 -67zM110 308h300c5 73 -27 146 -121 146
c-100 0 -155 -66 -179 -146zM285 732l67 -143h-67l-101 143h101z" />
    <glyph glyph-name="iacute" unicode="&#xed;" horiz-adv-x="222" 
d="M80 0h-85l108 517h85zM104 589l93 143h113l-136 -143h-70z" />
    <glyph glyph-name="icircumflex" unicode="&#xee;" horiz-adv-x="222" 
d="M80 0h-85l108 517h85zM7 589l133 143h86l75 -143h-74l-51 93l-87 -93h-82z" />
    <glyph glyph-name="idieresis" unicode="&#xef;" horiz-adv-x="222" 
d="M80 0h-85l108 517h85zM36 602l21 104h89l-21 -104h-89zM199 602l21 104h89l-21 -104h-89z" />
    <glyph glyph-name="igrave" unicode="&#xec;" horiz-adv-x="222" 
d="M80 0h-85l108 517h85zM121 732l67 -143h-67l-101 143h101z" />
    <glyph glyph-name="ntilde" unicode="&#xf1;" 
d="M-5 0l109 517h82l-16 -78h2c43 59 112 90 184 90c97 0 144 -41 144 -133c0 -23 -6 -61 -15 -101l-63 -295h-85l66 302c3 20 12 62 12 80c0 49 -39 72 -90 72c-47 0 -96 -25 -128 -60c-31 -27 -46 -67 -57 -108l-60 -286h-85zM222 608h-52c16 47 41 109 99 109
c27 0 52 -13 77 -25c25 -11 47 -24 64 -21c31 0 39 18 51 41h51c-16 -51 -41 -109 -102 -109c-44 0 -112 51 -141 46c-27 0 -39 -18 -47 -41z" />
    <glyph glyph-name="oacute" unicode="&#xf3;" horiz-adv-x="574" 
d="M17 204c0 169 108 325 289 325c139 0 215 -75 215 -214c0 -168 -105 -327 -286 -327c-136 0 -218 91 -218 216zM102 205c0 -85 49 -142 142 -142c124 0 192 144 192 245c0 81 -43 146 -136 146c-131 0 -198 -142 -198 -249zM293 589l93 143h113l-136 -143h-70z" />
    <glyph glyph-name="ocircumflex" unicode="&#xf4;" horiz-adv-x="574" 
d="M17 204c0 169 108 325 289 325c139 0 215 -75 215 -214c0 -168 -105 -327 -286 -327c-136 0 -218 91 -218 216zM102 205c0 -85 49 -142 142 -142c124 0 192 144 192 245c0 81 -43 146 -136 146c-131 0 -198 -142 -198 -249zM185 589l133 143h86l75 -143h-74l-51 93
l-87 -93h-82z" />
    <glyph glyph-name="odieresis" unicode="&#xf6;" horiz-adv-x="574" 
d="M17 204c0 169 108 325 289 325c139 0 215 -75 215 -214c0 -168 -105 -327 -286 -327c-136 0 -218 91 -218 216zM102 205c0 -85 49 -142 142 -142c124 0 192 144 192 245c0 81 -43 146 -136 146c-131 0 -198 -142 -198 -249zM204 602l21 104h89l-21 -104h-89zM367 602
l21 104h89l-21 -104h-89z" />
    <glyph glyph-name="ograve" unicode="&#xf2;" horiz-adv-x="574" 
d="M17 204c0 169 108 325 289 325c139 0 215 -75 215 -214c0 -168 -105 -327 -286 -327c-136 0 -218 91 -218 216zM102 205c0 -85 49 -142 142 -142c124 0 192 144 192 245c0 81 -43 146 -136 146c-131 0 -198 -142 -198 -249zM305 732l67 -143h-67l-101 143h101z" />
    <glyph glyph-name="otilde" unicode="&#xf5;" horiz-adv-x="574" 
d="M17 204c0 169 108 325 289 325c139 0 215 -75 215 -214c0 -168 -105 -327 -286 -327c-136 0 -218 91 -218 216zM102 205c0 -85 49 -142 142 -142c124 0 192 144 192 245c0 81 -43 146 -136 146c-131 0 -198 -142 -198 -249zM230 608h-52c16 47 41 109 99 109
c27 0 52 -13 77 -25c25 -11 47 -24 64 -21c31 0 39 18 51 41h51c-16 -51 -41 -109 -102 -109c-44 0 -112 51 -141 46c-27 0 -39 -18 -47 -41z" />
    <glyph glyph-name="scaron" unicode="&#x161;" horiz-adv-x="481" 
d="M440 365h-85c3 59 -47 89 -107 89c-52 0 -110 -14 -110 -66c0 -47 68 -69 136 -95c68 -30 137 -64 137 -145c0 -115 -111 -160 -211 -160c-118 0 -209 43 -209 175h85c-5 -76 61 -100 132 -100c56 0 118 20 118 79c0 51 -69 68 -136 98c-69 27 -137 62 -137 140
c0 96 96 149 192 149s195 -43 195 -164zM446 732l-135 -143h-86l-77 143h76l51 -93l93 93h78z" />
    <glyph glyph-name="uacute" unicode="&#xfa;" 
d="M520 517l-109 -517h-82l16 78h-2c-43 -59 -112 -90 -184 -90c-97 0 -144 41 -144 133c0 23 6 61 15 101l63 295h85l-66 -302c-5 -19 -12 -62 -12 -80c0 -49 39 -72 90 -72c95 0 166 82 185 168l60 286h85zM275 589l93 143h113l-136 -143h-70z" />
    <glyph glyph-name="ucircumflex" unicode="&#xfb;" 
d="M520 517l-109 -517h-82l16 78h-2c-43 -59 -112 -90 -184 -90c-97 0 -144 41 -144 133c0 23 6 61 15 101l63 295h85l-66 -302c-5 -19 -12 -62 -12 -80c0 -49 39 -72 90 -72c95 0 166 82 185 168l60 286h85zM169 589l133 143h86l75 -143h-74l-51 93l-87 -93h-82z" />
    <glyph glyph-name="udieresis" unicode="&#xfc;" 
d="M520 517l-109 -517h-82l16 78h-2c-43 -59 -112 -90 -184 -90c-97 0 -144 41 -144 133c0 23 6 61 15 101l63 295h85l-66 -302c-5 -19 -12 -62 -12 -80c0 -49 39 -72 90 -72c95 0 166 82 185 168l60 286h85zM187 602l21 104h89l-21 -104h-89zM350 602l21 104h89l-21 -104
h-89z" />
    <glyph glyph-name="ugrave" unicode="&#xf9;" 
d="M520 517l-109 -517h-82l16 78h-2c-43 -59 -112 -90 -184 -90c-97 0 -144 41 -144 133c0 23 6 61 15 101l63 295h85l-66 -302c-5 -19 -12 -62 -12 -80c0 -49 39 -72 90 -72c95 0 166 82 185 168l60 286h85zM286 732l67 -143h-67l-101 143h101z" />
    <glyph glyph-name="yacute" unicode="&#xfd;" horiz-adv-x="481" 
d="M505 517l-342 -605c-43 -67 -79 -122 -167 -122c-20 0 -43 5 -59 13l15 69c13 -8 34 -14 49 -14c39 0 60 23 80 56l52 86l-91 517h91l60 -411h2l217 411h93zM254 589l93 143h113l-136 -143h-70z" />
    <glyph glyph-name="ydieresis" unicode="&#xff;" horiz-adv-x="481" 
d="M505 517l-342 -605c-43 -67 -79 -122 -167 -122c-20 0 -43 5 -59 13l15 69c13 -8 34 -14 49 -14c39 0 60 23 80 56l52 86l-91 517h91l60 -411h2l217 411h93zM160 602l21 104h89l-21 -104h-89zM323 602l21 104h89l-21 -104h-89z" />
    <glyph glyph-name="zcaron" unicode="&#x17e;" horiz-adv-x="444" 
d="M-53 0l12 64l360 378h-278l15 75h393l-13 -61l-363 -381h309l-14 -75h-421zM430 732l-135 -143h-86l-77 143h76l51 -93l93 93h78z" />
    <glyph glyph-name="Euro" 
d="M586 660l-42 -75c-41 35 -83 56 -139 56c-117 0 -186 -90 -223 -191h325l-34 -59h-308l-9 -57h299l-34 -59h-267c5 -119 53 -215 186 -215c75 0 126 32 185 73l-21 -101c-57 -33 -107 -49 -175 -49c-173 0 -254 131 -257 292h-78l33 59h47l8 57h-67l33 59h48
c43 147 150 270 313 270c68 0 121 -20 177 -60z" />
    <glyph glyph-name="Euro" unicode="&#x20ac;" 
d="M586 660l-42 -75c-41 35 -83 56 -139 56c-117 0 -186 -90 -223 -191h325l-34 -59h-308l-9 -57h299l-34 -59h-267c5 -119 53 -215 186 -215c75 0 126 32 185 73l-21 -101c-57 -33 -107 -49 -175 -49c-173 0 -254 131 -257 292h-78l33 59h47l8 57h-67l33 59h48
c43 147 150 270 313 270c68 0 121 -20 177 -60z" />
    <glyph glyph-name="notequal" unicode="&#x2260;" horiz-adv-x="593" 
d="M522 114h-287l-76 -146l-62 32l59 114h-141v72h178l67 127h-245v71h283l77 148l63 -32l-62 -116h146v-71h-183l-67 -127h250v-72z" />
    <glyph glyph-name="infinity" unicode="&#x221e;" horiz-adv-x="759" 
d="M305 251c-37 34 -96 90 -150 90c-51 0 -80 -42 -80 -89c0 -51 31 -86 83 -86c54 0 111 49 147 85zM621 252c0 51 -30 90 -83 90c-56 0 -109 -56 -147 -91c42 -39 88 -85 150 -85c51 0 80 38 80 86zM686 255c0 -88 -55 -157 -147 -157c-76 0 -140 56 -190 109
c-57 -51 -110 -108 -191 -108c-89 0 -148 65 -148 153c0 85 54 156 145 156c82 0 140 -60 194 -114c53 53 108 116 189 116c90 0 148 -68 148 -155z" />
    <glyph glyph-name="lessequal" unicode="&#x2264;" horiz-adv-x="593" 
d="M522 -30h-507v72h507v-72zM522 82l-507 184v75l507 187v-78l-408 -146l408 -145v-77z" />
    <glyph glyph-name="greaterequal" unicode="&#x2265;" horiz-adv-x="593" 
d="M522 -30h-507v72h507v-72zM522 266l-507 -184v77l408 145l-408 146v78l507 -187v-75z" />
    <glyph glyph-name="partialdiff" unicode="&#x2202;" horiz-adv-x="511" 
d="M369 280c-35 47 -87 85 -147 85c-89 0 -134 -75 -134 -155c0 -77 43 -162 131 -162c111 0 150 143 150 232zM450 362c0 -153 -35 -374 -233 -374c-126 0 -204 105 -204 225c0 117 75 214 199 214c63 0 121 -29 161 -76c0 15 1 30 1 45c0 107 -41 262 -173 262
c-45 0 -79 -20 -114 -47l-41 50c44 39 93 60 153 60c196 0 251 -198 251 -359z" />
    <glyph glyph-name="summation" unicode="&#x2211;" horiz-adv-x="615" 
d="M589 -214h-564v64l322 440l-308 432v64h538v-72h-437l301 -424l-319 -432h467v-72z" />
    <glyph glyph-name="product" unicode="&#x220f;" horiz-adv-x="719" 
d="M650 -214h-78v928h-426v-928h-78v1000h582v-1000z" />
    <glyph glyph-name="pi" unicode="&#x3c0;" horiz-adv-x="570" 
d="M567 479l-14 -69h-78l-60 -284c-3 -15 -7 -30 -7 -45c0 -19 14 -23 30 -23c15 0 30 5 45 10l-12 -57c-23 -11 -45 -17 -70 -17c-36 0 -73 14 -73 57c0 21 5 43 9 63l63 296h-241l-87 -410h-75l87 410h-73l15 69h541z" />
    <glyph glyph-name="integral" unicode="&#x222b;" horiz-adv-x="554" 
d="M420 730c0 -24 -19 -38 -42 -38c-32 0 -40 43 -55 43c-41 0 -31 -125 -31 -141l1 -39v-512c0 -92 6 -256 -126 -256c-30 0 -69 16 -69 52c0 20 18 36 37 36c31 0 38 -42 52 -42c35 0 28 139 28 151v22v495c0 95 -23 285 125 285c35 0 80 -15 80 -56z" />
    <glyph glyph-name="Omega" unicode="&#x2126;" horiz-adv-x="748" 
d="M700 452c0 -157 -97 -286 -254 -313l-16 -75l194 -1l-14 -63h-256l40 185c139 19 226 124 226 264c0 124 -81 201 -205 201c-161 0 -285 -143 -285 -299c0 -84 45 -158 136 -166l-39 -185h-249l14 63h184l17 80c-95 29 -143 114 -143 210c0 198 170 368 367 368
c161 0 283 -105 283 -269z" />
    <glyph glyph-name="radical" unicode="&#x221a;" horiz-adv-x="504" 
d="M485 786l-211 -1000h-75l-162 334l-47 -22l-28 60l112 52l151 -317l184 893h76z" />
    <glyph glyph-name="approxequal" unicode="&#x2248;" horiz-adv-x="593" 
d="M482 234h50c-8 -75 -44 -145 -129 -145s-206 72 -272 72c-43 0 -70 -39 -75 -78h-52c11 72 44 148 129 148c87 0 195 -71 274 -71c45 0 67 34 75 74zM483 415h50c-8 -75 -45 -146 -130 -146c-87 0 -204 71 -271 71c-43 0 -68 -38 -75 -77h-52c8 72 44 148 129 148
c86 0 195 -71 274 -71c45 0 67 35 75 75z" />
    <glyph glyph-name="Delta" unicode="&#x2206;" horiz-adv-x="674" 
d="M492 72l-99 553l-331 -553h430zM584 0h-648l430 712h83z" />
    <glyph glyph-name="lozenge" unicode="&#x25ca;" horiz-adv-x="593" 
d="M428 356l-132 315l-131 -315l131 -315zM504 356l-172 -391h-72l-171 391l171 391h72z" />
    <glyph glyph-name="Amacron" unicode="&#x100;" horiz-adv-x="667" 
d="M-55 0l430 714h104l129 -714h-98l-33 215h-301l-125 -215h-106zM410 630l-191 -335h246l-53 335h-2zM297 817l12 55h269l-11 -55h-270z" />
    <glyph glyph-name="Abreve" unicode="&#x102;" horiz-adv-x="667" 
d="M-55 0l430 714h104l129 -714h-98l-33 215h-301l-125 -215h-106zM410 630l-191 -335h246l-53 335h-2zM293 920h45c1 -61 34 -84 94 -84c65 0 98 24 117 84h45c-12 -89 -78 -139 -166 -139c-89 0 -138 47 -135 139z" />
    <glyph glyph-name="Aogonek" unicode="&#x104;" horiz-adv-x="667" 
d="M608 0h-31c-27 -17 -42 -27 -70 -51s-53 -51 -53 -72c0 -25 12 -37 37 -37c23 0 45 4 72 24l37 -12c-39 -47 -73 -62 -125 -62c-41 0 -89 13 -89 71c0 52 61 101 124 139l-33 215h-301l-125 -215h-106l430 714h104zM410 630l-191 -335h246l-53 335h-2z" />
    <glyph glyph-name="Cacute" unicode="&#x106;" horiz-adv-x="722" 
d="M565 241h95c-36 -160 -140 -258 -316 -258c-195 0 -306 116 -306 313c0 231 148 435 392 435c154 0 272 -82 272 -247h-95c0 112 -73 167 -177 167c-199 0 -297 -183 -297 -355c0 -139 68 -233 211 -233c117 0 190 66 221 178zM411 779l93 143h113l-136 -143h-70z" />
    <glyph glyph-name="Ccircumflex" unicode="&#x108;" horiz-adv-x="722" 
d="M565 241h95c-36 -160 -140 -258 -316 -258c-195 0 -306 116 -306 313c0 231 148 435 392 435c154 0 272 -82 272 -247h-95c0 112 -73 167 -177 167c-199 0 -297 -183 -297 -355c0 -139 68 -233 211 -233c117 0 190 66 221 178zM301 779l133 143h86l75 -143h-74l-51 93
l-87 -93h-82z" />
    <glyph glyph-name="Ccaron" unicode="&#x10c;" horiz-adv-x="722" 
d="M565 241h95c-36 -160 -140 -258 -316 -258c-195 0 -306 116 -306 313c0 231 148 435 392 435c154 0 272 -82 272 -247h-95c0 112 -73 167 -177 167c-199 0 -297 -183 -297 -355c0 -139 68 -233 211 -233c117 0 190 66 221 178zM622 922l-135 -143h-86l-77 143h76l51 -93
l93 93h78z" />
    <glyph glyph-name="Cdotaccent" unicode="&#x10a;" horiz-adv-x="722" 
d="M565 241h95c-36 -160 -140 -258 -316 -258c-195 0 -306 116 -306 313c0 231 148 435 392 435c154 0 272 -82 272 -247h-95c0 112 -73 167 -177 167c-199 0 -297 -183 -297 -355c0 -139 68 -233 211 -233c117 0 190 66 221 178zM395 792l21 104h89l-21 -104h-89z" />
    <glyph glyph-name="Dcaron" unicode="&#x10e;" horiz-adv-x="704" 
d="M234 634l-117 -554h165c203 0 301 178 301 351c0 105 -39 203 -197 203h-152zM7 0l151 714h250c177 0 270 -104 270 -273c0 -269 -161 -441 -397 -441h-274zM564 922l-135 -143h-86l-77 143h76l51 -93l93 93h78z" />
    <glyph glyph-name="Ecaron" unicode="&#x11a;" horiz-adv-x="611" 
d="M7 0l151 714h492l-16 -80h-397l-48 -227h370l-16 -80h-371l-52 -247h402l-18 -80h-497zM585 922l-135 -143h-86l-77 143h76l51 -93l93 93h78z" />
    <glyph glyph-name="Emacron" unicode="&#x112;" horiz-adv-x="611" 
d="M7 0l151 714h492l-16 -80h-397l-48 -227h370l-16 -80h-371l-52 -247h402l-18 -80h-497zM277 817l12 55h269l-11 -55h-270z" />
    <glyph glyph-name="Ebreve" unicode="&#x114;" horiz-adv-x="611" 
d="M7 0l151 714h492l-16 -80h-397l-48 -227h370l-16 -80h-371l-52 -247h402l-18 -80h-497zM275 920h45c1 -61 34 -84 94 -84c65 0 98 24 117 84h45c-12 -89 -78 -139 -166 -139c-89 0 -138 47 -135 139z" />
    <glyph glyph-name="Edotaccent" unicode="&#x116;" horiz-adv-x="611" 
d="M7 0l151 714h492l-16 -80h-397l-48 -227h370l-16 -80h-371l-52 -247h402l-18 -80h-497zM370 792l21 104h89l-21 -104h-89z" />
    <glyph glyph-name="Eogonek" unicode="&#x118;" horiz-adv-x="611" 
d="M504 0h-52c-27 -17 -42 -27 -70 -51s-53 -51 -53 -72c0 -25 12 -37 37 -37c23 0 45 4 72 24l37 -12c-39 -47 -73 -62 -125 -62c-41 0 -89 13 -89 71c0 52 61 101 124 139h-378l151 714h492l-16 -80h-397l-48 -227h370l-16 -80h-371l-52 -247h402z" />
    <glyph glyph-name="Gcircumflex" unicode="&#x11c;" horiz-adv-x="759" 
d="M563 0l-6 71c-55 -60 -136 -88 -213 -88c-195 0 -306 116 -306 313c0 231 148 435 392 435c158 0 287 -74 287 -239h-95c0 109 -88 159 -192 159c-199 0 -297 -183 -297 -355c0 -139 68 -233 211 -233c152 0 223 94 258 233h-228l16 80h311l-78 -376h-60zM306 779
l133 143h86l75 -143h-74l-51 93l-87 -93h-82z" />
    <glyph glyph-name="Gbreve" unicode="&#x11e;" horiz-adv-x="759" 
d="M563 0l-6 71c-55 -60 -136 -88 -213 -88c-195 0 -306 116 -306 313c0 231 148 435 392 435c158 0 287 -74 287 -239h-95c0 109 -88 159 -192 159c-199 0 -297 -183 -297 -355c0 -139 68 -233 211 -233c152 0 223 94 258 233h-228l16 80h311l-78 -376h-60zM309 920h45
c1 -61 34 -84 94 -84c65 0 98 24 117 84h45c-12 -89 -78 -139 -166 -139c-89 0 -138 47 -135 139z" />
    <glyph glyph-name="Gdotaccent" unicode="&#x120;" horiz-adv-x="759" 
d="M563 0l-6 71c-55 -60 -136 -88 -213 -88c-195 0 -306 116 -306 313c0 231 148 435 392 435c158 0 287 -74 287 -239h-95c0 109 -88 159 -192 159c-199 0 -297 -183 -297 -355c0 -139 68 -233 211 -233c152 0 223 94 258 233h-228l16 80h311l-78 -376h-60zM396 792l21 104
h89l-21 -104h-89z" />
    <glyph glyph-name="Hcircumflex" unicode="&#x124;" horiz-adv-x="722" 
d="M7 0l150 714h96l-65 -307h374l64 307h95l-150 -714h-95l69 327h-374l-69 -327h-95zM295 779l133 143h86l75 -143h-74l-51 93l-87 -93h-82z" />
    <glyph glyph-name="Hbar" unicode="&#x126;" horiz-adv-x="722" 
d="M7 0l150 714h96l-42 -197h374l41 197h95l-150 -714h-95l67 316h-374l-67 -316h-95zM186 396h374l13 66h-373z" />
    <glyph glyph-name="Itilde" unicode="&#x128;" horiz-adv-x="259" 
d="M7 0l150 714h95l-150 -714h-95zM107 798h-52c16 47 41 109 99 109c27 0 52 -13 77 -25c25 -11 47 -24 64 -21c31 0 39 18 51 41h51c-16 -51 -41 -109 -102 -109c-44 0 -112 51 -141 46c-27 0 -39 -18 -47 -41z" />
    <glyph glyph-name="Imacron" unicode="&#x12a;" horiz-adv-x="259" 
d="M7 0l150 714h95l-150 -714h-95zM85 817l12 55h269l-11 -55h-270z" />
    <glyph glyph-name="Idotaccent" unicode="&#x130;" horiz-adv-x="259" 
d="M7 0l150 714h95l-150 -714h-95zM175 792l21 104h89l-21 -104h-89z" />
    <glyph glyph-name="Iogonek" unicode="&#x12e;" horiz-adv-x="259" 
d="M252 714l-150 -714c-24 -17 -39 -27 -64 -51c-24 -24 -47 -51 -47 -72c0 -25 11 -37 33 -37c20 0 41 4 65 24l33 -12c-35 -47 -65 -62 -112 -62c-38 0 -80 13 -80 71c0 52 55 100 111 139h-34l150 714h95z" />
    <glyph glyph-name="Jcircumflex" unicode="&#x134;" horiz-adv-x="519" 
d="M525 714l-113 -538c-27 -123 -80 -193 -223 -193c-115 0 -198 53 -198 152c0 24 2 60 9 99h96c-5 -24 -9 -49 -10 -74c0 -68 40 -97 105 -97c96 0 120 85 136 162l104 489h94zM335 779l133 143h86l75 -143h-74l-51 93l-87 -93h-82z" />
    <glyph glyph-name="Lacute" unicode="&#x139;" 
d="M7 0l150 714h95l-132 -634h377l-17 -80h-473zM177 779l93 143h113l-136 -143h-70z" />
    <glyph glyph-name="Nacute" unicode="&#x143;" horiz-adv-x="722" 
d="M7 0l151 714h102l255 -591h2l119 591h92l-151 -714h-102l-253 587h-2l-121 -587h-92zM407 779l93 143h113l-136 -143h-70z" />
    <glyph glyph-name="Ncaron" unicode="&#x147;" horiz-adv-x="722" 
d="M7 0l151 714h102l255 -591h2l119 591h92l-151 -714h-102l-253 587h-2l-121 -587h-92zM620 922l-135 -143h-86l-77 143h76l51 -93l93 93h78z" />
    <glyph glyph-name="Omacron" unicode="&#x14c;" horiz-adv-x="759" 
d="M133 296c0 -139 68 -233 211 -233c189 0 289 181 289 352c0 132 -71 236 -203 236c-199 0 -297 -183 -297 -355zM38 296c0 231 148 435 392 435c185 0 298 -139 298 -316c0 -224 -146 -432 -384 -432c-195 0 -306 116 -306 313zM327 817l12 55h269l-11 -55h-270z" />
    <glyph glyph-name="Obreve" unicode="&#x14e;" horiz-adv-x="759" 
d="M133 296c0 -139 68 -233 211 -233c189 0 289 181 289 352c0 132 -71 236 -203 236c-199 0 -297 -183 -297 -355zM38 296c0 231 148 435 392 435c185 0 298 -139 298 -316c0 -224 -146 -432 -384 -432c-195 0 -306 116 -306 313zM320 920h45c1 -61 34 -84 94 -84
c65 0 98 24 117 84h45c-12 -89 -78 -139 -166 -139c-89 0 -138 47 -135 139z" />
    <glyph glyph-name="Ohungarumlaut" unicode="&#x150;" horiz-adv-x="759" 
d="M133 296c0 -139 68 -233 211 -233c189 0 289 181 289 352c0 132 -71 236 -203 236c-199 0 -297 -183 -297 -355zM38 296c0 231 148 435 392 435c185 0 298 -139 298 -316c0 -224 -146 -432 -384 -432c-195 0 -306 116 -306 313zM502 779l93 143h113l-136 -143h-70z
M336 779l93 143h113l-136 -143h-70z" />
    <glyph glyph-name="Racute" unicode="&#x154;" horiz-adv-x="685" 
d="M7 0l151 714h275c121 0 235 -41 235 -182c0 -95 -66 -179 -161 -192v-2c61 -19 81 -83 73 -155c-5 -64 -28 -127 1 -183h-99c-9 27 -13 80 2 153c22 128 -26 149 -69 152h-38h-211l-64 -305h-95zM236 634l-53 -249h214c149 0 176 90 176 141c0 88 -69 108 -140 108h-197z
M352 779l93 143h113l-136 -143h-70z" />
    <glyph glyph-name="Rcaron" unicode="&#x158;" horiz-adv-x="685" 
d="M7 0l151 714h275c121 0 235 -41 235 -182c0 -95 -66 -179 -161 -192v-2c61 -19 81 -83 73 -155c-5 -64 -28 -127 1 -183h-99c-9 27 -13 80 2 153c22 128 -26 149 -69 152h-38h-211l-64 -305h-95zM236 634l-53 -249h214c149 0 176 90 176 141c0 88 -69 108 -140 108h-197z
M589 922l-135 -143h-86l-77 143h76l51 -93l93 93h78z" />
    <glyph glyph-name="Sacute" unicode="&#x15a;" horiz-adv-x="648" 
d="M614 503h-95c3 113 -65 148 -164 148c-69 0 -165 -33 -165 -117c0 -69 51 -96 116 -115l96 -26c88 -24 172 -65 172 -193c0 -148 -150 -217 -278 -217c-172 0 -294 76 -281 251h95c-5 -129 74 -171 190 -171c89 0 179 41 179 137c0 73 -58 99 -127 118l-97 26
c-85 24 -160 74 -160 180c0 138 133 207 260 207c140 0 264 -69 259 -228zM332 779l93 143h113l-136 -143h-70z" />
    <glyph glyph-name="Scircumflex" unicode="&#x15c;" horiz-adv-x="648" 
d="M614 503h-95c3 113 -65 148 -164 148c-69 0 -165 -33 -165 -117c0 -69 51 -96 116 -115l96 -26c88 -24 172 -65 172 -193c0 -148 -150 -217 -278 -217c-172 0 -294 76 -281 251h95c-5 -129 74 -171 190 -171c89 0 179 41 179 137c0 73 -58 99 -127 118l-97 26
c-85 24 -160 74 -160 180c0 138 133 207 260 207c140 0 264 -69 259 -228zM241 779l133 143h86l75 -143h-74l-51 93l-87 -93h-82z" />
    <glyph glyph-name="Scedilla" unicode="&#x15e;" horiz-adv-x="648" 
d="M142 -188l18 43c21 -7 41 -15 64 -15c31 0 60 3 60 30c0 23 -23 31 -46 31c-15 0 -29 -1 -42 -8l-19 30l56 64c-19 3 -38 6 -56 11c-104 28 -172 106 -162 236h95c-5 -129 74 -171 190 -171c89 0 179 41 179 137c0 73 -58 99 -127 118l-97 26c-85 24 -160 74 -160 180
c0 138 133 207 260 207c140 0 264 -69 259 -228h-95c3 113 -65 148 -164 148c-69 0 -165 -33 -165 -117c0 -69 51 -96 116 -115l96 -26c88 -24 172 -65 172 -193c0 -148 -150 -217 -278 -217h-19l-35 -37h2c7 3 17 4 26 4c42 0 89 -19 89 -73c0 -61 -66 -87 -119 -87
c-33 0 -65 7 -98 22z" />
    <glyph glyph-name="Scedilla" unicode="&#xf6c1;" horiz-adv-x="648" 
d="M142 -188l18 43c21 -7 41 -15 64 -15c31 0 60 3 60 30c0 23 -23 31 -46 31c-15 0 -29 -1 -42 -8l-19 30l56 64c-19 3 -38 6 -56 11c-104 28 -172 106 -162 236h95c-5 -129 74 -171 190 -171c89 0 179 41 179 137c0 73 -58 99 -127 118l-97 26c-85 24 -160 74 -160 180
c0 138 133 207 260 207c140 0 264 -69 259 -228h-95c3 113 -65 148 -164 148c-69 0 -165 -33 -165 -117c0 -69 51 -96 116 -115l96 -26c88 -24 172 -65 172 -193c0 -148 -150 -217 -278 -217h-19l-35 -37h2c7 3 17 4 26 4c42 0 89 -19 89 -73c0 -61 -66 -87 -119 -87
c-33 0 -65 7 -98 22z" />
    <glyph glyph-name="Tcaron" unicode="&#x164;" horiz-adv-x="574" 
d="M653 714l-18 -80h-240l-134 -634h-95l134 634h-240l17 80h576zM550 922l-135 -143h-86l-77 143h76l51 -93l93 93h78z" />
    <glyph glyph-name="Tbar" unicode="&#x166;" horiz-adv-x="574" 
d="M90 432l12 55h167l31 147h-240l17 80h576l-18 -80h-240l-31 -147h170l-11 -55h-171l-91 -432h-95l91 432h-167z" />
    <glyph glyph-name="Utilde" unicode="&#x168;" horiz-adv-x="722" 
d="M728 714l-89 -428c-12 -56 -24 -109 -36 -137c-48 -117 -157 -166 -278 -166c-211 0 -300 111 -259 311l89 420h95l-94 -444c-32 -139 30 -207 169 -207c157 0 188 89 218 223l90 428h95zM335 798h-52c16 47 41 109 99 109c27 0 52 -13 77 -25c25 -11 47 -24 64 -21
c31 0 39 18 51 41h51c-16 -51 -41 -109 -102 -109c-44 0 -112 51 -141 46c-27 0 -39 -18 -47 -41z" />
    <glyph glyph-name="Umacron" unicode="&#x16a;" horiz-adv-x="722" 
d="M728 714l-89 -428c-12 -56 -24 -109 -36 -137c-48 -117 -157 -166 -278 -166c-211 0 -300 111 -259 311l89 420h95l-94 -444c-32 -139 30 -207 169 -207c157 0 188 89 218 223l90 428h95zM312 817l12 55h269l-11 -55h-270z" />
    <glyph glyph-name="Ubreve" unicode="&#x16c;" horiz-adv-x="722" 
d="M728 714l-89 -428c-12 -56 -24 -109 -36 -137c-48 -117 -157 -166 -278 -166c-211 0 -300 111 -259 311l89 420h95l-94 -444c-32 -139 30 -207 169 -207c157 0 188 89 218 223l90 428h95zM311 920h45c1 -61 34 -84 94 -84c65 0 98 24 117 84h45
c-12 -89 -78 -139 -166 -139c-89 0 -138 47 -135 139z" />
    <glyph glyph-name="Uring" unicode="&#x16e;" horiz-adv-x="722" 
d="M728 714l-89 -428c-12 -56 -24 -109 -36 -137c-48 -117 -157 -166 -278 -166c-211 0 -300 111 -259 311l89 420h95l-94 -444c-32 -139 30 -207 169 -207c157 0 188 89 218 223l90 428h95zM334 860c0 61 52 113 113 113s113 -52 113 -113s-52 -113 -113 -113
s-113 52 -113 113zM379 860c0 -39 29 -68 68 -68s68 29 68 68s-29 68 -68 68s-68 -29 -68 -68z" />
    <glyph glyph-name="Uhungarumlaut" unicode="&#x170;" horiz-adv-x="722" 
d="M728 714l-89 -428c-12 -56 -24 -109 -36 -137c-48 -117 -157 -166 -278 -166c-211 0 -300 111 -259 311l89 420h95l-94 -444c-32 -139 30 -207 169 -207c157 0 188 89 218 223l90 428h95zM494 779l93 143h113l-136 -143h-70zM328 779l93 143h113l-136 -143h-70z" />
    <glyph glyph-name="Uogonek" unicode="&#x172;" horiz-adv-x="722" 
d="M728 714l-89 -428c-12 -56 -24 -109 -36 -137c-48 -117 -157 -166 -278 -166c-3 -2 -5 -4 -8 -6c-28 -20 -88 -70 -88 -100c0 -25 12 -37 37 -37c23 0 45 4 72 24l37 -12c-39 -47 -73 -62 -125 -62c-41 0 -89 13 -89 71c0 39 33 75 78 109c8 5 16 11 24 17
c-73 9 -127 34 -162 76c-44 54 -56 131 -35 231l89 420h95l-94 -444c-32 -139 30 -207 169 -207c157 0 188 89 218 223l90 428h95z" />
    <glyph glyph-name="Wcircumflex" unicode="&#x174;" horiz-adv-x="926" 
d="M983 714l-328 -714h-99l-45 616h-2l-282 -616h-102l-45 714h94l25 -601h2l274 601h108l40 -603h2l260 603h98zM392 779l133 143h86l75 -143h-74l-51 93l-87 -93h-82z" />
    <glyph glyph-name="Ycircumflex" unicode="&#x176;" horiz-adv-x="611" 
d="M193 0l61 287l-188 427h101l146 -346l271 346h110l-346 -427l-62 -287h-93zM241 779l133 143h86l75 -143h-74l-51 93l-87 -93h-82z" />
    <glyph glyph-name="Zacute" unicode="&#x179;" horiz-adv-x="611" 
d="M-38 0l17 79l536 555h-409l20 80h521l-17 -81l-540 -553h456l-17 -80h-567zM337 779l93 143h113l-136 -143h-70z" />
    <glyph glyph-name="Zdotaccent" unicode="&#x17b;" horiz-adv-x="611" 
d="M-38 0l17 79l536 555h-409l20 80h521l-17 -81l-540 -553h456l-17 -80h-567zM338 792l21 104h89l-21 -104h-89z" />
    <glyph glyph-name="amacron" unicode="&#x101;" horiz-adv-x="519" 
d="M138 361h-85c16 115 115 168 224 168c100 0 189 -28 189 -132c0 -29 -9 -66 -16 -94l-33 -141c-4 -21 -14 -50 -14 -74s10 -32 25 -32c8 0 19 4 27 7l-13 -63c-13 -7 -37 -12 -52 -12c-47 0 -72 28 -67 73l-2 2c-36 -48 -85 -75 -173 -75c-86 0 -158 40 -158 146
c0 150 146 159 261 170c91 8 130 13 130 82c0 55 -59 68 -104 68c-65 0 -128 -26 -139 -93zM75 135c0 -48 45 -72 93 -72c67 0 116 23 145 68c28 39 33 85 45 133h-2c-71 -51 -279 2 -281 -129zM183 627l12 55h269l-11 -55h-270z" />
    <glyph glyph-name="abreve" unicode="&#x103;" horiz-adv-x="519" 
d="M138 361h-85c16 115 115 168 224 168c100 0 189 -28 189 -132c0 -29 -9 -66 -16 -94l-33 -141c-4 -21 -14 -50 -14 -74s10 -32 25 -32c8 0 19 4 27 7l-13 -63c-13 -7 -37 -12 -52 -12c-47 0 -72 28 -67 73l-2 2c-36 -48 -85 -75 -173 -75c-86 0 -158 40 -158 146
c0 150 146 159 261 170c91 8 130 13 130 82c0 55 -59 68 -104 68c-65 0 -128 -26 -139 -93zM75 135c0 -48 45 -72 93 -72c67 0 116 23 145 68c28 39 33 85 45 133h-2c-71 -51 -279 2 -281 -129zM176 730h45c1 -61 34 -84 94 -84c65 0 98 24 117 84h45
c-12 -89 -78 -139 -166 -139c-89 0 -138 47 -135 139z" />
    <glyph glyph-name="aogonek" unicode="&#x105;" horiz-adv-x="519" 
d="M138 361h-85c16 115 115 168 224 168c100 0 189 -28 189 -132c0 -29 -9 -66 -16 -94l-33 -141c-4 -21 -14 -50 -14 -74s10 -32 25 -32c4 0 8 1 13 2l14 5l-13 -63c-13 -7 -37 -12 -52 -12h-5c-6 -4 -11 -8 -16 -11c-28 -20 -88 -70 -88 -100c0 -25 12 -37 37 -37
c23 0 45 4 72 24l37 -12c-39 -47 -73 -62 -125 -62c-41 0 -89 13 -89 71c0 39 33 75 78 109c14 10 31 21 50 33l-4 4c-12 13 -17 31 -14 54l-2 2c-36 -48 -85 -75 -173 -75c-86 0 -158 40 -158 146c0 150 146 159 261 170c91 8 130 13 130 82c0 55 -59 68 -104 68
c-65 0 -128 -26 -139 -93zM75 135c0 -48 45 -72 93 -72c67 0 116 23 145 68c28 39 33 85 45 133h-2c-71 -51 -279 2 -281 -129z" />
    <glyph glyph-name="cacute" unicode="&#x107;" horiz-adv-x="537" 
d="M501 353h-85c0 64 -42 101 -109 101c-131 0 -201 -130 -201 -243c0 -80 32 -148 128 -148c73 0 127 42 151 106h85c-31 -116 -116 -181 -236 -181c-141 0 -213 83 -213 223c0 164 101 318 286 318c117 0 190 -55 194 -176zM285 589l93 143h113l-136 -143h-70z" />
    <glyph glyph-name="ccircumflex" unicode="&#x109;" horiz-adv-x="537" 
d="M501 353h-85c0 64 -42 101 -109 101c-131 0 -201 -130 -201 -243c0 -80 32 -148 128 -148c73 0 127 42 151 106h85c-31 -116 -116 -181 -236 -181c-141 0 -213 83 -213 223c0 164 101 318 286 318c117 0 190 -55 194 -176zM169 589l133 143h86l75 -143h-74l-51 93
l-87 -93h-82z" />
    <glyph glyph-name="ccaron" unicode="&#x10d;" horiz-adv-x="537" 
d="M501 353h-85c0 64 -42 101 -109 101c-131 0 -201 -130 -201 -243c0 -80 32 -148 128 -148c73 0 127 42 151 106h85c-31 -116 -116 -181 -236 -181c-141 0 -213 83 -213 223c0 164 101 318 286 318c117 0 190 -55 194 -176zM497 732l-135 -143h-86l-77 143h76l51 -93
l93 93h78z" />
    <glyph glyph-name="cdotaccent" unicode="&#x10b;" horiz-adv-x="537" 
d="M501 353h-85c0 64 -42 101 -109 101c-131 0 -201 -130 -201 -243c0 -80 32 -148 128 -148c73 0 127 42 151 106h85c-31 -116 -116 -181 -236 -181c-141 0 -213 83 -213 223c0 164 101 318 286 318c117 0 190 -55 194 -176zM274 602l21 104h89l-21 -104h-89z" />
    <glyph glyph-name="dcroat" unicode="&#x111;" horiz-adv-x="603" 
d="M576 571l-121 -571h-80l18 74h-2c-51 -67 -102 -86 -171 -86c-132 0 -203 87 -203 212c0 156 106 329 287 329c64 0 140 -22 161 -91h2l26 133h-118l12 55h117l18 88h84l-19 -88h84l-11 -55h-84zM102 200c0 -84 40 -137 133 -137c129 0 202 149 202 257
c0 77 -46 134 -130 134c-135 0 -205 -139 -205 -254z" />
    <glyph glyph-name="ecaron" unicode="&#x11b;" horiz-adv-x="537" 
d="M487 233h-389c-2 -15 -3 -30 -3 -45c0 -80 65 -125 134 -125c75 0 125 35 149 99h85c-27 -115 -122 -174 -234 -174c-172 0 -219 118 -219 208c0 198 124 333 266 333c152 0 219 -84 219 -229c0 -27 -5 -52 -8 -67zM110 308h300c5 73 -27 146 -121 146
c-100 0 -155 -66 -179 -146zM481 732l-135 -143h-86l-77 143h76l51 -93l93 93h78z" />
    <glyph glyph-name="emacron" unicode="&#x113;" horiz-adv-x="537" 
d="M487 233h-389c-2 -15 -3 -30 -3 -45c0 -80 65 -125 134 -125c75 0 125 35 149 99h85c-27 -115 -122 -174 -234 -174c-172 0 -219 118 -219 208c0 198 124 333 266 333c152 0 219 -84 219 -229c0 -27 -5 -52 -8 -67zM110 308h300c5 73 -27 146 -121 146
c-100 0 -155 -66 -179 -146zM175 627l12 55h269l-11 -55h-270z" />
    <glyph glyph-name="ebreve" unicode="&#x115;" horiz-adv-x="537" 
d="M487 233h-389c-2 -15 -3 -30 -3 -45c0 -80 65 -125 134 -125c75 0 125 35 149 99h85c-27 -115 -122 -174 -234 -174c-172 0 -219 118 -219 208c0 198 124 333 266 333c152 0 219 -84 219 -229c0 -27 -5 -52 -8 -67zM110 308h300c5 73 -27 146 -121 146
c-100 0 -155 -66 -179 -146zM171 730h45c1 -61 34 -84 94 -84c65 0 98 24 117 84h45c-12 -89 -78 -139 -166 -139c-89 0 -138 47 -135 139z" />
    <glyph glyph-name="edotaccent" unicode="&#x117;" horiz-adv-x="537" 
d="M487 233h-389c-2 -15 -3 -30 -3 -45c0 -80 65 -125 134 -125c75 0 125 35 149 99h85c-27 -115 -122 -174 -234 -174c-172 0 -219 118 -219 208c0 198 124 333 266 333c152 0 219 -84 219 -229c0 -27 -5 -52 -8 -67zM110 308h300c5 73 -27 146 -121 146
c-100 0 -155 -66 -179 -146zM259 602l21 104h89l-21 -104h-89z" />
    <glyph glyph-name="eogonek" unicode="&#x119;" horiz-adv-x="537" 
d="M487 233h-389c-2 -15 -3 -30 -3 -45c0 -80 65 -125 134 -125c75 0 125 35 149 99h85c-20 -86 -79 -141 -154 -163c-14 -4 -28 -7 -43 -8c-7 -5 -13 -10 -19 -14c-28 -20 -88 -70 -88 -100c0 -25 12 -37 37 -37c23 0 45 4 72 24l37 -12c-39 -47 -73 -62 -125 -62
c-41 0 -89 13 -89 71c0 39 33 75 78 109c9 7 19 13 28 20c-29 2 -54 8 -75 18c-85 40 -112 118 -112 188c0 198 124 333 266 333c152 0 219 -84 219 -229c0 -27 -5 -52 -8 -67zM110 308h300c5 73 -27 146 -121 146c-100 0 -155 -66 -179 -146z" />
    <glyph glyph-name="gcircumflex" unicode="&#x11d;" horiz-adv-x="574" 
d="M552 517l-93 -442c-12 -53 -25 -105 -40 -141c-44 -104 -124 -144 -235 -144c-105 0 -203 45 -206 160h85c5 -69 65 -85 130 -85c131 0 159 105 185 208l-2 2c-37 -56 -96 -79 -161 -79c-128 0 -194 90 -194 214c0 152 101 319 269 319c76 0 148 -41 164 -105v-2h2l16 95
h80zM106 210c0 -74 42 -139 127 -139c128 0 188 144 188 248c0 81 -43 135 -132 135c-119 0 -183 -149 -183 -244zM204 589l133 143h86l75 -143h-74l-51 93l-87 -93h-82z" />
    <glyph glyph-name="gbreve" unicode="&#x11f;" horiz-adv-x="574" 
d="M552 517l-93 -442c-12 -53 -25 -105 -40 -141c-44 -104 -124 -144 -235 -144c-105 0 -203 45 -206 160h85c5 -69 65 -85 130 -85c131 0 159 105 185 208l-2 2c-37 -56 -96 -79 -161 -79c-128 0 -194 90 -194 214c0 152 101 319 269 319c76 0 148 -41 164 -105v-2h2l16 95
h80zM106 210c0 -74 42 -139 127 -139c128 0 188 144 188 248c0 81 -43 135 -132 135c-119 0 -183 -149 -183 -244zM208 730h45c1 -61 34 -84 94 -84c65 0 98 24 117 84h45c-12 -89 -78 -139 -166 -139c-89 0 -138 47 -135 139z" />
    <glyph glyph-name="gdotaccent" unicode="&#x121;" horiz-adv-x="574" 
d="M552 517l-93 -442c-12 -53 -25 -105 -40 -141c-44 -104 -124 -144 -235 -144c-105 0 -203 45 -206 160h85c5 -69 65 -85 130 -85c131 0 159 105 185 208l-2 2c-37 -56 -96 -79 -161 -79c-128 0 -194 90 -194 214c0 152 101 319 269 319c76 0 148 -41 164 -105v-2h2l16 95
h80zM106 210c0 -74 42 -139 127 -139c128 0 188 144 188 248c0 81 -43 135 -132 135c-119 0 -183 -149 -183 -244zM290 602l21 104h89l-21 -104h-89z" />
    <glyph glyph-name="gcommaaccent" unicode="&#x123;" horiz-adv-x="574" 
d="M552 517l-93 -442c-12 -53 -25 -105 -40 -141c-44 -104 -124 -144 -235 -144c-105 0 -203 45 -206 160h85c5 -69 65 -85 130 -85c131 0 159 105 185 208l-2 2c-37 -56 -96 -79 -161 -79c-128 0 -194 90 -194 214c0 152 101 319 269 319c76 0 148 -41 164 -105v-2h2l16 95
h80zM106 210c0 -74 42 -139 127 -139c128 0 188 144 188 248c0 81 -43 135 -132 135c-119 0 -183 -149 -183 -244zM415 714l-19 -88h-111c9 51 15 82 18 91c3 10 7 20 13 29c12 20 36 39 101 40l-8 -35c-26 -6 -38 -12 -46 -37h52z" />
    <glyph glyph-name="hcircumflex" unicode="&#x125;" 
d="M-5 0l151 714h85l-61 -273l2 -2c43 59 112 90 184 90c97 0 144 -41 144 -133c0 -23 -6 -61 -15 -101l-63 -295h-85l66 302c3 20 12 62 12 80c0 49 -39 72 -90 72c-47 0 -96 -25 -128 -60c-31 -27 -46 -67 -57 -108l-60 -286h-85zM215 779l133 143h86l75 -143h-74l-51 93
l-87 -93h-82z" />
    <glyph glyph-name="hbar" unicode="&#x127;" horiz-adv-x="566" 
d="M41 571l12 55h84l19 88h85l-20 -88h106l-11 -55h-107l-29 -130l2 -2c43 59 112 90 184 90c97 0 144 -41 144 -133c0 -23 -6 -61 -15 -101l-63 -295h-85l66 302c3 20 12 62 12 80c0 49 -39 72 -90 72c-47 0 -96 -25 -128 -60c-31 -27 -46 -67 -57 -108l-60 -286h-85
l121 571h-85z" />
    <glyph glyph-name="itilde" unicode="&#x129;" horiz-adv-x="222" 
d="M80 0h-85l108 517h85zM50 608h-52c16 47 41 109 99 109c27 0 52 -13 77 -25c25 -11 47 -24 64 -21c31 0 39 18 51 41h51c-16 -51 -41 -109 -102 -109c-44 0 -112 51 -141 46c-27 0 -39 -18 -47 -41z" />
    <glyph glyph-name="imacron" unicode="&#x12b;" horiz-adv-x="222" 
d="M80 0h-85l108 517h85zM26 627l12 55h269l-11 -55h-270z" />
    <glyph glyph-name="iogonek" unicode="&#x12f;" horiz-adv-x="222" 
d="M188 517l-108 -517c-25 -17 -40 -27 -67 -51s-50 -51 -50 -72c0 -25 12 -37 35 -37c21 0 43 4 68 24l36 -12c-37 -47 -70 -62 -119 -62c-38 0 -85 13 -85 71c0 51 59 101 118 139h-21l108 517h85zM230 714l-22 -104h-86l22 104h86z" />
    <glyph glyph-name="dotlessj" unicode="&#xf6be;" horiz-adv-x="222" 
d="M-120 -192l15 75c11 -3 22 -6 33 -6c37 0 46 24 62 97l113 543h85l-130 -614c-15 -64 -54 -101 -122 -101c-19 0 -37 1 -56 6z" />
    <glyph glyph-name="dotlessj" unicode="&#xfb0f;" horiz-adv-x="222" 
d="M-120 -192l15 75c11 -3 22 -6 33 -6c37 0 46 24 62 97l113 543h85l-130 -614c-15 -64 -54 -101 -122 -101c-19 0 -37 1 -56 6z" />
    <glyph glyph-name="jcircumflex" unicode="&#x135;" horiz-adv-x="222" 
d="M-120 -192l15 75c11 -3 22 -6 33 -6c37 0 46 24 62 97l113 543h85l-130 -614c-15 -64 -54 -101 -122 -101c-19 0 -37 1 -56 6zM0 589l133 143h86l75 -143h-74l-51 93l-87 -93h-82z" />
    <glyph glyph-name="lacute" unicode="&#x13a;" horiz-adv-x="222" 
d="M-5 0l150 714h85l-150 -714h-85zM152 779l93 143h113l-136 -143h-70z" />
    <glyph glyph-name="nacute" unicode="&#x144;" 
d="M-5 0l109 517h82l-16 -78h2c43 59 112 90 184 90c97 0 144 -41 144 -133c0 -23 -6 -61 -15 -101l-63 -295h-85l66 302c3 20 12 62 12 80c0 49 -39 72 -90 72c-47 0 -96 -25 -128 -60c-31 -27 -46 -67 -57 -108l-60 -286h-85zM259 589l93 143h113l-136 -143h-70z" />
    <glyph glyph-name="ncaron" unicode="&#x148;" 
d="M-5 0l109 517h82l-16 -78h2c43 59 112 90 184 90c97 0 144 -41 144 -133c0 -23 -6 -61 -15 -101l-63 -295h-85l66 302c3 20 12 62 12 80c0 49 -39 72 -90 72c-47 0 -96 -25 -128 -60c-31 -27 -46 -67 -57 -108l-60 -286h-85zM492 732l-135 -143h-86l-77 143h76l51 -93
l93 93h78z" />
    <glyph glyph-name="omacron" unicode="&#x14d;" horiz-adv-x="574" 
d="M17 204c0 169 108 325 289 325c139 0 215 -75 215 -214c0 -168 -105 -327 -286 -327c-136 0 -218 91 -218 216zM102 205c0 -85 49 -142 142 -142c124 0 192 144 192 245c0 81 -43 146 -136 146c-131 0 -198 -142 -198 -249zM202 627l12 55h269l-11 -55h-270z" />
    <glyph glyph-name="obreve" unicode="&#x14f;" horiz-adv-x="574" 
d="M17 204c0 169 108 325 289 325c139 0 215 -75 215 -214c0 -168 -105 -327 -286 -327c-136 0 -218 91 -218 216zM102 205c0 -85 49 -142 142 -142c124 0 192 144 192 245c0 81 -43 146 -136 146c-131 0 -198 -142 -198 -249zM191 730h45c1 -61 34 -84 94 -84
c65 0 98 24 117 84h45c-12 -89 -78 -139 -166 -139c-89 0 -138 47 -135 139z" />
    <glyph glyph-name="ohungarumlaut" unicode="&#x151;" horiz-adv-x="574" 
d="M17 204c0 169 108 325 289 325c139 0 215 -75 215 -214c0 -168 -105 -327 -286 -327c-136 0 -218 91 -218 216zM102 205c0 -85 49 -142 142 -142c124 0 192 144 192 245c0 81 -43 146 -136 146c-131 0 -198 -142 -198 -249zM379 589l93 143h113l-136 -143h-70zM213 589
l93 143h113l-136 -143h-70z" />
    <glyph glyph-name="racute" unicode="&#x155;" horiz-adv-x="333" 
d="M-5 0l108 517h80l-25 -111h2c40 71 101 123 188 123c11 0 19 3 30 0l-20 -91c-4 1 -8 1 -13 1h-12c-21 0 -31 0 -51 -5c-47 -12 -83 -43 -110 -84c-23 -33 -35 -82 -43 -121l-49 -229h-85zM127 589l93 143h113l-136 -143h-70z" />
    <glyph glyph-name="rcaron" unicode="&#x159;" horiz-adv-x="333" 
d="M-5 0l108 517h80l-25 -111h2c40 71 101 123 188 123c11 0 19 3 30 0l-20 -91c-4 1 -8 1 -13 1h-12c-21 0 -31 0 -51 -5c-47 -12 -83 -43 -110 -84c-23 -33 -35 -82 -43 -121l-49 -229h-85zM416 732l-135 -143h-86l-77 143h76l51 -93l93 93h78z" />
    <glyph glyph-name="sacute" unicode="&#x15b;" horiz-adv-x="481" 
d="M440 365h-85c3 59 -47 89 -107 89c-52 0 -110 -14 -110 -66c0 -47 68 -69 136 -95c68 -30 137 -64 137 -145c0 -115 -111 -160 -211 -160c-118 0 -209 43 -209 175h85c-5 -76 61 -100 132 -100c56 0 118 20 118 79c0 51 -69 68 -136 98c-69 27 -137 62 -137 140
c0 96 96 149 192 149s195 -43 195 -164zM226 589l93 143h113l-136 -143h-70z" />
    <glyph glyph-name="scircumflex" unicode="&#x15d;" horiz-adv-x="481" 
d="M440 365h-85c3 59 -47 89 -107 89c-52 0 -110 -14 -110 -66c0 -47 68 -69 136 -95c68 -30 137 -64 137 -145c0 -115 -111 -160 -211 -160c-118 0 -209 43 -209 175h85c-5 -76 61 -100 132 -100c56 0 118 20 118 79c0 51 -69 68 -136 98c-69 27 -137 62 -137 140
c0 96 96 149 192 149s195 -43 195 -164zM128 589l133 143h86l75 -143h-74l-51 93l-87 -93h-82z" />
    <glyph glyph-name="scedilla" unicode="&#x15f;" horiz-adv-x="481" 
d="M51 -188l18 43c21 -7 41 -15 64 -15c31 0 60 3 60 30c0 23 -23 31 -46 31c-15 0 -29 -1 -42 -8l-19 30l60 69c-10 1 -20 3 -29 5c-75 18 -126 66 -126 166h85c-5 -76 61 -100 132 -100c56 0 118 20 118 79c0 51 -69 68 -136 98c-69 27 -137 62 -137 140
c0 96 96 149 192 149s195 -43 195 -164h-85c3 59 -47 89 -107 89c-52 0 -110 -14 -110 -66c0 -47 68 -69 136 -95c68 -30 137 -64 137 -145c0 -115 -111 -160 -211 -160h-10l-39 -42h2c7 3 17 4 26 4c42 0 89 -19 89 -73c0 -61 -66 -87 -119 -87c-33 0 -65 7 -98 22z" />
    <glyph glyph-name="scedilla" unicode="&#xf6c2;" horiz-adv-x="481" 
d="M51 -188l18 43c21 -7 41 -15 64 -15c31 0 60 3 60 30c0 23 -23 31 -46 31c-15 0 -29 -1 -42 -8l-19 30l60 69c-10 1 -20 3 -29 5c-75 18 -126 66 -126 166h85c-5 -76 61 -100 132 -100c56 0 118 20 118 79c0 51 -69 68 -136 98c-69 27 -137 62 -137 140
c0 96 96 149 192 149s195 -43 195 -164h-85c3 59 -47 89 -107 89c-52 0 -110 -14 -110 -66c0 -47 68 -69 136 -95c68 -30 137 -64 137 -145c0 -115 -111 -160 -211 -160h-10l-39 -42h2c7 3 17 4 26 4c42 0 89 -19 89 -73c0 -61 -66 -87 -119 -87c-33 0 -65 7 -98 22z" />
    <glyph glyph-name="tbar" unicode="&#x167;" horiz-adv-x="315" 
d="M-7 291l12 55h94l21 96h-87l16 75h87l32 153h85l-32 -153h103l-16 -75h-103l-21 -96h115l-11 -55h-115l-32 -153c-1 -12 -3 -22 -3 -34c0 -27 24 -35 51 -35c17 0 33 4 49 9l-15 -78c-20 -4 -40 -6 -60 -6c-63 0 -116 18 -116 84c0 15 2 27 5 43l36 170h-95z" />
    <glyph glyph-name="utilde" unicode="&#x169;" 
d="M520 517l-109 -517h-82l16 78h-2c-43 -59 -112 -90 -184 -90c-97 0 -144 41 -144 133c0 23 6 61 15 101l63 295h85l-66 -302c-5 -19 -12 -62 -12 -80c0 -49 39 -72 90 -72c95 0 166 82 185 168l60 286h85zM216 608h-52c16 47 41 109 99 109c27 0 52 -13 77 -25
c25 -11 47 -24 64 -21c31 0 39 18 51 41h51c-16 -51 -41 -109 -102 -109c-44 0 -112 51 -141 46c-27 0 -39 -18 -47 -41z" />
    <glyph glyph-name="umacron" unicode="&#x16b;" 
d="M520 517l-109 -517h-82l16 78h-2c-43 -59 -112 -90 -184 -90c-97 0 -144 41 -144 133c0 23 6 61 15 101l63 295h85l-66 -302c-5 -19 -12 -62 -12 -80c0 -49 39 -72 90 -72c95 0 166 82 185 168l60 286h85zM184 627l12 55h269l-11 -55h-270z" />
    <glyph glyph-name="ubreve" unicode="&#x16d;" 
d="M520 517l-109 -517h-82l16 78h-2c-43 -59 -112 -90 -184 -90c-97 0 -144 41 -144 133c0 23 6 61 15 101l63 295h85l-66 -302c-5 -19 -12 -62 -12 -80c0 -49 39 -72 90 -72c95 0 166 82 185 168l60 286h85zM182 730h45c1 -61 34 -84 94 -84c65 0 98 24 117 84h45
c-12 -89 -78 -139 -166 -139c-89 0 -138 47 -135 139z" />
    <glyph glyph-name="uring" unicode="&#x16f;" 
d="M520 517l-109 -517h-82l16 78h-2c-43 -59 -112 -90 -184 -90c-97 0 -144 41 -144 133c0 23 6 61 15 101l63 295h85l-66 -302c-5 -19 -12 -62 -12 -80c0 -49 39 -72 90 -72c95 0 166 82 185 168l60 286h85zM212 680c0 61 52 113 113 113s113 -52 113 -113
s-52 -113 -113 -113s-113 52 -113 113zM257 680c0 -39 29 -68 68 -68s68 29 68 68s-29 68 -68 68s-68 -29 -68 -68z" />
    <glyph glyph-name="uhungarumlaut" unicode="&#x171;" 
d="M520 517l-109 -517h-82l16 78h-2c-43 -59 -112 -90 -184 -90c-97 0 -144 41 -144 133c0 23 6 61 15 101l63 295h85l-66 -302c-5 -19 -12 -62 -12 -80c0 -49 39 -72 90 -72c95 0 166 82 185 168l60 286h85zM361 589l93 143h113l-136 -143h-70zM195 589l93 143h113
l-136 -143h-70z" />
    <glyph glyph-name="uogonek" unicode="&#x173;" 
d="M411 0h-18c-25 -17 -40 -27 -67 -51s-50 -51 -50 -72c0 -25 12 -37 35 -37c21 0 43 4 68 24l36 -12c-37 -47 -70 -62 -119 -62c-38 0 -85 13 -85 71c0 51 59 101 118 139l16 78h-2c-43 -59 -112 -90 -184 -90c-97 0 -144 41 -144 133c0 23 6 61 15 101l63 295h85
l-66 -302c-5 -19 -12 -62 -12 -80c0 -49 39 -72 90 -72c95 0 166 82 185 168l60 286h85z" />
    <glyph glyph-name="wcircumflex" unicode="&#x175;" horiz-adv-x="759" 
d="M762 517l-267 -517h-90l-26 402h-2l-185 -402h-90l-61 517h90l32 -411h2l186 411h96l25 -411h2l196 411h92zM266 589l133 143h86l75 -143h-74l-51 93l-87 -93h-82z" />
    <glyph glyph-name="ycircumflex" unicode="&#x177;" horiz-adv-x="481" 
d="M505 517l-342 -605c-43 -67 -79 -122 -167 -122c-20 0 -43 5 -59 13l15 69c13 -8 34 -14 49 -14c39 0 60 23 80 56l52 86l-91 517h91l60 -411h2l217 411h93zM139 589l133 143h86l75 -143h-74l-51 93l-87 -93h-82z" />
    <glyph glyph-name="zacute" unicode="&#x17a;" horiz-adv-x="444" 
d="M-53 0l12 64l360 378h-278l15 75h393l-13 -61l-363 -381h309l-14 -75h-421zM214 589l93 143h113l-136 -143h-70z" />
    <glyph glyph-name="zdotaccent" unicode="&#x17c;" horiz-adv-x="444" 
d="M-53 0l12 64l360 378h-278l15 75h393l-13 -61l-363 -381h309l-14 -75h-421zM209 602l21 104h89l-21 -104h-89z" />
    <glyph glyph-name="commaaccent.alt" horiz-adv-x="278" 
d="M295 714l-19 -88h-111c9 51 15 82 18 91c3 10 7 20 13 29c12 20 36 39 101 40l-8 -35c-26 -6 -38 -12 -46 -37h52z" />
    <glyph glyph-name="caron.alt" horiz-adv-x="222" 
d="M195 571l53 143h113l-100 -143h-66z" />
    <glyph glyph-name="ldot" unicode="&#x140;" horiz-adv-x="340" 
d="M-5 0l150 714h85l-150 -714h-85zM228 413l21 104h89l-21 -104h-89z" />
    <glyph glyph-name="Ldot" unicode="&#x13f;" 
d="M7 0l150 714h95l-132 -634h377l-17 -80h-473zM321 413l21 104h89l-21 -104h-89z" />
    <glyph glyph-name="commaaccent" unicode="&#xf004;" horiz-adv-x="278" 
d="M-36 -138l19 88h111c-9 -51 -15 -82 -18 -91c-3 -10 -7 -20 -13 -29c-12 -20 -36 -39 -101 -40l8 35c26 6 38 12 46 37h-52z" />
    <glyph glyph-name="commaaccent" unicode="&#xf6c3;" horiz-adv-x="278" 
d="M-36 -138l19 88h111c-9 -51 -15 -82 -18 -91c-3 -10 -7 -20 -13 -29c-12 -20 -36 -39 -101 -40l8 35c26 6 38 12 46 37h-52z" />
    <glyph glyph-name="Gcommaaccent" unicode="&#x122;" horiz-adv-x="759" 
d="M563 0l-6 71c-55 -60 -136 -88 -213 -88c-195 0 -306 116 -306 313c0 231 148 435 392 435c158 0 287 -74 287 -239h-95c0 109 -88 159 -192 159c-199 0 -297 -183 -297 -355c0 -139 68 -233 211 -233c152 0 223 94 258 233h-228l16 80h311l-78 -376h-60zM253 -138l19 88
h111c-9 -51 -15 -82 -18 -91c-3 -10 -7 -20 -13 -29c-12 -20 -36 -39 -101 -40l8 35c26 6 38 12 46 37h-52z" />
    <glyph glyph-name="Kcommaaccent" unicode="&#x136;" horiz-adv-x="667" 
d="M7 0l151 714h95l-75 -352l2 -2l404 354h127l-344 -294l229 -420h-105l-195 362l-143 -121l-51 -241h-95zM196 -138l19 88h111c-9 -51 -15 -82 -18 -91c-3 -10 -7 -20 -13 -29c-12 -20 -36 -39 -101 -40l8 35c26 6 38 12 46 37h-52z" />
    <glyph glyph-name="Lcaron" unicode="&#x13d;" 
d="M7 0l150 714h95l-132 -634h377l-17 -80h-473zM307 571l53 143h113l-100 -143h-66z" />
    <glyph glyph-name="Lcommaaccent" unicode="&#x13b;" 
d="M7 0l150 714h95l-132 -634h377l-17 -80h-473zM158 -138l19 88h111c-9 -51 -15 -82 -18 -91c-3 -10 -7 -20 -13 -29c-12 -20 -36 -39 -101 -40l8 35c26 6 38 12 46 37h-52z" />
    <glyph glyph-name="Ncommaaccent" unicode="&#x145;" horiz-adv-x="722" 
d="M7 0l151 714h102l255 -591h2l119 591h92l-151 -714h-102l-253 587h-2l-121 -587h-92zM216 -138l19 88h111c-9 -51 -15 -82 -18 -91c-3 -10 -7 -20 -13 -29c-12 -20 -36 -39 -101 -40l8 35c26 6 38 12 46 37h-52z" />
    <glyph glyph-name="Rcommaaccent" unicode="&#x156;" horiz-adv-x="685" 
d="M7 0l151 714h275c121 0 235 -41 235 -182c0 -95 -66 -179 -161 -192v-2c61 -19 81 -83 73 -155c-5 -64 -28 -127 1 -183h-99c-9 27 -13 80 2 153c22 128 -26 149 -69 152h-38h-211l-64 -305h-95zM236 634l-53 -249h214c149 0 176 90 176 141c0 88 -69 108 -140 108h-197z
M205 -138l19 88h111c-9 -51 -15 -82 -18 -91c-3 -10 -7 -20 -13 -29c-12 -20 -36 -39 -101 -40l8 35c26 6 38 12 46 37h-52z" />
    <glyph glyph-name="Scommaaccent" unicode="&#x218;" horiz-adv-x="648" 
d="M614 503h-95c3 113 -65 148 -164 148c-69 0 -165 -33 -165 -117c0 -69 51 -96 116 -115l96 -26c88 -24 172 -65 172 -193c0 -148 -150 -217 -278 -217c-172 0 -294 76 -281 251h95c-5 -129 74 -171 190 -171c89 0 179 41 179 137c0 73 -58 99 -127 118l-97 26
c-85 24 -160 74 -160 180c0 138 133 207 260 207c140 0 264 -69 259 -228zM195 -138l19 88h111c-9 -51 -15 -82 -18 -91c-3 -10 -7 -20 -13 -29c-12 -20 -36 -39 -101 -40l8 35c26 6 38 12 46 37h-52z" />
    <glyph glyph-name="Tcommaaccent" unicode="&#x162;" horiz-adv-x="574" 
d="M653 714l-18 -80h-240l-134 -634h-95l134 634h-240l17 80h576zM131 -138l19 88h111c-9 -51 -15 -82 -18 -91c-3 -10 -7 -20 -13 -29c-12 -20 -36 -39 -101 -40l8 35c26 6 38 12 46 37h-52z" />
    <glyph glyph-name="dcaron" unicode="&#x10f;" horiz-adv-x="670" 
d="M606 714l-151 -714h-80l18 74h-2c-51 -67 -102 -86 -171 -86c-132 0 -203 87 -203 212c0 156 106 329 287 329c64 0 140 -22 161 -91h2l55 276h84zM102 200c0 -84 40 -137 133 -137c129 0 202 149 202 257c0 77 -46 134 -130 134c-135 0 -205 -139 -205 -254zM630 571
l53 143h113l-100 -143h-66z" />
    <glyph glyph-name="kcommaaccent" unicode="&#x137;" horiz-adv-x="481" 
d="M-5 0l151 714h84l-89 -420l2 -2l260 225h111l-225 -191l128 -326h-95l-101 275l-102 -91l-39 -184h-85zM115 -138l19 88h111c-9 -51 -15 -82 -18 -91c-3 -10 -7 -20 -13 -29c-12 -20 -36 -39 -101 -40l8 35c26 6 38 12 46 37h-52z" />
    <glyph glyph-name="lcaron" unicode="&#x13e;" horiz-adv-x="294" 
d="M-5 0l150 714h85l-150 -714h-85zM254 571l53 143h113l-100 -143h-66z" />
    <glyph glyph-name="lcommaaccent" unicode="&#x13c;" horiz-adv-x="222" 
d="M-5 0l150 714h85l-150 -714h-85zM-46 -138l19 88h111c-9 -51 -15 -82 -18 -91c-3 -10 -7 -20 -13 -29c-12 -20 -36 -39 -101 -40l8 35c26 6 38 12 46 37h-52z" />
    <glyph glyph-name="ncommaaccent" unicode="&#x146;" 
d="M-5 0l109 517h82l-16 -78h2c43 59 112 90 184 90c97 0 144 -41 144 -133c0 -23 -6 -61 -15 -101l-63 -295h-85l66 302c3 20 12 62 12 80c0 49 -39 72 -90 72c-47 0 -96 -25 -128 -60c-31 -27 -46 -67 -57 -108l-60 -286h-85zM126 -138l19 88h111c-9 -51 -15 -82 -18 -91
c-3 -10 -7 -20 -13 -29c-12 -20 -36 -39 -101 -40l8 35c26 6 38 12 46 37h-52z" />
    <glyph glyph-name="rcommaaccent" unicode="&#x157;" horiz-adv-x="333" 
d="M-5 0l108 517h80l-25 -111h2c40 71 101 123 188 123c11 0 19 3 30 0l-20 -91c-4 1 -8 1 -13 1h-12c-21 0 -31 0 -51 -5c-47 -12 -83 -43 -110 -84c-23 -33 -35 -82 -43 -121l-49 -229h-85zM-45 -138l19 88h111c-9 -51 -15 -82 -18 -91c-3 -10 -7 -20 -13 -29
c-12 -20 -36 -39 -101 -40l8 35c26 6 38 12 46 37h-52z" />
    <glyph glyph-name="tcommaaccent" unicode="&#x163;" horiz-adv-x="315" 
d="M253 670l-32 -153h103l-16 -75h-103l-64 -304c-1 -12 -3 -22 -3 -34c0 -27 24 -35 51 -35c17 0 33 4 49 9l-15 -78c-20 -4 -40 -6 -60 -6c-63 0 -116 18 -116 84c0 15 2 27 5 43l68 321h-87l16 75h87l32 153h85zM45 -138l19 88h111c-9 -51 -15 -82 -18 -91
c-3 -10 -7 -20 -13 -29c-12 -20 -36 -39 -101 -40l8 35c26 6 38 12 46 37h-52z" />
    <glyph glyph-name="tcaron" unicode="&#x165;" horiz-adv-x="361" 
d="M321 571l53 143h113l-100 -143h-66zM253 670l-32 -153h103l-16 -75h-103l-64 -304c-1 -12 -3 -22 -3 -34c0 -27 24 -35 51 -35c17 0 33 4 49 9l-15 -78c-20 -4 -40 -6 -60 -6c-63 0 -116 18 -116 84c0 15 2 27 5 43l68 321h-87l16 75h87l32 153h85z" />
    <glyph glyph-name="scommaaccent" unicode="&#x219;" horiz-adv-x="481" 
d="M440 365h-85c3 59 -47 89 -107 89c-52 0 -110 -14 -110 -66c0 -47 68 -69 136 -95c68 -30 137 -64 137 -145c0 -115 -111 -160 -211 -160c-118 0 -209 43 -209 175h85c-5 -76 61 -100 132 -100c56 0 118 20 118 79c0 51 -69 68 -136 98c-69 27 -137 62 -137 140
c0 96 96 149 192 149s195 -43 195 -164zM107 -138l19 88h111c-9 -51 -15 -82 -18 -91c-3 -10 -7 -20 -13 -29c-12 -20 -36 -39 -101 -40l8 35c26 6 38 12 46 37h-52z" />
    <glyph glyph-name="estimated" unicode="&#x212e;" horiz-adv-x="600" 
d="M561 259h-404v-181c39 -39 87 -59 145 -59c83 0 143 36 193 120l35 -21c-61 -95 -123 -135 -228 -135c-157 0 -258 122 -258 276c0 155 101 276 258 276c154 0 258 -114 259 -276zM157 295h291v145c-42 40 -91 60 -147 60c-57 0 -105 -21 -144 -60v-145z" />
    <glyph glyph-name="afii61289" unicode="&#x2113;" horiz-adv-x="500" 
d="M466 617c0 -118 -111 -242 -245 -344c-32 -138 -34 -159 -34 -173c0 -42 27 -55 52 -55c28 0 57 11 100 41h2l20 -46c-50 -37 -93 -54 -143 -54c-66 0 -110 35 -110 100c0 15 2 34 24 134l-68 -58h-2l-23 46l108 83l55 258c24 116 87 172 164 172c59 0 100 -44 100 -104z
M399 613c0 31 -17 54 -41 54c-31 0 -59 -25 -75 -101l-47 -220c69 63 163 175 163 267z" />
    <glyph glyph-name=".null" horiz-adv-x="500" 
 />
    <glyph glyph-name=".null" horiz-adv-x="500" 
 />
    <glyph glyph-name="CR" unicode="&#xd;" horiz-adv-x="0" 
 />
    <glyph glyph-name="uni00A0" unicode="&#xa0;" horiz-adv-x="278" 
 />
    <glyph glyph-name="uniF8FF" unicode="&#xf8ff;" horiz-adv-x="512" 
d="M222 117h56v67h-56v-67zM225 234h46c0 35 2 59 6 72s18 30 43 52c51 47 63 77 63 120c0 79 -53 131 -124 131c-72 0 -126 -42 -135 -137l50 -8c8 68 41 95 82 95s76 -37 76 -85c0 -25 -7 -42 -50 -83c-22 -22 -37 -42 -46 -59s-13 -44 -13 -81zM462 50h-412v617h412v-617
zM512 718h-512v-718h512v718z" />
    <glyph glyph-name="uni00AD" unicode="&#xad;" horiz-adv-x="389" 
d="M26 238l16 80h290l-16 -80h-290z" />
    <glyph glyph-name="grave.cap" horiz-adv-x="222" 
d="M217 922l67 -143h-67l-101 143h101z" />
    <glyph glyph-name="Dcroat" unicode="&#x110;" horiz-adv-x="704" 
d="M234 634l-48 -227h200l-14 -68h-200l-55 -259h165c203 0 301 178 301 351c0 105 -39 203 -197 203h-152zM7 0l72 339h-66l14 68h66l65 307h250c177 0 270 -104 270 -273c0 -269 -161 -441 -397 -441h-274z" />
    <glyph glyph-name="uni021A" unicode="&#x21a;" horiz-adv-x="574" 
d="M653 714l-18 -80h-240l-134 -634h-95l134 634h-240l17 80h576zM131 -138l19 88h111c-9 -51 -15 -82 -18 -91c-3 -10 -7 -20 -13 -29c-12 -20 -36 -39 -101 -40l8 35c26 6 38 12 46 37h-52z" />
    <glyph glyph-name="uni021B" unicode="&#x21b;" horiz-adv-x="315" 
d="M253 670l-32 -153h103l-16 -75h-103l-64 -304c-1 -12 -3 -22 -3 -34c0 -27 24 -35 51 -35c17 0 33 4 49 9l-15 -78c-20 -4 -40 -6 -60 -6c-63 0 -116 18 -116 84c0 15 2 27 5 43l68 321h-87l16 75h87l32 153h85zM45 -138l19 88h111c-9 -51 -15 -82 -18 -91
c-3 -10 -7 -20 -13 -29c-12 -20 -36 -39 -101 -40l8 35c26 6 38 12 46 37h-52z" />
    <glyph glyph-name="acute.cap" horiz-adv-x="222" 
d="M177 779l93 143h113l-136 -143h-70z" />
    <glyph glyph-name="circumflex.cap" horiz-adv-x="222" 
d="M70 779l133 143h86l75 -143h-74l-51 93l-87 -93h-82z" />
    <glyph glyph-name="caron.cap" horiz-adv-x="222" 
d="M403 922l-135 -143h-86l-77 143h76l51 -93l93 93h78z" />
    <glyph glyph-name="tilde.cap" horiz-adv-x="222" 
d="M115 798h-52c16 47 41 109 99 109c27 0 52 -13 77 -25c25 -11 47 -24 64 -21c31 0 39 18 51 41h51c-16 -51 -41 -109 -102 -109c-44 0 -112 51 -141 46c-27 0 -39 -18 -47 -41z" />
    <glyph glyph-name="dieresis.cap" horiz-adv-x="222" 
d="M115 792l21 104h89l-21 -104h-89zM278 792l21 104h89l-21 -104h-89z" />
    <glyph glyph-name="macron.cap" horiz-adv-x="222" 
d="M92 817l12 55h269l-11 -55h-270z" />
    <glyph glyph-name="uni02C9" unicode="&#x2c9;" horiz-adv-x="222" 
d="M92 627l12 55h269l-11 -55h-270z" />
    <glyph glyph-name="breve.cap" horiz-adv-x="222" 
d="M94 920h45c1 -61 34 -84 94 -84c65 0 98 24 117 84h45c-12 -89 -78 -139 -166 -139c-89 0 -138 47 -135 139z" />
    <glyph glyph-name="ring.cap" horiz-adv-x="222" 
d="M126 860c0 61 52 113 113 113s113 -52 113 -113s-52 -113 -113 -113s-113 52 -113 113zM171 860c0 -39 29 -68 68 -68s68 29 68 68s-29 68 -68 68s-68 -29 -68 -68z" />
    <glyph glyph-name="hungarumlaut.cap" horiz-adv-x="222" 
d="M219 779l93 143h113l-136 -143h-70zM53 779l93 143h113l-136 -143h-70z" />
    <glyph glyph-name="dotaccent.cap" horiz-adv-x="222" 
d="M175 792l21 104h89l-21 -104h-89z" />
    <glyph glyph-name="uni2219" unicode="&#x2219;" horiz-adv-x="278" 
d="M67 253c0 37 31 64 64 64c36 0 64 -28 64 -64c0 -37 -28 -64 -64 -64c-35 0 -64 29 -64 64z" />
    <glyph glyph-name="uni2215" unicode="&#x2215;" horiz-adv-x="167" 
d="M-166 -28l435 753h64l-435 -753h-64z" />
    <glyph glyph-name="uni0394" unicode="&#x394;" horiz-adv-x="674" 
d="M492 72l-99 553l-331 -553h430zM584 0h-648l430 712h83z" />
    <glyph glyph-name="uni03A9" unicode="&#x3a9;" horiz-adv-x="748" 
d="M700 452c0 -157 -97 -286 -254 -313l-16 -75l194 -1l-14 -63h-256l40 185c139 19 226 124 226 264c0 124 -81 201 -205 201c-161 0 -285 -143 -285 -299c0 -84 45 -158 136 -166l-39 -185h-249l14 63h184l17 80c-95 29 -143 114 -143 210c0 198 170 368 367 368
c161 0 283 -105 283 -269z" />
    <glyph glyph-name="uni03BC" unicode="&#x3bc;" 
d="M520 517l-109 -517h-82l16 78h-2c-43 -59 -113 -90 -172 -90c-47 0 -82 22 -93 38h-2l-47 -224h-85l149 715h85l-66 -302c-5 -19 -12 -62 -12 -80c0 -49 39 -72 90 -72c95 0 166 82 185 168l60 286h85z" />
  </font>
</defs>
</svg>
