<?xml version="1.0" encoding="UTF-8" standalone="no"?>
<svg width="16px" height="10px" viewBox="0 0 16 10" version="1.1" xmlns="http://www.w3.org/2000/svg" xmlns:xlink="http://www.w3.org/1999/xlink">
    <!-- Generator: Sketch 39.1 (31720) - http://www.bohemiancoding.com/sketch -->
    <title>arrow</title>
    <desc>Created with Sketch.</desc>
    <defs></defs>
    <g id="Page-1" stroke="none" stroke-width="1" fill="none" fill-rule="evenodd">
        <g id="arrow" fill="#42667e">
            <path d="M11.7230769,0.220090737 C11.4387268,-0.073363579 10.9793104,-0.073363579 10.6949602,0.220090737 C10.4106101,0.514631921 10.4106101,0.990680033 10.6949602,1.28304748 L13.2965517,4.18498461 L0.795755967,4.18498461 C0.356498673,4.18498461 0,4.5501722 0,5.00013548 C0,5.45009877 0.356498673,5.81528636 0.795755967,5.81528636 C0.795755967,5.81528636 2.93979334,5.81528636 4.49987568,5.81528636 L13.2954907,5.81528636 L10.6949602,8.71613662 C10.4106101,9.0106778 10.4106101,9.48672591 10.6949602,9.77909336 C10.9793104,10.0725477 11.4387268,10.0747214 11.7230769,9.77909336 L15.7867374,5.53161385 C16.0710875,5.23815954 16.0710875,4.76211143 15.7867374,4.46757024 L11.7230769,0.220090737 Z" id="Fill-1" transform="translate(8.000000, 5.000000) scale(-1, 1) translate(-8.000000, -5.000000) "></path>
        </g>
    </g>
</svg>
