<svg xmlns="http://www.w3.org/2000/svg" width="18" height="18" viewBox="0 0 18 18">
  <path fill="#000000" d="M9,18 C4.02943725,18 0,13.9705627 0,9 C0,4.02943725 4.02943725,0 9,0 C13.9705627,0 18,4.02943725 18,9 C18,13.9705627 13.9705627,18 9,18 Z M12.79,13.0408333 C13.1808333,12.65 13.1808333,12.0166667 12.79,11.6258333 L10.4916667,9.00083333 L12.79,6.37416667 C13.1808333,5.98416667 13.1808333,5.35083333 12.79,4.96 C12.3991667,4.56916667 11.7666667,4.56916667 11.3758333,4.96 L9.16666667,7.48583333 L6.95666667,4.96 C6.56583333,4.56916667 5.93333333,4.56916667 5.5425,4.96 C5.15166667,5.35083333 5.15166667,5.98333333 5.5425,6.37416667 L7.84166667,9.00083333 L5.54333333,11.6258333 C5.1525,12.0158333 5.1525,12.6491667 5.54333333,13.04 C5.93333333,13.4308333 6.56666667,13.4308333 6.9575,13.04 L9.16666667,10.5158333 L11.3758333,13.0408333 C11.7658333,13.4316667 12.3991667,13.4316667 12.79,13.0408333 Z"/>
</svg>
