<svg xmlns="http://www.w3.org/2000/svg" width="5" height="19" viewBox="0 0 5 19">
  <path fill-rule="evenodd" d="M20.201,19 C18.986,19 18,19.985 18,21.2 C18,22.415 18.986,23.4 20.201,23.4 C21.416,23.4 22.4,22.415 22.4,21.2 C22.4,19.985 21.416,19 20.201,19 L20.201,19 Z M20.201,16.4 C21.416,16.4 22.4,15.414 22.4,14.2 C22.4,12.986 21.416,12 20.201,12 C18.986,12 18,12.985 18,14.2 C18,15.415 18.986,16.4 20.201,16.4 L20.201,16.4 Z M20.201,26 C18.986,26 18,26.985 18,28.2 C18,29.415 18.986,30.4 20.201,30.4 C21.416,30.4 22.4,29.415 22.4,28.2 C22.4,26.985 21.416,26 20.201,26 L20.201,26 Z" transform="translate(-18 -12)"/>
</svg>
