<svg xmlns="http://www.w3.org/2000/svg" width="27" height="27" viewBox="0 0 27 27" xmlns:xlink="http://www.w3.org/1999/xlink">
  <g fill="none" fill-rule="evenodd">
    <path id="a" d="M-0.004,13.5 C-0.004,6.03 6.026,6.57252031e-14 13.496,6.57252031e-14 C20.966,6.57252031e-14 26.996,6.03 26.996,13.5 C26.996,20.97 20.966,27 13.496,27 C6.026,27 -0.004,20.97 -0.004,13.5 Z M15.626,6 C15.626,5.34 15.056,4.77 14.396,4.77 L12.536,4.77 C11.876,4.77 11.306,5.34 11.306,6 L11.306,13.86 C11.306,14.55 11.876,15.09 12.536,15.09 L14.396,15.09 C15.056,15.09 15.626,14.52 15.626,13.86 L15.626,6 Z M13.466,17.13 C12.086,17.13 10.946,18.27 10.946,19.68 C10.946,21.09 12.086,22.23 13.466,22.23 C14.876,22.23 16.016,21.09 16.016,19.68 C16.016,18.27 14.876,17.13 13.466,17.13 Z"/>
  </g>
</svg>
