<svg xmlns="http://www.w3.org/2000/svg" width="27" height="27" viewBox="0 0 27 27">
  <path fill="#74D17F" d="M13.5,27 C6.04415588,27 0,20.9558441 0,13.5 C0,6.04415588 6.04415588,0 13.5,0 C20.9558441,0 27,6.04415588 27,13.5 C27,20.9558441 20.9558441,27 13.5,27 Z M11.294,20.998 C11.316,20.998 11.336,20.998 11.358,20.996 C11.817,20.975 12.236,20.731 12.478,20.34 L19.462,9.13 C19.87,8.476 19.669,7.616 19.016,7.21 C18.362,6.803 17.502,7.003 17.095,7.655 L11.184,17.147 L8.833,14.043 C8.368,13.429 7.495,13.306 6.88,13.773 C6.266,14.238 6.145,15.111 6.61,15.724 L10.183,20.445 C10.447,20.795 10.859,20.998 11.294,20.998 Z"/>
</svg>
