<?xml version="1.0" encoding="UTF-8"?>
<svg width="17px" height="17px" viewBox="0 0 17 17" version="1.1" xmlns="http://www.w3.org/2000/svg" xmlns:xlink="http://www.w3.org/1999/xlink">
    <!-- Generator: Sketch 46 (44423) - http://www.bohemiancoding.com/sketch -->
    <title>Shape</title>
    <desc>Created with Sketch.</desc>
    <defs></defs>
    <g id="IDP-UI-with-averages" stroke="none" stroke-width="1" fill="none" fill-rule="evenodd">
        <g id="IDP-Editable-re-design-Copy-3" transform="translate(-128.000000, -577.000000)" fill="#4A4A4A">
            <path d="M136.4,577 C131.761,577 128,580.761 128,585.4 C128,590.039 131.761,593.8 136.4,593.8 C141.039,593.8 144.8,590.039 144.8,585.4 C144.8,580.761 141.039,577 136.4,577 L136.4,577 Z M141.4,586.4 L137.4,586.4 L137.4,590.4 L135.4,590.4 L135.4,586.4 L131.4,586.4 L131.4,584.4 L135.4,584.4 L135.4,580.4 L137.4,580.4 L137.4,584.4 L141.4,584.4 L141.4,586.4 L141.4,586.4 Z" id="Shape"></path>
        </g>
    </g>
</svg>