<svg xmlns="http://www.w3.org/2000/svg" width="16" height="10" viewBox="0 0 16 10">
  <path fill="#000000" fill-rule="evenodd" d="M11.7230769,0.220090737 C11.4387268,-0.073363579 10.9793104,-0.073363579 10.6949602,0.220090737 C10.4106101,0.514631921 10.4106101,0.990680033 10.6949602,1.28304748 L13.2965517,4.18498461 L0.795755992,4.18498461 C0.356498698,4.18498461 2.49999985e-08,4.5501722 2.49999985e-08,5.00013548 C2.49999985e-08,5.45009877 0.356498698,5.81528636 0.795755992,5.81528636 L4.4998757,5.81528636 L13.2954907,5.81528636 L10.6949602,8.71613662 C10.4106101,9.0106778 10.4106101,9.48672591 10.6949602,9.77909336 C10.9793104,10.0725477 11.4387268,10.0747214 11.7230769,9.77909336 L15.7867374,5.53161385 C16.0710875,5.23815954 16.0710875,4.76211143 15.7867374,4.46757024 L11.7230769,0.220090737 Z"/>
</svg>
