<svg xmlns="http://www.w3.org/2000/svg" width="10" height="16" viewBox="0 0 10 16">
  <path fill="#000000" d="M8.72307691,3.22009072 C8.43872681,2.92663641 7.97931041,2.92663641 7.69496021,3.22009072 C7.41061011,3.51463191 7.41061011,3.99068002 7.69496021,4.28304747 L10.2965517,7.1849846 L-2.20424402,7.1849846 C-2.64350132,7.1849846 -2.99999999,7.55017219 -2.99999999,8.00013547 C-2.99999999,8.45009876 -2.64350132,8.81528635 -2.20424402,8.81528635 C-2.20424402,8.81528635 -0.0602066497,8.81528635 1.49987569,8.81528635 L10.2954907,8.81528635 L7.69496021,11.7161366 C7.41061011,12.0106778 7.41061011,12.4867259 7.69496021,12.7790933 C7.97931041,13.0725477 8.43872681,13.0747214 8.72307691,12.7790933 L12.7867374,8.53161384 C13.0710875,8.23815953 13.0710875,7.76211142 12.7867374,7.46757023 L8.72307691,3.22009072 Z" transform="matrix(0 1 1 0 -3 3)"/>
</svg>
