<svg xmlns="http://www.w3.org/2000/svg" width="86" height="60" viewBox="0 0 86 60">
  <g fill="#164361">
    <path d="M11.9171351,0.811945946 L10.1941622,9.25816216 C12.1417297,6.2987027 14.4476757,3.48032432 17.0674054,0.811945946 L11.9171351,0.811945946 Z M14.3653784,18.4692973 C12.3367297,22.9903784 11.3045676,27.5714595 11.3045676,32.0828108 C11.3045676,35.5555135 11.9215946,38.8636216 13.1410541,41.9317297 C14.1910541,44.5757838 15.6829459,46.9887568 17.5753784,49.1422703 L26.0061892,49.1422703 C24.8329459,48.3833514 23.7375405,47.5044324 22.7426757,46.5087568 C17.9824054,41.7436216 15.7226757,35.2425405 16.3778108,28.2160541 C16.7134865,24.7482162 17.727,21.2795676 19.4248378,17.8976757 C21.1624054,14.3982162 23.5664595,11.1079459 26.5737568,8.10145946 C29.4253784,5.23605405 32.6686216,2.91227027 36.2021351,1.19091892 C36.4583514,1.05389189 36.7307838,0.929837838 36.999973,0.81227027 L28.839973,0.81227027 C26.9880811,2.16713514 25.2261892,3.68172973 23.5502432,5.35848649 C19.5675405,9.34767568 16.4775405,13.7511892 14.3653784,18.4692973 L14.3653784,18.4692973 Z"/>
    <path d="M25.1498108,12.0437838 L29.2800811,12.0437838 C29.4933243,11.8159459 29.7122432,11.5921622 29.9368378,11.3610811 C34.3176486,6.98918919 39.7525135,4.16513514 45.3317027,3.35108108 L45.861973,0.810810811 L41.3579189,0.810810811 C36.5230541,2.33756757 31.7725135,5.16486486 27.7038649,9.23108108 C26.7965676,10.1416216 25.9476486,11.0813514 25.1498108,12.0437838 M50.8487027,32.1786486 C53.7214054,29.3156757 55.2968108,26.0172973 55.2968108,22.8956757 C55.2968108,20.4948649 54.3895135,18.3113514 52.6632973,16.5932432 C51.8435676,15.7767568 50.8681622,15.1524324 49.7832973,14.7462162 L49.2335676,17.4518919 C49.7703243,17.742973 50.2738378,18.1086486 50.7076216,18.5472973 C52.2157297,20.0586486 52.9487027,22.127027 52.7614054,24.3883784 C52.5887027,26.6237838 51.5070811,28.8462162 49.7273514,30.6186486 C48.6457297,31.6986486 47.3662703,32.5556757 46.0105946,33.1410811 L45.4965405,35.6651351 C47.3978919,34.9637838 49.2441081,33.7945946 50.8487027,32.1786486"/>
    <path d="M56.8980811,22.8947027 C56.8980811,26.4387568 55.1532162,30.1417297 51.9829459,33.3111892 C49.9891622,35.3017297 47.624027,36.7384865 45.1283514,37.4779459 L44.5202432,40.4487568 C47.7245676,39.6006486 50.8915946,37.7309189 53.5713243,35.0503784 C60.537,28.0871351 61.5918649,18.6403784 56.0256486,13.074973 C54.5718649,11.6179459 52.7661892,10.6092973 50.7326757,10.1074054 L50.1107838,13.1755135 C51.5078108,13.6571351 52.7605135,14.4330811 53.7959189,15.4692973 C55.8229459,17.4898378 56.8980811,20.0609189 56.8980811,22.8947027"/>
    <path d="M51.1717297 24.255C51.3095676 22.4736486 50.7476757 20.8585135 49.5801081 19.6771622 49.3636216 19.4655405 49.1333514 19.2839189 48.8917297 19.1104054L46.4284865 31.1493243C47.2060541 30.7033784 47.9447027 30.1431081 48.5965946 29.4847297 50.1136216 27.9758108 51.0201081 26.1239189 51.1717297 24.255M4.80981081 45.5862973C4.29981081 44.3238649 3.88062162 43.0354865 3.5417027 41.7179189L2.02224324 49.1433243 6.48981081 49.1433243C5.85981081 47.9871081 5.28818919 46.8081892 4.80981081 45.5862973M9.70791892 32.0836216C9.70791892 27.3468649 10.7830541 22.5428108 12.9033243 17.8125405 15.0925135 12.9144324 18.3008919 8.35362162 22.4214324 4.21767568 23.6425135 3.0047027 24.9041351 1.86551351 26.2168378.813081081L19.3476486.813081081C19.0654865 1.08227027 18.7962973 1.34335135 18.5238649 1.61010811 14.7187297 5.42740541 11.589 9.57551351 9.21981081 13.9684865L4.37602703 37.6506486C4.71818919 40.1925405 5.3562973 42.6557838 6.29035135 44.9941622 6.85872973 46.434973 7.54791892 47.8092973 8.33845946 49.1422703L15.4881892 49.1422703C13.8868378 47.1330811 12.6073784 44.9106486 11.6522432 42.5195676 10.3654865 39.269027 9.70791892 35.7582162 9.70791892 32.0836216M14.1288919 56.8673514C13.8759189 58.0868108 13.1186216 58.8465405 12.2680811 58.8465405 11.7515946 58.8465405 11.2675405 58.6235676 11.2529459 57.9895135 11.2529459 57.8257297 11.2878108 57.6497838 11.3145676 57.5078919L11.9591622 54.408973 11.3705135 54.408973 10.7380811 57.4916757C10.7048378 57.7138378 10.6715946 57.8995135 10.6715946 58.0478919 10.6813243 58.9714054 11.304027 59.346 12.1302432 59.346 12.8559189 59.346 13.4761892 58.8968108 13.8378108 58.3324865L13.8483513 58.3324865 13.6967297 59.2041081 14.239973 59.2041081 15.2153784 54.408973 14.6324054 54.408973 14.1288919 56.8673514z"/>
    <polygon points="1.359 52.573 0 59.206 4.531 59.206 4.645 58.666 .743 58.666 1.283 56.049 4.829 56.049 4.943 55.503 1.386 55.503 1.871 53.112 5.684 53.112 5.802 52.573"/>
    <path d="M7.29137838,58.8482432 C6.40272973,58.8482432 5.98516216,58.2368919 5.97705405,57.4212162 C5.9657027,56.2422973 6.65327027,54.7585135 7.99435135,54.7585135 C8.85948649,54.7585135 9.3402973,55.3098649 9.34840541,56.1506757 C9.363,57.3312162 8.63083784,58.8482432 7.29137838,58.8482432 L7.29137838,58.8482432 Z M10.1194865,52.5733784 L9.573,55.3098649 L9.55435135,55.3098649 C9.33543243,54.5631081 8.74191892,54.2736486 7.98786486,54.2736486 C6.38083784,54.2736486 5.38435135,55.9252703 5.39894595,57.3790541 C5.4102973,58.5563514 6.00705405,59.3452703 7.24110811,59.3452703 C8.07867568,59.3452703 8.57732432,58.9714865 8.973,58.3406757 L8.9957027,58.3406757 L8.793,59.2033784 L9.35327027,59.2033784 L10.7121892,52.5733784 L10.1194865,52.5733784 Z M23.1718378,29.6606757 C23.1718378,29.8885135 23.1815676,30.1131081 23.1888649,30.3425676 L26.8075135,30.3425676 C26.7475135,29.7952703 26.7175135,29.2358108 26.7175135,28.6682432 C26.7175135,25.3698649 27.7164324,22.0082432 29.5585946,18.9433784 L26.1280541,18.9433784 C24.2023784,22.3844595 23.1718378,26.0477027 23.1718378,29.6606757 L23.1718378,29.6606757 Z M39.3769459,18.9443514 L36.4264054,18.9443514 C34.0223514,21.5689459 32.6577568,24.7716486 32.6577568,27.7984054 C32.6577568,28.6894865 32.7704595,29.5424595 32.9950541,30.3427297 L35.8345135,30.3427297 C35.3528919,29.3511081 35.0934324,28.2411081 35.0934324,27.0848919 C35.0934324,24.5275946 36.2650541,21.945973 38.3982973,19.8305676 C38.7137027,19.5038108 39.0412703,19.2086757 39.3769459,18.9443514 L39.3769459,18.9443514 Z M28.3138378,28.6692973 C28.3138378,29.2360541 28.3600541,29.7979459 28.4200541,30.342 L31.343027,30.342 C31.1614054,29.5271351 31.0503243,28.6733514 31.0503243,27.7984865 C31.0503243,25.9871351 31.4622162,24.1611892 32.2616757,22.3733514 C32.7895135,21.1765946 33.4892432,20.0333514 34.3332973,18.9444324 L31.4427568,18.9444324 C29.4254595,21.9760541 28.3138378,25.3668649 28.3138378,28.6692973 L28.3138378,28.6692973 Z M54.7000541,36.1875405 C51.6165405,39.2710541 47.9095135,41.3548378 44.1643784,42.1842973 L43.5051892,45.3772703 C48.3514054,44.4261892 53.1578919,41.8461892 56.9232973,38.0824054 C61.1914054,33.8232162 63.9465405,28.6429459 64.6973514,23.504027 C64.8270811,22.5772703 64.8935676,21.6651081 64.8935676,20.7707838 C64.8935676,20.5559189 64.8878919,20.3410541 64.883027,20.1359189 C64.728973,15.9683514 63.0951892,12.2305135 60.0684324,9.19483784 C57.798973,6.9342973 54.9262703,5.54213514 51.7778919,4.98997297 L51.0562703,8.53564865 C53.3938378,9.11618919 55.4695135,10.2602432 57.1543784,11.9426757 C63.3643784,18.1542973 62.3143784,28.5764595 54.7000541,36.1875405 L54.7000541,36.1875405 Z"/>
    <path d="M61.196027,8.06886486 C63.3495405,10.2175135 64.8714324,12.7180541 65.7187297,15.4837297 C65.7414324,15.564 65.7649459,15.6442703 65.7852162,15.7221081 L66.5473784,12.0434595 L68.679,12.0434595 C67.6687297,9.47724324 66.1387297,7.16643243 64.1181892,5.14264865 C62.1576486,3.17805405 59.8500811,1.75345946 57.3146757,0.812108108 L52.6411622,0.812108108 L52.1027838,3.4212973 C52.8665676,3.55264865 53.6027838,3.73102703 54.3308919,3.95643243 C56.9741351,4.76886486 59.2881892,6.15940541 61.196027,8.06886486 L61.196027,8.06886486 Z M70.3825946,12.0437838 L75.8352973,12.0437838 C74.7958378,7.82513514 72.7469189,4.00702703 69.7874595,0.810810811 L61.0485405,0.810810811 C62.5931351,1.69135135 63.9958378,2.75351351 65.2534054,4.00702703 C67.5747568,6.33810811 69.3074595,9.03405405 70.3825946,12.0437838 L70.3825946,12.0437838 Z M44.3035946,8.3777027 L44.9895405,5.025 C40.3144054,5.84472973 35.529,8.21472973 31.5300811,12.0433784 L35.8979189,12.0433784 C38.4762973,10.1752703 41.3595405,8.91527027 44.3035946,8.3777027 L44.3035946,8.3777027 Z M43.9583514,10.0816216 C42.2167297,10.4683784 40.4937568,11.1275676 38.8575405,12.0437838 L43.5594324,12.0437838 L43.9583514,10.0816216 Z M17.976,28.3748108 C17.3597838,34.9067027 19.4565405,40.9545405 23.873027,45.384 C25.446,46.9504865 27.3149189,48.216973 29.3970811,49.1412973 L35.9281622,49.1412973 L36.3441081,47.154 C32.5770811,46.5742703 29.268973,44.9250811 26.6419459,42.2996757 C25.2919459,40.9464324 24.1868108,39.3799459 23.3573514,37.674 L19.566,37.674 L21.0295135,30.3426486 L21.593027,30.3426486 C21.5865405,30.1131892 21.5735676,29.8885946 21.5735676,29.6558919 C21.5735676,26.0453514 22.5238378,22.3967027 24.3132973,18.9434595 L23.376,18.9434595 L24.6554595,12.6531892 C20.8268108,17.5221081 18.4843784,22.9780541 17.976,28.3748108 L17.976,28.3748108 Z"/>
    <path d="M38.3080541,37.6792703 L38.3112973,37.6727838 L38.2699459,37.6727838 L32.1021081,37.6727838 C33.7075135,39.1573784 35.6064324,40.1692703 37.6983243,40.6500811 L38.3080541,37.6792703 Z M18.2056216,54.7585946 C18.8980541,54.7585946 19.4121081,55.1915676 19.3699459,55.9091351 L19.956973,55.9091351 C19.9764324,54.7983243 19.1956216,54.2737297 18.1504865,54.2737297 C16.5029189,54.2737297 15.5623784,55.8694054 15.5834595,57.3588649 C15.5891351,58.5442703 16.2596757,59.3453514 17.4426486,59.3453514 C18.5996757,59.3453514 19.3221081,58.7502162 19.6707568,57.6499459 L19.0796757,57.6499459 C18.8307568,58.3464324 18.2883243,58.8483243 17.5123784,58.8483243 C16.6002162,58.8483243 16.1753514,58.2175135 16.1656216,57.3588649 C16.1485946,56.1150811 16.8029189,54.7585946 18.2056216,54.7585946 L18.2056216,54.7585946 Z M37.361027,42.2155946 C34.811027,41.6366757 32.5131892,40.3677568 30.5907568,38.4461351 C30.3426486,38.1972162 30.1099459,37.9337027 29.8796757,37.6718108 L25.1542703,37.6718108 C25.8572432,38.9545135 26.7353514,40.1285676 27.774,41.1688378 C30.1699459,43.5672162 33.2121081,45.0688378 36.6596757,45.5828919 L37.361027,42.2155946 Z"/>
    <polygon points="45.654 59.205 46.241 59.205 47.225 54.409 46.638 54.409"/>
    <path d="M56.6842703,52.9595676 L56.0923784,52.9595676 L55.8021081,54.4092973 L54.9280541,54.4092973 L54.8299459,54.9055135 L55.6885946,54.9055135 L55.0707568,58.0806486 C55.014,58.2906486 55.001027,58.4682162 55.001027,58.5687568 C55.0107568,59.1444324 55.4583243,59.2603784 55.8912973,59.2603784 C56.0875135,59.2603784 56.2902162,59.2384865 56.4896757,59.2255135 L56.5829189,58.7106486 C56.3518378,58.7536216 56.1272432,58.7674054 55.8985946,58.7674054 C55.6707568,58.7674054 55.5864324,58.5979459 55.5864324,58.4317297 C55.584,58.2801081 55.601027,58.2030811 55.6472432,57.9760541 L56.2772432,54.9055135 L57.2526486,54.9055135 L57.3426486,54.4092973 L56.3818378,54.4092973 L56.6842703,52.9595676 Z"/>
    <polygon points="47.019 52.573 46.823 53.509 47.41 53.509 47.607 52.573"/>
    <path d="M58.9473243 49.1422703L60.0419189 43.7965946C57.6662432 45.9355135 55.0108378 47.7355135 52.1802973 49.1422703L58.9473243 49.1422703zM50.600027 54.3587027C50.5002973 54.348973 50.3892162 54.348973 50.283 54.348973 49.4348919 54.3432973 48.9232703 54.8257297 48.5648919 55.5116757L48.543 55.5116757 48.7773243 54.408973 48.2454324 54.408973 47.2586757 59.2065405 47.8481351 59.2065405 48.3605676 56.6946486C48.5543514 55.7881622 49.0911081 54.9481622 50.1427297 54.9319459 50.2546216 54.9319459 50.3640811 54.936 50.4784054 54.936L50.600027 54.3587027zM52.6777297 54.7585946C53.3425946 54.7585946 53.8671892 55.0796757 53.8144865 55.8199459L54.4104324 55.8199459C54.420973 54.7107568 53.6847568 54.2688649 52.6777297 54.2688649 51.9147568 54.2688649 50.9069189 54.6491351 50.9166486 55.5807568 50.928 56.3777838 51.5677297 56.6607568 52.2155676 56.9072432 52.8471892 57.1448108 53.5063784 57.3442703 53.5185405 57.9718378 53.5234054 58.5783243 52.8390811 58.854 52.3152973 58.854 51.6439459 58.854 50.9466486 58.5694054 50.9547568 57.6475135L50.3636757 57.6475135C50.3198919 58.8434595 51.2636757 59.3453514 52.1871892 59.3453514 53.0944865 59.3453514 54.108 58.9456216 54.1031351 57.8753514 54.0901622 56.9923784 53.1893514 56.7231892 52.5261081 56.4629189 51.9861081 56.2431892 51.5077297 56.021027 51.5044865 55.5807568 51.5028649 54.9272432 52.1823243 54.7585946 52.6777297 54.7585946L52.6777297 54.7585946zM70.0800811 20.7718378L66.4881892 20.7718378C66.4881892 21.7448108 66.4233243 22.7429189 66.2798108 23.7377838 65.8630541 26.591027 64.8665676 29.4450811 63.3738649 32.1685946L66.9665676 32.1685946C68.5298108 29.0834595 69.5400811 25.871027 69.9268378 22.6804865 70.0087297 22.0367027 70.0549459 21.4026486 70.0800811 20.7718378L70.0800811 20.7718378zM79.4645676.811945946L71.9126757.811945946C74.6442973 4.07789189 76.5205135 7.89113514 77.4788919 12.0441081L83.3159189 12.0441081C82.9502432 9.55167568 82.3194324 7.13627027 81.4121351 4.84897297 80.8551081 3.44627027 80.2056486 2.10681081 79.4645676.811945946L79.4645676.811945946zM81.2967568.811810811C81.8918919 1.92343243 82.4318919 3.07397297 82.8981081 4.26505405 83.4664865 5.69451351 83.9383784 7.17748649 84.287027 8.68721622L85.907027.811810811 81.2967568.811810811zM76.5444324 20.7718378L71.6892973 20.7718378C71.6576757 21.4642703 71.6017297 22.1631892 71.5165946 22.8775135 71.1347027 25.9950811 70.1957838 29.141027 68.7403784 32.1685946L73.6782162 32.1685946C75.1433514 28.7996757 76.0855135 25.331027 76.4479459 21.8729189 76.4892973 21.5048108 76.5225405 21.1350811 76.5444324 20.7718378M78.0456486 22.0363784C77.6815946 25.4498919 76.7897027 28.8552973 75.4121351 32.1674595L79.1037568 32.1674595 81.4064595 20.7707027 78.1551081 20.7707027C78.1186216 21.1915135 78.087 21.6188108 78.0456486 22.0363784M43.1618108 47.0598649L42.7377568 49.142027 48.1150541 49.142027C52.5307297 47.5341892 56.6982973 44.9306757 60.1037027 41.5309459 60.2788378 41.3558108 60.4426216 41.1855405 60.6055946 41.0193243L61.9401892 34.5133784C60.8220811 36.1617568 59.5288378 37.7395946 58.053973 39.2168919 53.9018108 43.3593243 48.5415405 46.1566216 43.1618108 47.0598649"/>
    <polygon points="29.288 52.573 29.098 53.509 29.677 53.509 29.876 52.573"/>
    <polygon points="27.924 59.205 28.504 59.205 29.495 54.409 28.909 54.409"/>
    <path d="M23.6989189,57.4414054 C23.5181081,58.2797838 22.9181081,58.8465405 21.9840541,58.8465405 C21.4327027,58.8465405 20.9227027,58.5968108 20.9145946,57.9887027 C20.9040541,56.9816757 22.0821622,56.9516757 22.8013514,56.8876216 C23.0908108,56.8681622 23.6591892,56.8527568 23.8497297,56.6200541 L23.8651351,56.6378919 L23.6989189,57.4414054 Z M24.6475676,55.3324865 C24.6410811,54.498973 23.625946,54.2735676 22.9748649,54.2735676 C21.9443243,54.2735676 21.11,54.7535676 20.9656757,55.8441081 L21.5454054,55.8441081 C21.6654054,55.0438378 22.3002703,54.7576216 23.0478378,54.7576216 C23.492973,54.7576216 24.0597297,54.8832973 24.0597297,55.4573514 C24.0727027,56.0735676 23.8748649,56.298973 23.505946,56.3914054 C23.1256757,56.4749189 22.5889189,56.4335676 21.9694595,56.5292432 C21.1172973,56.6776216 20.3194595,57.0011351 20.3291892,58.0073514 C20.3372973,58.9446487 21.0021622,59.346 21.8762162,59.346 C22.5394595,59.346 23.1954054,59.011946 23.5310811,58.4565405 L23.5391892,58.471946 C23.5359459,58.5578919 23.5310811,58.656 23.5310811,58.7411351 C23.5391892,59.0468108 23.7208108,59.2608649 24.0394595,59.2608649 C24.2008108,59.2608649 24.4002703,59.2405946 24.5267568,59.213027 L24.6078378,58.7500541 C24.5267568,58.7581622 24.4602703,58.7662703 24.3783784,58.7662703 C24.2291892,58.7662703 24.0727027,58.7411351 24.0727027,58.5684324 C24.0597297,58.2797838 24.1643243,58.0300541 24.3654054,56.958973 C24.4562162,56.5292432 24.6572973,55.8035676 24.6475676,55.3324865 L24.6475676,55.3324865 Z"/>
    <polygon points="42.585 53.112 46.202 53.112 46.299 52.573 42.062 52.573 40.704 59.206 41.336 59.206 41.987 56.048 45.199 56.048 45.3 55.503 42.093 55.503"/>
    <path d="M31.839,58.8482432 C30.8635946,58.8482432 30.3933243,58.2174324 30.3852162,57.2898649 C30.3681892,56.1628378 31.0711622,54.7585135 32.3506216,54.7585135 C33.2846757,54.7585135 33.7630541,55.3836486 33.776027,56.2690541 C33.7833243,57.3790541 33.1152162,58.8482432 31.839,58.8482432 L31.839,58.8482432 Z M32.4438649,54.2736486 C30.7354865,54.2736486 29.7852162,55.7744595 29.7957568,57.3441892 C29.8054865,58.5441892 30.5027838,59.3452703 31.7246757,59.3452703 C33.5035946,59.3452703 34.3711622,57.7658108 34.3565676,56.1514865 C34.346027,54.9644595 33.5603514,54.2736486 32.4438649,54.2736486 L32.4438649,54.2736486 Z M39.528973,20.9562973 C37.7078919,22.7806216 36.6895135,24.9584595 36.6895135,27.0868378 C36.6895135,28.3135946 37.0454595,29.4195405 37.6981622,30.3414324 L39.4105946,30.3414324 L41.6224865,19.3306216 C40.8846486,19.7684595 40.1735676,20.3117027 39.528973,20.9562973 L39.528973,20.9562973 Z M37.7442973,54.273973 C37.0332162,54.273973 36.4064595,54.7158649 36.0513243,55.2834324 L36.0383514,55.2834324 L36.1842973,54.4093784 L35.6475405,54.4093784 L34.6656486,59.2045135 L35.2551081,59.2045135 L35.757,56.7477568 C36.0026757,55.5266757 36.7688919,54.7588378 37.6226757,54.7588378 C38.139973,54.7588378 38.6215946,54.9947838 38.6313243,55.6337027 C38.6313243,55.7796486 38.5997027,55.9612703 38.5632162,56.108027 L37.9283514,59.2045135 L38.5088919,59.2045135 L39.1380811,56.1364054 C39.189973,55.911 39.2126757,55.7099189 39.2078108,55.5574865 C39.2029459,54.6428919 38.5818649,54.273973 37.7442973,54.273973 L37.7442973,54.273973 Z M27.2338378,52.9595676 L26.6524865,52.9595676 L26.3532973,54.4092973 L25.4962703,54.4092973 L25.3827568,54.9055135 L26.2519459,54.9055135 L25.608973,58.0806486 C25.5757297,58.2995676 25.5603243,58.4682162 25.5603243,58.5687568 C25.5692432,59.1501081 26.0062703,59.2603784 26.453027,59.2603784 C26.6419459,59.2603784 26.8584324,59.2417297 27.0392432,59.2214595 L27.1422162,58.7106486 C26.9127568,58.752 26.6857297,58.7674054 26.4546486,58.7674054 C26.2365405,58.7674054 26.1457297,58.5979459 26.1424865,58.4317297 C26.1424865,58.2801081 26.1570811,58.2030811 26.2057297,57.9760541 L26.8316757,54.9055135 L27.8119459,54.9055135 L27.8922162,54.4092973 L26.9411351,54.4092973 L27.2338378,52.9595676 Z"/>
  </g>
</svg>
