<?xml version="1.0" encoding="UTF-8" standalone="no"?>
<svg width="61px" height="42px" viewBox="0 0 61 42" version="1.1" xmlns="http://www.w3.org/2000/svg" xmlns:xlink="http://www.w3.org/1999/xlink">
    <!-- Generator: Sketch 3.8.3 (29802) - http://www.bohemiancoding.com/sketch -->
    <title>ef footer</title>
    <desc>Created with Sketch.</desc>
    <defs></defs>
    <g id="Page-1" stroke="none" stroke-width="1" fill="none" fill-rule="evenodd">
        <g id="ef-footer" fill="#ffffff">
            <g id="Group-18">
                <g id="logo">
                    <g id="EF_logo">
                        <g id="Layer_1">
                            <g id="XMLID_1194_">
                                <path d="M8.45943396,0 L7.2509434,5.98356164 C8.63207547,3.91232877 10.2433962,1.89863014 12.0849057,0 L8.45943396,0 L8.45943396,0 Z" id="XMLID_1243_"></path>
                                <path d="M10.1858491,12.5424658 C8.74716981,15.7643836 7.9990566,18.9863014 7.9990566,22.2082192 C7.9990566,24.6821918 8.45943396,27.0410959 9.32264151,29.169863 C10.0707547,31.0684932 11.1066038,32.7369863 12.4877358,34.290411 L18.4726415,34.290411 C17.6669811,33.7726027 16.8613208,33.139726 16.1707547,32.4493151 C12.7754717,29.0547945 11.1641509,24.4520548 11.6820755,19.4465753 C11.9122642,16.9726027 12.6603774,14.4986301 13.8688679,12.139726 C15.0773585,9.66575342 16.8037736,7.30684932 18.9330189,5.17808219 C20.9471698,3.16438356 23.2490566,1.49589041 25.7811321,0.287671233 C25.9537736,0.17260274 26.1839623,0.115068493 26.3566038,-3.55271368e-15 L20.4867925,-3.55271368e-15 C19.1632075,0.978082192 17.8971698,2.01369863 16.7462264,3.22191781 C13.8688679,6.04109589 11.6820755,9.20547945 10.1858491,12.5424658" id="XMLID_1242_"></path>
                                <path d="M17.8396226,7.99726027 L20.7745283,7.99726027 C20.9471698,7.82465753 21.0622642,7.65205479 21.2349057,7.5369863 C24.3424528,4.43013699 28.1981132,2.41643836 32.1688679,1.84109589 L32.5716981,0 L29.3490566,0 C25.8962264,1.09315068 22.5584906,3.10684932 19.6811321,5.98356164 C18.990566,6.61643836 18.4150943,7.30684932 17.8396226,7.99726027" id="XMLID_1241_"></path>
                                <path d="M36.0820755,22.2657534 C38.0962264,20.2520548 39.2471698,17.8931507 39.2471698,15.7068493 C39.2471698,13.9808219 38.6141509,12.4273973 37.4056604,11.2191781 C36.8301887,10.6438356 36.1396226,10.1835616 35.3339623,9.89589041 L34.9311321,11.7945205 C35.3339623,12.0246575 35.6792453,12.2547945 35.9669811,12.6 C37.0603774,13.6931507 37.5783019,15.1315068 37.4056604,16.7424658 C37.290566,18.3534247 36.5424528,19.9068493 35.2764151,21.1726027 C34.5283019,21.9205479 33.6075472,22.5534247 32.6292453,22.9561644 L32.2839623,24.739726 C33.6650943,24.2219178 34.9311321,23.4164384 36.0820755,22.2657534" id="XMLID_1240_"></path>
                                <path d="M40.3981132,15.6493151 C40.3981132,18.1808219 39.1320755,20.769863 36.8877358,23.0136986 C35.4490566,24.4520548 33.7801887,25.430137 31.9962264,25.9479452 L31.5358491,28.0767123 C33.8377358,27.5013699 36.0820755,26.1205479 37.9811321,24.2219178 C42.9301887,19.2739726 43.6783019,12.6 39.7075472,8.63013699 C38.6716981,7.59452055 37.4056604,6.90410959 35.9669811,6.50136986 L35.5066038,8.68767123 C36.4849057,9.03287671 37.4056604,9.60821918 38.0962264,10.2986301 C39.5924528,11.8520548 40.3981132,13.6356164 40.3981132,15.6493151" id="XMLID_1239_"></path>
                                <path d="M36.3122642,16.6273973 C36.4273585,15.3616438 36.0245283,14.2109589 35.1613208,13.4054795 C34.9886792,13.2328767 34.8160377,13.1178082 34.7009434,13.0027397 L32.9745283,21.5178082 C33.55,21.1726027 34.0679245,20.8273973 34.5283019,20.309589 C35.5641509,19.2739726 36.1971698,17.9506849 36.3122642,16.6273973" id="XMLID_1238_"></path>
                                <path d="M3.39528302,31.7589041 C3.05,30.8383562 2.76226415,29.9753425 2.4745283,28.9972603 L1.38113208,34.290411 L4.60377358,34.290411 C4.14339623,33.4849315 3.74056604,32.6219178 3.39528302,31.7589041" id="XMLID_1237_"></path>
                                <path d="M6.90566038,22.2082192 C6.90566038,18.8712329 7.65377358,15.4191781 9.15,12.0821918 C10.7037736,8.63013699 13.0056604,5.35068493 15.8830189,2.41643836 C16.7462264,1.55342466 17.6669811,0.747945205 18.5877358,0 L13.6962264,0 C13.5235849,0.17260274 13.2933962,0.402739726 13.1207547,0.575342466 C10.4160377,3.27945205 8.17169811,6.21369863 6.50283019,9.32054795 L3.05,26.1205479 C3.28018868,27.9041096 3.74056604,29.6876712 4.43113208,31.3561644 C4.83396226,32.3917808 5.35188679,33.369863 5.86981132,34.290411 L10.9339623,34.290411 C9.78301887,32.8520548 8.86226415,31.2986301 8.22924528,29.5726027 C7.36603774,27.2712329 6.90566038,24.7972603 6.90566038,22.2082192" id="XMLID_1236_"></path>
                                <path d="M10.0132075,39.7561644 C9.84056604,40.6191781 9.32264151,41.1369863 8.68962264,41.1369863 C8.34433962,41.1369863 7.9990566,40.9643836 7.94150943,40.5041096 C7.94150943,40.3890411 7.94150943,40.2739726 7.9990566,40.1589041 L8.45943396,37.9726027 L8.05660377,37.9726027 L7.59622642,40.1589041 C7.59622642,40.3315068 7.53867925,40.4465753 7.53867925,40.5616438 C7.53867925,41.1945205 7.9990566,41.4821918 8.5745283,41.4821918 C9.09245283,41.4821918 9.55283019,41.1369863 9.78301887,40.7917808 L9.78301887,40.7917808 L9.7254717,41.4246575 L10.1283019,41.4246575 L10.8188679,38.030137 L10.3584906,38.030137 L10.0132075,39.7561644 L10.0132075,39.7561644 Z" id="XMLID_1235_"></path>
                                <polygon id="XMLID_1234_" points="0.978301887 36.7068493 0 41.4246575 3.22264151 41.4246575 3.28018868 41.0794521 0.517924528 41.0794521 0.920754717 39.1808219 3.45283019 39.1808219 3.51037736 38.8356164 0.978301887 38.8356164 1.32358491 37.109589 4.02830189 37.109589 4.14339623 36.7068493"></polygon>
                                <path d="M7.19339623,36.7068493 L6.79056604,38.6630137 L6.79056604,38.6630137 C6.61792453,38.1452055 6.21509434,37.9150685 5.69716981,37.9150685 C4.54622642,37.9150685 3.85566038,39.0657534 3.85566038,40.1013699 C3.85566038,40.9643836 4.31603774,41.4821918 5.17924528,41.4821918 C5.75471698,41.4821918 6.1,41.1945205 6.38773585,40.7917808 L6.38773585,40.7917808 L6.21509434,41.4246575 L6.61792453,41.4246575 L7.59622642,36.7068493 L7.19339623,36.7068493 L7.19339623,36.7068493 Z M5.17924528,41.1945205 C4.54622642,41.1945205 4.25849057,40.7342466 4.25849057,40.1589041 C4.25849057,39.2958904 4.71886792,38.260274 5.69716981,38.260274 C6.33018868,38.260274 6.6754717,38.6630137 6.6754717,39.2383562 C6.61792453,40.1013699 6.1,41.1945205 5.17924528,41.1945205 L5.17924528,41.1945205 Z" id="XMLID_1231_"></path>
                                <path d="M16.4584906,20.4821918 L16.4584906,20.9424658 L19.0481132,20.9424658 C18.990566,20.539726 18.990566,20.1945205 18.990566,19.7917808 C18.990566,17.4328767 19.6811321,15.0739726 21.004717,12.8876712 L18.5877358,12.8876712 C17.1490566,15.3041096 16.4584906,17.8931507 16.4584906,20.4821918" id="XMLID_1230_"></path>
                                <path d="M27.9679245,12.8876712 L25.8962264,12.8876712 C24.1698113,14.7287671 23.2490566,17.030137 23.2490566,19.1589041 C23.2490566,19.7917808 23.3066038,20.4246575 23.4792453,20.9424658 L25.4933962,20.9424658 C25.1481132,20.2520548 24.9754717,19.4465753 24.9754717,18.6410959 C24.9754717,16.8 25.7811321,15.0164384 27.3349057,13.5205479 C27.45,13.290411 27.7377358,13.060274 27.9679245,12.8876712" id="XMLID_1229_"></path>
                                <path d="M20.0839623,19.7917808 C20.0839623,20.1945205 20.1415094,20.5972603 20.1415094,21 L22.2132075,21 C22.0981132,20.4246575 21.9830189,19.7917808 21.9830189,19.2164384 C21.9830189,17.9506849 22.2707547,16.6273973 22.8462264,15.3616438 C23.2490566,14.4986301 23.709434,13.6931507 24.3424528,12.9452055 L22.2707547,12.9452055 C20.8896226,15.0164384 20.0839623,17.4328767 20.0839623,19.7917808" id="XMLID_1228_"></path>
                                <path d="M38.8443396,25.0849315 C36.6575472,27.2712329 34.0103774,28.7671233 31.3632075,29.3424658 L30.9028302,31.6438356 C34.3556604,30.9534247 37.7509434,29.1123288 40.3981132,26.4657534 C43.4481132,23.4164384 45.404717,19.7917808 45.9226415,16.109589 C46.0377358,15.4767123 46.0377358,14.7863014 46.0377358,14.1534247 L46.0377358,13.6931507 C45.9226415,10.7589041 44.7716981,8.05479452 42.6424528,5.9260274 C41.0311321,4.31506849 39.0169811,3.3369863 36.7726415,2.93424658 L36.254717,5.46575342 C37.9235849,5.86849315 39.3622642,6.6739726 40.5707547,7.88219178 C44.9443396,12.3123288 44.2537736,19.6767123 38.8443396,25.0849315" id="XMLID_1227_"></path>
                                <path d="M43.4481132,5.17808219 C45.0018868,6.73150685 46.0377358,8.45753425 46.6707547,10.4136986 C46.6707547,10.4712329 46.7283019,10.5287671 46.7283019,10.5863014 L47.2462264,7.99726027 L48.7424528,7.99726027 C48.0518868,6.15616438 46.9584906,4.54520548 45.5198113,3.10684932 C44.1386792,1.7260274 42.4698113,0.690410959 40.6858491,0.0575342466 L37.3481132,0.0575342466 L36.945283,1.89863014 C37.4632075,2.01369863 37.9811321,2.12876712 38.4990566,2.30136986 C40.4556604,2.81917808 42.0669811,3.79726027 43.4481132,5.17808219" id="XMLID_1226_"></path>
                                <path d="M49.9509434,7.99726027 L53.8066038,7.99726027 C53.0584906,5.00547945 51.6198113,2.24383562 49.5481132,0 L43.3330189,0 C44.4264151,0.632876712 45.404717,1.38082192 46.3254717,2.24383562 C47.9367925,3.91232877 49.2028302,5.8109589 49.9509434,7.99726027" id="XMLID_1225_"></path>
                                <path d="M31.4207547,5.35068493 L31.8811321,2.99178082 C28.5433962,3.56712329 25.1481132,5.23561644 22.3283019,7.99726027 L25.4358491,7.99726027 C27.3349057,6.61643836 29.3490566,5.75342466 31.4207547,5.35068493" id="XMLID_1224_"></path>
                                <path d="M31.190566,6.55890411 C29.9820755,6.84657534 28.7160377,7.30684932 27.5650943,7.93972603 L30.9028302,7.93972603 L31.190566,6.55890411 L31.190566,6.55890411 Z" id="XMLID_1223_"></path>
                                <path d="M12.7754717,19.5616438 C12.3150943,24.2219178 13.8113208,28.4794521 16.9764151,31.6438356 C18.0698113,32.7369863 19.3933962,33.6575342 20.8896226,34.290411 L25.5509434,34.290411 L25.8386792,32.8520548 C23.1915094,32.4493151 20.8320755,31.2986301 18.9330189,29.4 C17.954717,28.4219178 17.2066038,27.3287671 16.5735849,26.1205479 L13.8688679,26.1205479 L14.904717,20.9424658 L15.3075472,20.9424658 L15.3075472,20.4821918 C15.3075472,17.8931507 15.9981132,15.3041096 17.2641509,12.8876712 L16.5735849,12.8876712 L17.4943396,8.4 C14.7896226,11.8520548 13.1207547,15.7068493 12.7754717,19.5616438" id="XMLID_1222_"></path>
                                <path d="M27.1622642,26.1780822 L27.1622642,26.1780822 L27.1622642,26.1780822 L22.7311321,26.1780822 C23.8820755,27.2136986 25.2056604,27.9616438 26.7018868,28.3068493 L27.1622642,26.1780822 L27.1622642,26.1780822 Z" id="XMLID_1221_"></path>
                                <path d="M12.9481132,38.260274 C13.4660377,38.260274 13.8113208,38.5479452 13.7537736,39.0657534 L14.1566038,39.0657534 C14.1566038,38.260274 13.6386792,37.9150685 12.890566,37.9150685 C11.7396226,37.9150685 11.0490566,39.0657534 11.0490566,40.1013699 C11.0490566,40.9643836 11.509434,41.539726 12.3726415,41.539726 C13.1783019,41.539726 13.6962264,41.1369863 13.9264151,40.3315068 L13.5235849,40.3315068 C13.3509434,40.8493151 12.9481132,41.1945205 12.4301887,41.1945205 C11.7971698,41.1945205 11.509434,40.7342466 11.4518868,40.1589041 C11.4518868,39.2383562 11.9122642,38.260274 12.9481132,38.260274" id="XMLID_1220_"></path>
                                <path d="M26.5292453,29.4 C24.745283,28.9972603 23.0764151,28.0767123 21.695283,26.7534247 C21.5226415,26.5808219 21.35,26.4082192 21.1773585,26.1780822 L17.8396226,26.1780822 C18.3575472,27.0986301 18.9330189,27.9041096 19.6811321,28.6520548 C21.4075472,30.3780822 23.5367925,31.4136986 26.0113208,31.7589041 L26.5292453,29.4 L26.5292453,29.4 Z" id="XMLID_1219_"></path>
                                <polygon id="XMLID_1218_" points="32.3990566 41.4246575 32.8018868 41.4246575 33.4924528 38.030137 33.0896226 38.030137"></polygon>
                                <path d="M40.2254717,36.9945205 L39.8226415,36.9945205 L39.5924528,38.030137 L38.959434,38.030137 L38.9018868,38.3753425 L39.5349057,38.3753425 L39.0745283,40.6191781 C39.0169811,40.7917808 39.0169811,40.9068493 39.0169811,40.9643836 C39.0169811,41.3671233 39.3622642,41.4821918 39.65,41.4821918 L40.0528302,41.4821918 L40.1103774,41.1369863 C39.9377358,41.1945205 39.7650943,41.1945205 39.65,41.1945205 C39.4773585,41.1945205 39.4198113,41.0794521 39.4198113,40.9643836 C39.4198113,40.8493151 39.4198113,40.7917808 39.4773585,40.6191781 L39.9377358,38.4328767 L40.6283019,38.4328767 L40.6858491,38.0876712 L39.995283,38.0876712 L40.2254717,36.9945205 L40.2254717,36.9945205 Z" id="XMLID_1217_"></path>
                                <polygon id="XMLID_1216_" points="33.3841287 36.7068493 33.204717 37.3972603 33.6831484 37.3972603 33.8027562 36.7068493"></polygon>
                                <path d="M41.8367925,34.290411 L42.5849057,30.4931507 C40.9160377,31.9890411 39.0169811,33.3123288 37.0028302,34.290411 L41.8367925,34.290411 L41.8367925,34.290411 Z" id="XMLID_1215_"></path>
                                <path d="M35.909434,37.9726027 L35.6792453,37.9726027 C35.1037736,37.9726027 34.7009434,38.3178082 34.4707547,38.7780822 L34.4707547,38.7780822 L34.6433962,37.9726027 L34.240566,37.9726027 L33.55,41.4246575 L33.9528302,41.4246575 L34.2981132,39.6410959 C34.4132075,39.0082192 34.8160377,38.3753425 35.5641509,38.3753425 L35.7943396,38.3753425 L35.909434,37.9726027 L35.909434,37.9726027 Z" id="XMLID_1214_"></path>
                                <path d="M37.4056604,38.260274 C37.8660377,38.260274 38.2688679,38.490411 38.2113208,39.0082192 L38.6141509,39.0082192 C38.6141509,38.2027397 38.0962264,37.9150685 37.4056604,37.9150685 C36.8877358,37.9150685 36.1396226,38.2027397 36.1396226,38.8356164 C36.1396226,39.4109589 36.6,39.5835616 37.0603774,39.7561644 C37.5207547,39.9287671 37.9811321,40.0438356 37.9811321,40.5041096 C37.9811321,40.9068493 37.5207547,41.1369863 37.1179245,41.1369863 C36.6575472,41.1369863 36.1396226,40.9068493 36.1396226,40.2739726 L35.7367925,40.2739726 C35.6792453,41.1369863 36.3698113,41.4821918 37.0028302,41.4821918 C37.6358491,41.4821918 38.3839623,41.1945205 38.3839623,40.4465753 C38.3839623,39.8136986 37.7509434,39.6410959 37.290566,39.4684932 C36.8877358,39.2958904 36.5424528,39.1808219 36.5424528,38.8356164 C36.5424528,38.3753425 37.0603774,38.260274 37.4056604,38.260274" id="XMLID_1213_"></path>
                                <path d="M49.7207547,14.1534247 L47.1886792,14.1534247 C47.1886792,14.8438356 47.1311321,15.5342466 47.0160377,16.2821918 C46.7283019,18.2958904 46.0377358,20.309589 44.9443396,22.2657534 L47.4764151,22.2657534 C48.5698113,20.0794521 49.3179245,17.7780822 49.6056604,15.5342466 C49.6632075,15.0739726 49.7207547,14.6136986 49.7207547,14.1534247" id="XMLID_1212_"></path>
                                <path d="M56.3962264,0 L51.0443396,0 C53.0009434,2.30136986 54.3245283,5.00547945 55.0150943,7.99726027 L59.1584906,7.99726027 C58.8707547,6.21369863 58.4679245,4.48767123 57.8349057,2.87671233 C57.3745283,1.89863014 56.9141509,0.920547945 56.3962264,0" id="XMLID_1211_"></path>
                                <path d="M57.7198113,0 C58.1226415,0.805479452 58.5254717,1.6109589 58.8707547,2.4739726 C59.2735849,3.50958904 59.6188679,4.54520548 59.8490566,5.63835616 L61,0.0575342466 L57.7198113,0.0575342466 L57.7198113,0 Z" id="XMLID_1210_"></path>
                                <path d="M54.3245283,14.1534247 L50.8716981,14.1534247 C50.8716981,14.6712329 50.8141509,15.1315068 50.7566038,15.6493151 C50.4688679,17.8356164 49.8358491,20.0794521 48.8,22.2657534 L52.3103774,22.2657534 C53.3462264,19.8493151 54.0367925,17.4328767 54.2669811,14.9589041 C54.2669811,14.6712329 54.3245283,14.4410959 54.3245283,14.1534247" id="XMLID_1209_"></path>
                                <path d="M55.4179245,15.0739726 C55.1877358,17.490411 54.554717,19.9068493 53.5764151,22.2657534 L56.2235849,22.2657534 L57.8349057,14.1534247 L55.5330189,14.1534247 C55.4179245,14.4410959 55.4179245,14.7863014 55.4179245,15.0739726" id="XMLID_1208_"></path>
                                <path d="M30.6150943,32.7945205 L30.3273585,34.290411 L34.1254717,34.290411 C37.2330189,33.139726 40.2254717,31.2986301 42.6424528,28.8821918 C42.7575472,28.7671233 42.8726415,28.6520548 42.9877358,28.5369863 L43.9084906,23.9342466 C43.1028302,25.0849315 42.1820755,26.2356164 41.1462264,27.2712329 C38.2688679,30.2054795 34.4707547,32.1616438 30.6150943,32.7945205" id="XMLID_1207_"></path>
                                <polygon id="XMLID_1206_" points="20.7923316 36.7068493 20.659434 37.3972603 21.1245756 37.3972603 21.2574732 36.7068493"></polygon>
                                <polygon id="XMLID_1205_" points="19.7962264 41.4246575 20.2566038 41.4246575 20.9471698 38.030137 20.5443396 38.030137"></polygon>
                                <path d="M17.4943396,38.6630137 C17.4943396,38.0876712 16.7462264,37.9150685 16.2858491,37.9150685 C15.5377358,37.9150685 14.9622642,38.260274 14.8471698,39.0082192 L15.25,39.0082192 C15.3075472,38.4328767 15.7679245,38.260274 16.3433962,38.260274 C16.6311321,38.260274 17.0339623,38.3753425 17.0339623,38.7780822 C17.0339623,39.2383562 16.9188679,39.3534247 16.6311321,39.4684932 C16.3433962,39.5260274 15.9981132,39.5260274 15.5377358,39.5835616 C14.904717,39.6986301 14.3867925,39.9287671 14.3867925,40.6191781 C14.3867925,41.309589 14.8471698,41.5972603 15.4801887,41.5972603 C15.940566,41.5972603 16.4009434,41.3671233 16.6311321,40.9643836 L16.6311321,40.9643836 L16.6311321,41.1369863 C16.6311321,41.3671233 16.7462264,41.4821918 16.9764151,41.4821918 C17.0915094,41.4821918 17.2066038,41.4821918 17.3216981,41.4246575 L17.3792453,41.0794521 L17.2066038,41.0794521 C17.0915094,41.0794521 16.9764151,41.0794521 16.9764151,40.9643836 C16.9764151,40.7342466 17.0339623,40.5616438 17.2066038,39.8136986 C17.3792453,39.5260274 17.4943396,39.0082192 17.4943396,38.6630137 L17.4943396,38.6630137 Z M16.8037736,40.1589041 C16.6886792,40.7342466 16.2283019,41.1369863 15.595283,41.1369863 C15.1924528,41.1369863 14.8471698,40.9643836 14.8471698,40.5041096 C14.8471698,39.8136986 15.6528302,39.7561644 16.1707547,39.6986301 C16.4009434,39.6986301 16.8037736,39.6986301 16.9188679,39.5260274 L16.9188679,39.5260274 L16.8037736,40.1589041 L16.8037736,40.1589041 Z" id="XMLID_1202_"></path>
                                <polygon id="XMLID_1201_" points="30.2122642 37.109589 32.8018868 37.109589 32.859434 36.7068493 29.8669811 36.7068493 28.8886792 41.4246575 29.3490566 41.4246575 29.809434 39.1808219 32.0537736 39.1808219 32.1688679 38.8356164 29.8669811 38.8356164"></polygon>
                                <path d="M23.0188679,37.9150685 C21.8103774,37.9150685 21.1198113,39.0082192 21.1198113,40.1013699 C21.1198113,40.9643836 21.6377358,41.539726 22.5009434,41.539726 C23.7669811,41.539726 24.4,40.4465753 24.3424528,39.2958904 C24.4,38.4328767 23.8245283,37.9150685 23.0188679,37.9150685 M22.6160377,41.1945205 C21.9254717,41.1945205 21.5801887,40.7342466 21.5801887,40.1013699 C21.5801887,39.2958904 22.040566,38.3178082 22.9613208,38.3178082 C23.6518868,38.3178082 23.9396226,38.7780822 23.9971698,39.4109589 C23.9971698,40.1589041 23.4792453,41.1945205 22.6160377,41.1945205" id="XMLID_1198_"></path>
                                <path d="M28.0830189,14.2684932 C26.8169811,15.5342466 26.0688679,17.0876712 26.0688679,18.6410959 C26.0688679,19.5041096 26.2990566,20.309589 26.759434,20.9424658 L27.9679245,20.9424658 L29.5216981,13.1178082 C29.0037736,13.4630137 28.4858491,13.8657534 28.0830189,14.2684932" id="XMLID_1197_"></path>
                                <path d="M26.8169811,37.9150685 C26.2990566,37.9150685 25.8386792,38.2027397 25.6084906,38.6054795 L25.6084906,38.6054795 L25.7235849,37.9726027 L25.3207547,37.9726027 L24.6301887,41.4246575 L25.0330189,41.4246575 L25.3783019,39.6986301 C25.5509434,38.8356164 26.0688679,38.260274 26.7018868,38.260274 C27.0471698,38.260274 27.3924528,38.4328767 27.3924528,38.8931507 C27.3924528,39.0082192 27.3924528,39.1232877 27.3349057,39.2383562 L26.9320755,41.4246575 L27.3349057,41.4246575 L27.795283,39.2383562 C27.8528302,39.0657534 27.8528302,38.9506849 27.8528302,38.8356164 C27.795283,38.2027397 27.3924528,37.9150685 26.8169811,37.9150685" id="XMLID_1196_"></path>
                                <path d="M19.3358491,36.9945205 L18.9330189,36.9945205 L18.7028302,38.030137 L18.0698113,38.030137 L18.0122642,38.3753425 L18.645283,38.3753425 L18.1849057,40.6191781 C18.1849057,40.7917808 18.1273585,40.9068493 18.1273585,40.9643836 C18.1273585,41.3671233 18.4150943,41.4821918 18.7603774,41.4821918 L19.1632075,41.4821918 L19.2207547,41.1369863 C19.0481132,41.1369863 18.8754717,41.1945205 18.7603774,41.1945205 C18.5877358,41.1945205 18.5301887,41.0794521 18.5301887,40.9643836 C18.5301887,40.8493151 18.5301887,40.7917808 18.5877358,40.6191781 L19.0481132,38.4328767 L19.7386792,38.4328767 L19.7962264,38.0876712 L19.1056604,38.0876712 L19.3358491,36.9945205 L19.3358491,36.9945205 Z" id="XMLID_1195_"></path>
                            </g>
                        </g>
                    </g>
                </g>
            </g>
        </g>
    </g>
</svg>