<?xml version="1.0" encoding="UTF-8"?>
<svg width="24px" height="24px" viewBox="0 0 24 24" version="1.1" xmlns="http://www.w3.org/2000/svg" xmlns:xlink="http://www.w3.org/1999/xlink">
    <!-- Generator: Sketch 51.2 (57519) - http://www.bohemiancoding.com/sketch -->
    <title>icons/utility/logout</title>
    <desc>Created with Sketch.</desc>
    <defs></defs>
    <g id="Desktop-Components" stroke="none" stroke-width="1" fill="none" fill-rule="evenodd">
        <g id="Type,-Icons-&amp;-Illusrations" transform="translate(-408.000000, -2463.000000)" fill="#706E6B" fill-rule="nonzero">
            <g id="utility" transform="translate(80.000000, 2183.000000)">
                <g id="icons/utility/logout" transform="translate(340.000000, 292.000000) rotate(-90.000000) translate(-340.000000, -292.000000) translate(328.000000, 280.000000)">
                    <path d="M9.7,22.4 L9.7,21 C9.7,20.6 9.4,20.3 9,20.3 L4.4,20.3 C4,20.3 3.7,20 3.7,19.6 L3.7,4.4 C3.7,4 4,3.7 4.4,3.7 L9,3.7 C9.4,3.7 9.7,3.4 9.7,3 L9.7,1.6 C9.7,1.2 9.4,0.9 9,0.9 L2.8,0.9 C1.8,0.9 0.9,1.8 0.9,2.8 L0.9,21.2 C0.9,22.2 1.8,23.1 2.8,23.1 L9,23.1 C9.4,23.1 9.7,22.8 9.7,22.4 Z M22.9,12.5 C23.2,12.2 23.2,11.8 22.9,11.5 L16.7,5.3 C16.4,5 16,5 15.7,5.3 L14.7,6.2 C14.4,6.5 14.4,6.9 14.7,7.2 L17.3,9.8 C17.6,10.1 17.4,10.6 17,10.6 L7.2,10.6 C6.8,10.6 6.5,10.8 6.5,11.2 L6.5,12.6 C6.5,13 6.8,13.3 7.2,13.3 L16.9,13.3 C17.4,13.3 17.5,13.8 17.3,14.1 L14.7,16.7 C14.4,17 14.4,17.4 14.7,17.7 L15.6,18.6 C15.9,18.9 16.3,18.9 16.6,18.6 L22.9,12.5 Z" id="Shape"></path>
                </g>
            </g>
        </g>
    </g>
</svg>