<?xml version="1.0" encoding="UTF-8"?>
<svg width="20px" height="20px" viewBox="0 0 20 20" version="1.1" xmlns="http://www.w3.org/2000/svg" xmlns:xlink="http://www.w3.org/1999/xlink">
    <!-- Generator: Sketch 52.4 (67378) - http://www.bohemiancoding.com/sketch -->
    <title>Group 20</title>
    <desc>Created with Sketch.</desc>
    <g id="Page-1" stroke="none" stroke-width="0.5" fill="none" fill-rule="evenodd">
        <g id="iPhone-8" transform="translate(-25.000000, -914.000000)" fill="#50F173">
            <g id="Group-12" transform="translate(25.000000, 824.000000)">
                <g id="Stacked-Group-4" transform="translate(0.000000, 90.000000)">
                    <g id="Group-11">
                        <g id="Group-21-Copy">
                            <g id="Group-20">
                                <path d="M9.79166667,1.28291667 C5.08166667,1.28291667 1.25,5.07375 1.25,9.73291667 C1.25,14.39125 5.08166667,18.1820833 9.79166667,18.1820833 C14.5016667,18.1820833 18.3333333,14.39125 18.3333333,9.73291667 C18.3333333,5.07375 14.5016667,1.28291667 9.79166667,1.28291667 M9.79166667,19.4320833 C4.3925,19.4320833 0,15.08125 0,9.73291667 C0,4.38458333 4.3925,0.0329166667 9.79166667,0.0329166667 C15.1908333,0.0329166667 19.5833333,4.38458333 19.5833333,9.73291667 C19.5833333,15.08125 15.1908333,19.4320833 9.79166667,19.4320833" id="Fill-17"></path>
                                <path d="M9.79166667,16.6475 C6.19083333,16.6475 3.26166667,13.745 3.26166667,10.1766667 C3.26166667,9.83166667 3.54166667,9.55166667 3.88666667,9.55166667 C4.23166667,9.55166667 4.51166667,9.83166667 4.51166667,10.1766667 C4.51166667,13.055 6.88,15.3975 9.79166667,15.3975 C12.7033333,15.3975 15.0716667,13.055 15.0716667,10.1766667 C15.0716667,9.83166667 15.3516667,9.55166667 15.6966667,9.55166667 C16.0416667,9.55166667 16.3216667,9.83166667 16.3216667,10.1766667 C16.3216667,13.745 13.3925,16.6475 9.79166667,16.6475" id="Fill-19"></path>
                                <path d="M8.13025,7.7815 C7.78525,7.7815 7.50525,7.5015 7.50525,7.1565 C7.50525,6.709 7.13525,6.34566667 6.67941667,6.34566667 C6.22441667,6.34566667 5.85441667,6.709 5.85441667,7.1565 C5.85441667,7.5015 5.57441667,7.7815 5.22941667,7.7815 C4.88358333,7.7815 4.60441667,7.5015 4.60441667,7.1565 C4.60441667,6.01983333 5.53525,5.09566667 6.67941667,5.09566667 C7.82441667,5.09566667 8.75525,6.01983333 8.75525,7.1565 C8.75525,7.5015 8.47525,7.7815 8.13025,7.7815" id="Fill-21"></path>
                                <path d="M14.5609167,7.7815 C14.2159167,7.7815 13.9359167,7.5015 13.9359167,7.1565 C13.9359167,6.709 13.5659167,6.34566667 13.1100833,6.34566667 C12.6550833,6.34566667 12.2850833,6.709 12.2850833,7.1565 C12.2850833,7.5015 12.0050833,7.7815 11.6600833,7.7815 C11.31425,7.7815 11.0350833,7.5015 11.0350833,7.1565 C11.0350833,6.01983333 11.9659167,5.09566667 13.1100833,5.09566667 C14.2550833,5.09566667 15.1859167,6.01983333 15.1859167,7.1565 C15.1859167,7.5015 14.9059167,7.7815 14.5609167,7.7815" id="Fill-23"></path>
                            </g>
                        </g>
                    </g>
                </g>
            </g>
        </g>
    </g>
</svg>