<?xml version="1.0" encoding="UTF-8" standalone="no"?>
<svg width="20px" height="17px" viewBox="0 0 20 17" version="1.1" xmlns="http://www.w3.org/2000/svg" xmlns:xlink="http://www.w3.org/1999/xlink">
    <!-- Generator: Sketch 3.8.3 (29802) - http://www.bohemiancoding.com/sketch -->
    <title>home</title>
    <desc>Created with Sketch.</desc>
    <defs></defs>
    <g id="Page-1" stroke="none" stroke-width="1" fill="none" fill-rule="evenodd">
        <g id="home" fill="#000000">
            <g id="Home">
                <g>
                    <path d="M18.672,10 L17,10 L17,16 C17,16.445 16.806,17 16,17 L12,17 L12,11 L8,11 L8,17 L4,17 C3.194,17 3,16.445 3,16 L3,10 L1.328,10 C0.73,10 0.858,9.676 1.268,9.252 L9.292,1.22 C9.487,1.018 9.743,0.918 10,0.908 C10.257,0.918 10.513,1.017 10.708,1.22 L18.731,9.251 C19.142,9.676 19.27,10 18.672,10 L18.672,10 Z" id="Shape"></path>
                </g>
            </g>
        </g>
    </g>
</svg>