<?xml version="1.0" encoding="iso-8859-1"?>
<!-- Generator: Adobe Illustrator 16.0.0, SVG Export Plug-In . SVG Version: 6.00 Build 0)  -->
<!DOCTYPE svg PUBLIC "-//W3C//DTD SVG 1.1//EN" "http://www.w3.org/Graphics/SVG/1.1/DTD/svg11.dtd">
<svg version="1.1" id="Capa_1" xmlns="http://www.w3.org/2000/svg" xmlns:xlink="http://www.w3.org/1999/xlink" x="0px" y="0px"
	 width="65.047px" height="65.047px" viewBox="0 0 65.047 65.047" style="enable-background:new 0 0 65.047 65.047;"
	 xml:space="preserve">
<g>
	<g>
		<path d="M58.375,65.047H6.672C2.993,65.047,0,62.055,0,58.375V6.672C0,2.993,2.993,0,6.672,0h51.704
			c3.679,0,6.671,2.993,6.671,6.672v51.703C65.046,62.055,62.055,65.047,58.375,65.047z M6.672,3.336
			c-1.84,0-3.336,1.496-3.336,3.336v51.703c0,1.84,1.496,3.336,3.336,3.336h51.704c1.839,0,3.335-1.496,3.335-3.336V6.672
			c0-1.84-1.496-3.336-3.335-3.336H6.672z"/>
		<rect x="17.374" y="30.021" width="30.299" height="5.004"/>
	</g>
</g>
</svg>
