<svg xmlns="http://www.w3.org/2000/svg" width="18" height="18" viewBox="0 0 18 18">
  <path fill="#4A4A4A" fill-rule="evenodd" d="M702,537 C697.029375,537 693,541.029375 693,546 C693,550.970625 697.029375,555 702,555 C706.969687,555 711,550.970625 711,545.999063 C711,541.029375 706.969687,537 702,537 L702,537 Z M701.858438,551.249063 L701.810625,551.249063 C701.0775,551.2275 700.56,550.686563 700.581563,549.96375 C700.602188,549.253125 701.131875,548.736562 701.840625,548.736562 L701.88375,548.738438 C702.6375,548.76 703.149375,549.295313 703.127813,550.03875 C703.10625,550.75125 702.585938,551.249063 701.858438,551.249063 L701.858438,551.249063 Z M704.94375,545.12625 C704.77125,545.37 704.3925,545.675625 703.914375,546.047812 L703.3875,546.410625 C703.09875,546.635625 702.924375,546.848438 702.859687,547.055625 C702.807188,547.21875 702.782812,547.262812 702.778125,547.595625 L702.778125,547.68 L700.767187,547.68 L700.772812,547.509375 C700.798125,546.811875 700.815,546.399375 701.104687,546.059062 C701.559375,545.526562 702.5625,544.879688 702.604687,544.8525 C702.749063,544.744687 702.87,544.621875 702.96,544.489687 C703.170938,544.198125 703.26375,543.969375 703.26375,543.74625 C703.26375,543.433125 703.171875,543.143438 702.989063,542.8875 C702.812812,542.638125 702.478125,542.514375 701.994375,542.514375 C701.514375,542.514375 701.185313,542.66625 700.989375,542.979375 C700.786875,543.299062 700.684687,543.635625 700.684687,543.979687 L700.684687,544.065938 L698.611875,544.065938 L698.615625,543.975937 C698.669062,542.7075 699.122813,541.793437 699.960938,541.26 C700.48875,540.921563 701.145937,540.75 701.911875,540.75 C702.913125,540.75 703.760625,540.99375 704.42625,541.47375 C705.102188,541.960312 705.444375,542.689687 705.444375,543.640313 C705.443437,544.171875 705.275625,544.671563 704.94375,545.12625 L704.94375,545.12625 Z" transform="translate(-693 -537)"/>
</svg>
