<?xml version="1.0" encoding="UTF-8"?>
<svg width="20px" height="20px" viewBox="0 0 20 20" version="1.1" xmlns="http://www.w3.org/2000/svg" xmlns:xlink="http://www.w3.org/1999/xlink">
    <!-- Generator: Sketch 52.4 (67378) - http://www.bohemiancoding.com/sketch -->
    <title>Group 18 Copy</title>
    <desc>Created with Sketch.</desc>
    <g id="Page-1" stroke="none" stroke-width="0.5" fill="none" fill-rule="evenodd">
        <g id="iPhone-8" transform="translate(-25.000000, -824.000000)" fill="#FFCC00">
            <g id="Group-12" transform="translate(25.000000, 824.000000)">
                <g id="Stacked-Group-3">
                    <g id="Group-9">
                        <g id="Group-18-Copy">
                            <path d="M9.79166667,1.68291667 C5.08166667,1.68291667 1.25,5.47375 1.25,10.1329167 C1.25,14.79125 5.08166667,18.5820833 9.79166667,18.5820833 C14.5016667,18.5820833 18.3333333,14.79125 18.3333333,10.1329167 C18.3333333,5.47375 14.5016667,1.68291667 9.79166667,1.68291667 M9.79166667,19.8320833 C4.3925,19.8320833 0,15.48125 0,10.1329167 C0,4.78458333 4.3925,0.432916667 9.79166667,0.432916667 C15.1908333,0.432916667 19.5833333,4.78458333 19.5833333,10.1329167 C19.5833333,15.48125 15.1908333,19.8320833 9.79166667,19.8320833" id="Fill-9"></path>
                            <path d="M14.4515,7.419 C14.4515,8.04483333 13.9381667,8.55316667 13.3056667,8.55316667 C12.6723333,8.55316667 12.1598333,8.04483333 12.1598333,7.419 C12.1598333,6.79233333 12.6723333,6.28483333 13.3056667,6.28483333 C13.9381667,6.28483333 14.4515,6.79233333 14.4515,7.419" id="Fill-11"></path>
                            <path d="M7.4235,7.419 C7.4235,8.04483333 6.911,8.55316667 6.27766667,8.55316667 C5.64516667,8.55316667 5.13183333,8.04483333 5.13183333,7.419 C5.13183333,6.79233333 5.64516667,6.28483333 6.27766667,6.28483333 C6.911,6.28483333 7.4235,6.79233333 7.4235,7.419" id="Fill-13"></path>
                            <path d="M9.79166667,14.8286667 C7.63583333,14.8286667 5.585,14.1386667 3.86,12.8345 C3.585,12.6261667 3.53,12.2345 3.73833333,11.9586667 C3.94666667,11.6836667 4.33833333,11.6295 4.61416667,11.8378333 C6.12,12.9761667 7.91,13.5786667 9.79166667,13.5786667 C11.6733333,13.5786667 13.4633333,12.9761667 14.9691667,11.8378333 C15.2441667,11.6286667 15.6358333,11.6828333 15.845,11.9586667 C16.0533333,12.2345 15.9983333,12.6261667 15.7233333,12.8345 C13.9983333,14.1386667 11.9475,14.8286667 9.79166667,14.8286667" id="Fill-15"></path>
                        </g>
                    </g>
                </g>
            </g>
        </g>
    </g>
</svg>