<?xml version="1.0" encoding="utf-8"?>
<!-- Generator: Adobe Illustrator 19.0.0, SVG Export Plug-In . SVG Version: 6.00 Build 0)  -->
<svg version="1.0" xmlns="http://www.w3.org/2000/svg" xmlns:xlink="http://www.w3.org/1999/xlink" x="0px" y="0px"
	 viewBox="0 0 18 17" style="enable-background:new 0 0 18 17;" xml:space="preserve">
<g id="Layer_1">
	<g id="XMLID_216_">
		<rect id="XMLID_215_" x="10.7" y="1.4" class="st2" width="2" height="15.6"/>
		<rect id="XMLID_72_" x="5.1" y="1.4" class="st2" width="2" height="15.6"/>
		<rect id="XMLID_71_" x="1" y="10" class="st2" width="15.8" height="2"/>
		<rect id="XMLID_70_" x="1.4" y="5" class="st2" width="15.4" height="2"/>
		<path id="XMLID_67_" class="st2" d="M14,17H4c-2.2,0-4-1.7-4-3.8V3.8C0,1.7,1.8,0,4,0h10c2.2,0,4,1.7,4,3.8v9.4
			C18,15.3,16.2,17,14,17z M4,2C2.9,2,2,2.8,2,3.8v9.4c0,1,0.9,1.8,2,1.8h10c1.1,0,2-0.8,2-1.8V3.8c0-1-0.9-1.8-2-1.8H4z"/>
	</g>
</g>
</svg>
