<?xml version="1.0" encoding="UTF-8"?>
<svg width="20px" height="20px" viewBox="0 0 20 20" version="1.1" xmlns="http://www.w3.org/2000/svg" xmlns:xlink="http://www.w3.org/1999/xlink">
    <!-- Generator: Sketch 52.4 (67378) - http://www.bohemiancoding.com/sketch -->
    <title>Group 12 Copy 2</title>
    <desc>Created with Sketch.</desc>
    <g id="Page-1" stroke="none" stroke-width="0.5" fill="none" fill-rule="evenodd">
        <g id="iPhone-8" transform="translate(-25.000000, -884.000000)" fill="#E2476F">
            <g id="Group-12" transform="translate(25.000000, 824.000000)">
                <g id="Stacked-Group-2" transform="translate(0.000000, 30.000000)">
                    <g id="Group-10" transform="translate(0.000000, 30.000000)">
                        <g id="Group-12-Copy-2">
                            <path d="M9.79166667,1.25 C5.08166667,1.25 1.25,5.04083333 1.25,9.7 C1.25,14.3583333 5.08166667,18.1491667 9.79166667,18.1491667 C14.5016667,18.1491667 18.3333333,14.3583333 18.3333333,9.7 C18.3333333,5.04083333 14.5016667,1.25 9.79166667,1.25 M9.79166667,19.3991667 C4.3925,19.3991667 0,15.0483333 0,9.7 C0,4.35166667 4.3925,0 9.79166667,0 C15.1908333,0 19.5833333,4.35166667 19.5833333,9.7 C19.5833333,15.0483333 15.1908333,19.3991667 9.79166667,19.3991667" id="Fill-1"></path>
                            <path d="M13.3056667,8.57391667 C12.6723333,8.57391667 12.1598333,8.06558333 12.1598333,7.43975 C12.1598333,6.81308333 12.6723333,6.30558333 13.3056667,6.30558333 C13.9381667,6.30558333 14.4515,6.81308333 14.4515,7.43975 C14.4515,8.06558333 13.9381667,8.57391667 13.3056667,8.57391667 Z" id="Fill-3"></path>
                            <path d="M6.27766667,8.57391667 C5.64516667,8.57391667 5.13183333,8.06558333 5.13183333,7.43975 C5.13183333,6.81308333 5.64516667,6.30558333 6.27766667,6.30558333 C6.911,6.30558333 7.4235,6.81308333 7.4235,7.43975 C7.4235,8.06558333 6.911,8.57391667 6.27766667,8.57391667 Z" id="Fill-5"></path>
                            <path d="M11.1515833,14.5629167 L5.30741667,12.5154167 C4.98241667,12.40125 4.81075,12.0445833 4.92408333,11.71875 C5.03825,11.39375 5.39491667,11.2229167 5.72075,11.3354167 L11.5649167,13.3829167 C11.89075,13.4970833 12.0624167,13.85375 11.94825,14.1795833 C11.85825,14.4370833 11.6165833,14.5979167 11.35825,14.5979167 C11.2899167,14.5979167 11.2199167,14.58625 11.1515833,14.5629167 Z" id="Fill-7"></path>
                        </g>
                    </g>
                </g>
            </g>
        </g>
    </g>
</svg>