<svg width="68" height="68" viewBox="0 0 68 68" fill="none" xmlns="http://www.w3.org/2000/svg">
<g clip-path="url(#clip0_328_6983)">
<path d="M35.4426 3.94697L7.32294 0L3.37598 28.1196L31.4956 32.0766L35.4426 3.95698V3.94697ZM10.9293 7.66352C11.1096 6.36123 12.3117 5.44962 13.6241 5.62994C14.9264 5.81025 15.838 7.01238 15.6576 8.32469C15.4773 9.62699 14.2752 10.5386 12.9629 10.3583C11.6506 10.178 10.749 8.97584 10.9293 7.66352ZM18.132 25.525C12.9228 24.8038 9.28641 19.9853 10.0077 14.7761L28.871 17.3907C28.1497 22.6099 23.3412 26.2463 18.132 25.525ZM29.8226 10.2481C29.6423 11.5504 28.4402 12.462 27.1279 12.2817C25.8256 12.1014 24.914 10.8992 25.0943 9.58692C25.2746 8.2746 26.4767 7.37301 27.7891 7.55333C29.1014 7.73365 30.003 8.93577 29.8226 10.2481Z" fill="white"/>
<path d="M28.3901 35.9233H0V64.3134H28.3901V35.9233ZM14.1951 59.6853L4.62817 50.1184L14.185 40.5615L23.7519 50.1284L14.1951 59.6853Z" fill="white"/>
<path d="M68.1604 3.67651H39.7603V32.0766H68.1604V3.67651ZM53.9653 26.0059C49.4774 26.0059 45.831 22.3695 45.831 17.8716C45.831 13.3736 49.4774 9.73721 53.9653 9.73721C58.4532 9.73721 62.0997 13.3736 62.0997 17.8716C62.0997 22.3695 58.4532 26.0059 53.9653 26.0059Z" fill="white"/>
<path d="M36.6647 67.9999L64.7844 64.043L60.8274 35.9233L32.7078 39.8803L36.6547 67.9999H36.6647ZM54.5062 41.5132C55.8085 41.3329 57.0207 42.2345 57.201 43.5468C57.3813 44.8491 56.4797 46.0612 55.1674 46.2415C53.8651 46.4219 52.653 45.5203 52.4726 44.208C52.2923 42.9057 53.1939 41.6935 54.5062 41.5132ZM49.4173 56.67C52.0118 56.3093 53.825 53.8951 53.4644 51.2905L58.1927 50.6193C58.934 55.8385 55.2976 60.667 50.0784 61.3983C44.8592 62.1296 40.0307 58.4932 39.2994 53.274L44.0277 52.6128C44.3984 55.2174 46.8026 57.0306 49.4072 56.67H49.4173ZM40.3412 43.5067C41.6435 43.3264 42.8557 44.228 43.036 45.5403C43.2163 46.8426 42.3147 48.0547 41.0024 48.2351C39.7001 48.4154 38.488 47.5138 38.3076 46.2015C38.1273 44.8992 39.0289 43.687 40.3412 43.5067Z" fill="white"/>
</g>
<defs>
<clipPath id="clip0_328_6983">
<rect width="68" height="68" fill="white"/>
</clipPath>
</defs>
</svg>
