<?xml version="1.0" standalone="no"?>
<!DOCTYPE svg PUBLIC "-//W3C//DTD SVG 20010904//EN"
 "http://www.w3.org/TR/2001/REC-SVG-20010904/DTD/svg10.dtd">
<svg version="1.0" xmlns="http://www.w3.org/2000/svg"
 width="16.000000pt" height="16.000000pt" viewBox="0 0 16.000000 16.000000"
 preserveAspectRatio="xMidYMid meet">
<metadata>
Created by potrace 1.11, written by Peter Selinger 2001-2013
</metadata>
<g transform="translate(0.000000,16.000000) scale(0.001613,-0.001613)"
fill="#000000" stroke="none">
<path d="M4960 9592 c-4 -534 1 -1177 8 -1184 6 -6 33 -8 61 -7 28 2 51 2 51
-1 0 -3 21 -5 48 -6 61 -1 218 -13 257 -19 17 -3 48 -7 70 -9 22 -3 49 -7 60
-9 20 -4 118 -19 122 -19 2 1 17 -4 35 -9 18 -6 49 -12 68 -15 19 -2 96 -22
170 -44 74 -22 142 -42 150 -44 8 -2 42 -14 75 -26 33 -12 72 -25 87 -30 15
-5 33 -12 40 -16 7 -5 18 -9 24 -10 32 -5 361 -164 406 -196 16 -10 28 -16 28
-11 0 4 4 3 8 -3 4 -6 25 -21 47 -33 65 -35 170 -103 173 -112 2 -5 8 -9 14
-9 9 0 28 -14 85 -60 7 -6 15 -10 19 -10 5 0 101 -76 114 -90 3 -4 15 -13 28
-22 73 -50 366 -333 442 -428 19 -24 42 -51 51 -59 8 -9 29 -34 45 -56 16 -22
31 -42 34 -45 21 -20 160 -216 160 -225 0 -3 5 -11 10 -18 17 -20 59 -86 76
-120 9 -17 20 -34 23 -37 3 -3 14 -21 25 -40 33 -63 120 -235 121 -240 0 -3
11 -27 24 -55 33 -72 79 -190 103 -260 11 -33 22 -67 25 -75 3 -8 7 -19 9 -25
1 -5 15 -50 29 -100 15 -49 28 -97 30 -105 2 -8 13 -57 24 -108 12 -51 24
-110 27 -130 3 -20 7 -48 10 -62 5 -26 7 -43 19 -140 4 -30 9 -68 11 -85 12
-95 19 -392 11 -448 -2 -15 0 -30 5 -33 4 -3 6 -10 2 -15 -3 -5 -7 -35 -9 -67
-7 -93 -22 -249 -30 -292 -2 -14 -7 -45 -11 -70 -3 -25 -7 -49 -8 -55 -2 -5
-6 -32 -11 -60 -4 -27 -10 -54 -13 -60 -3 -5 -7 -18 -8 -30 -1 -11 -10 -49
-19 -85 -10 -36 -18 -69 -20 -75 -1 -5 -4 -17 -7 -25 -15 -39 -78 -246 -78
-253 0 -4 -7 -22 -17 -40 -9 -17 -18 -34 -18 -37 -3 -18 -22 -63 -46 -114 -16
-33 -29 -65 -29 -73 0 -7 -4 -13 -10 -13 -5 0 -10 -9 -10 -19 0 -11 -4 -23
-10 -26 -5 -3 -10 -15 -10 -26 0 -10 -4 -19 -9 -19 -5 0 -15 -15 -22 -32 -7
-18 -35 -70 -61 -116 -26 -46 -48 -85 -48 -87 0 -3 -81 -128 -120 -185 -62
-91 -130 -181 -130 -174 0 5 -10 -7 -21 -26 -57 -93 -319 -366 -484 -505 -26
-22 -53 -46 -61 -53 -7 -6 -15 -12 -19 -12 -3 0 -16 -9 -28 -21 -12 -12 -67
-53 -122 -92 -55 -40 -101 -75 -103 -79 -2 -5 -8 -8 -13 -8 -6 0 -40 -20 -77
-43 -37 -24 -96 -59 -132 -78 -36 -19 -67 -37 -70 -40 -5 -6 -172 -88 -260
-127 -66 -29 -243 -97 -280 -107 -3 -1 -12 -5 -20 -8 -8 -4 -62 -21 -120 -37
-58 -17 -109 -32 -115 -34 -5 -1 -28 -6 -50 -10 -22 -4 -53 -12 -70 -16 -32
-10 -55 -14 -155 -30 -36 -6 -76 -13 -90 -15 -83 -13 -172 -23 -280 -30 -47
-2 -97 -6 -113 -9 -15 -2 -30 1 -33 6 -3 4 -11 5 -17 1 -18 -11 -187 -10 -187
1 0 6 -5 5 -12 -2 -8 -8 -17 -8 -31 -1 -15 9 -18 8 -12 -2 6 -8 4 -10 -5 -4
-11 7 -103 15 -207 19 -18 1 -33 5 -33 9 0 5 -4 6 -8 3 -8 -4 -59 1 -177 19
-36 6 -154 30 -197 41 -107 26 -137 31 -143 26 -3 -3 -5 0 -5 6 0 7 -8 12 -17
12 -9 0 -30 5 -47 10 -17 6 -74 24 -126 41 -104 34 -144 49 -300 116 -98 42
-279 131 -290 143 -3 3 -16 11 -30 18 -14 7 -34 18 -45 25 -11 7 -42 25 -70
42 -27 16 -52 32 -55 35 -3 3 -17 11 -32 19 -15 8 -37 22 -47 33 -11 10 -23
18 -26 18 -8 0 -140 98 -170 127 -8 7 -16 13 -19 13 -4 0 -19 11 -34 24 -15
14 -38 34 -52 46 -124 106 -276 256 -363 356 -23 26 -52 59 -64 72 -13 12 -23
27 -23 32 0 4 -3 10 -7 12 -21 9 -186 236 -265 363 -61 98 -94 158 -142 250
-17 33 -34 62 -38 63 -4 2 -8 10 -8 18 0 8 -11 37 -25 64 -73 144 -176 439
-226 645 -25 102 -32 134 -44 200 -1 6 -3 12 -4 15 -2 3 -4 19 -5 35 -2 17 -6
50 -10 75 -12 73 -28 240 -30 303 0 20 -4 37 -8 37 -4 0 -3 11 2 24 5 13 6 26
3 29 -8 8 -7 212 1 225 3 6 2 13 -4 17 -6 4 -7 12 -3 18 4 6 8 41 10 77 4 103
10 167 16 177 4 6 5 19 3 30 -3 12 0 40 5 64 6 23 12 61 14 83 5 41 19 121 30
164 9 37 15 66 20 92 2 14 16 63 30 110 14 47 27 92 30 101 16 70 92 276 146
399 45 101 168 341 185 361 8 8 14 19 14 24 0 4 11 22 24 39 13 17 26 41 30
54 4 12 12 22 17 22 5 0 9 7 9 15 0 8 5 15 10 15 6 0 10 5 10 11 0 10 13 29
60 86 6 7 10 15 10 19 0 5 34 50 160 208 8 10 38 43 65 73 97 107 115 128 115
136 0 4 4 7 9 7 4 0 47 37 93 83 47 45 96 91 109 101 55 44 144 122 147 129 2
4 8 7 13 7 11 0 92 60 97 73 2 4 8 7 14 7 5 0 16 6 23 13 29 25 41 34 98 67
31 19 57 38 57 42 0 5 6 8 13 8 7 0 22 6 32 14 19 13 19 15 -10 67 -15 30 -31
56 -34 59 -10 8 -42 64 -48 83 -3 9 -9 17 -14 17 -5 0 -9 5 -9 10 0 6 -12 29
-27 53 -15 23 -27 45 -28 49 0 4 -7 15 -15 25 -9 10 -16 21 -18 26 -2 7 -4 12
-66 110 -20 31 -36 60 -36 62 0 3 -12 24 -27 48 -15 23 -34 54 -43 70 -52 94
-208 353 -225 373 l-20 24 -65 -42 c-89 -56 -202 -131 -220 -145 -8 -6 -62
-46 -120 -89 -58 -42 -107 -80 -110 -83 -3 -3 -38 -33 -79 -66 -41 -33 -100
-82 -130 -110 -74 -66 -366 -361 -411 -415 -19 -23 -40 -47 -45 -53 -6 -7 -43
-52 -83 -102 -40 -49 -81 -100 -92 -113 -10 -12 -33 -45 -51 -72 -18 -28 -36
-50 -41 -50 -4 0 -8 -4 -8 -9 0 -5 -29 -52 -65 -104 -36 -52 -65 -100 -65
-106 0 -6 -4 -11 -9 -11 -5 0 -14 -13 -21 -30 -7 -16 -16 -30 -21 -30 -5 0 -9
-4 -9 -9 0 -5 -25 -53 -57 -107 -51 -91 -213 -408 -213 -419 0 -3 -13 -32 -29
-65 -16 -33 -28 -60 -26 -60 3 0 -11 -35 -29 -77 -18 -43 -50 -130 -70 -193
-21 -63 -42 -124 -47 -135 -12 -27 -54 -182 -91 -335 -41 -174 -41 -171 -42
-207 -1 -18 -4 -33 -7 -33 -3 0 -6 -6 -6 -12 0 -7 -3 -32 -7 -54 -4 -23 -9
-57 -11 -75 -8 -54 -10 -63 -18 -76 -5 -8 -3 -13 3 -13 6 0 9 -4 5 -9 -3 -6
-8 -29 -11 -53 -3 -24 -7 -57 -9 -75 -13 -93 -20 -266 -19 -493 0 -236 3 -315
20 -475 3 -33 7 -76 9 -95 2 -19 4 -35 5 -35 1 0 4 -20 6 -45 2 -25 9 -66 15
-92 6 -26 8 -52 4 -58 -3 -5 -2 -10 3 -10 5 0 8 -11 7 -25 -2 -14 0 -25 4 -25
4 0 7 -10 8 -22 2 -50 8 -78 16 -78 4 0 6 -4 3 -9 -8 -12 40 -209 105 -431 1
-3 5 -15 10 -28 5 -13 9 -29 9 -36 0 -6 5 -17 12 -24 7 -7 9 -12 6 -12 -4 0 0
-16 8 -35 8 -19 12 -35 9 -35 -4 0 0 -12 8 -27 8 -16 27 -62 43 -103 15 -41
38 -99 51 -128 13 -29 23 -54 23 -57 0 -5 98 -216 112 -240 6 -11 15 -28 20
-37 4 -10 12 -26 16 -35 21 -44 87 -160 103 -184 10 -14 16 -29 12 -33 -3 -3
-1 -6 5 -6 7 0 12 -7 12 -15 0 -8 5 -15 10 -15 6 0 10 -5 10 -10 0 -6 35 -64
77 -128 43 -64 81 -124 85 -134 4 -9 15 -21 25 -27 10 -6 14 -11 10 -11 -5 0
5 -18 22 -39 17 -21 31 -44 31 -50 0 -6 4 -11 8 -11 4 0 26 -24 47 -52 22 -29
45 -60 52 -68 7 -8 41 -49 76 -90 35 -41 74 -88 88 -105 30 -36 363 -370 404
-405 17 -14 62 -52 101 -85 38 -33 85 -71 104 -85 18 -14 38 -29 44 -35 6 -5
38 -30 71 -54 33 -25 62 -48 63 -53 2 -4 9 -8 16 -8 12 0 27 -10 86 -57 15
-13 32 -23 38 -23 6 0 12 -3 14 -7 4 -11 116 -83 127 -83 5 0 11 -4 13 -9 3
-7 117 -73 321 -185 37 -20 67 -33 67 -29 0 4 4 3 8 -2 6 -9 52 -34 72 -40 3
-1 25 -11 50 -22 118 -54 175 -80 180 -81 5 -1 46 -16 90 -34 51 -21 305 -110
320 -112 8 -1 22 -5 30 -9 8 -3 26 -9 40 -12 14 -3 95 -23 180 -45 170 -43
356 -79 495 -95 17 -2 30 -4 30 -5 0 -1 16 -3 35 -5 19 -1 58 -6 85 -9 54 -8
190 -17 242 -18 20 0 30 -4 26 -11 -4 -6 -1 -7 8 -2 17 11 89 14 89 3 0 -4 10
-4 23 1 12 4 31 6 42 4 19 -4 120 -7 120 -3 0 7 47 5 51 -2 3 -4 10 -6 16 -2
5 3 49 8 96 10 148 6 281 17 377 29 17 2 53 7 80 10 49 6 291 49 330 58 59 15
212 50 225 51 9 1 20 5 25 8 6 3 26 9 45 13 19 4 40 10 45 13 6 4 15 7 20 9 6
1 21 4 35 7 22 5 210 68 250 83 8 4 17 7 20 8 3 1 19 7 35 14 17 7 35 14 40
15 6 2 21 8 35 13 14 6 49 21 79 32 29 12 81 35 115 52 33 17 62 30 64 29 5
-1 117 54 153 77 20 12 39 20 41 17 3 -2 11 2 18 11 7 8 21 15 31 15 11 0 19
4 19 10 0 5 11 12 25 16 14 3 25 10 25 16 0 5 5 6 10 3 6 -3 10 -1 10 4 0 6 7
11 15 11 8 0 15 5 15 10 0 6 6 10 13 10 6 0 47 23 90 50 43 28 80 50 83 50 8
0 69 44 72 53 2 4 10 7 17 7 8 0 20 6 27 13 7 7 36 28 63 47 28 19 52 38 53
43 2 4 8 7 13 7 8 0 35 20 64 48 8 6 16 12 19 12 3 0 14 8 25 17 10 10 47 40
82 68 35 27 69 54 75 60 6 5 40 35 75 65 78 67 388 376 446 445 23 28 52 61
63 75 12 14 29 34 38 45 9 11 33 40 52 65 19 25 38 47 42 48 5 2 8 8 8 13 0 5
8 17 18 27 9 10 24 29 32 41 8 13 36 51 61 85 25 33 48 66 50 71 2 6 34 55 70
110 36 55 72 111 79 125 7 14 16 27 19 30 6 5 38 64 85 155 12 22 26 43 31 47
6 4 6 8 2 8 -5 0 1 13 12 29 12 16 21 36 21 44 0 8 7 20 15 27 8 7 15 16 15
20 0 5 15 41 34 82 54 118 72 159 100 233 15 39 33 84 41 100 19 43 99 287
110 335 2 8 4 15 5 15 1 0 3 7 5 15 2 8 18 68 34 133 17 66 29 123 26 127 -3
5 -1 11 4 14 5 3 12 20 15 38 3 18 8 44 11 58 18 88 27 140 28 168 1 12 5 22
10 22 4 0 6 4 3 8 -3 5 -1 40 5 78 22 158 27 206 36 322 9 118 9 608 -1 707
-16 178 -20 207 -31 285 -3 25 -8 59 -10 75 -8 64 -22 150 -25 150 -2 0 -9 35
-15 75 -2 19 -9 53 -14 75 -5 22 -16 69 -24 105 -12 53 -28 113 -42 160 -1 3
-5 19 -9 35 -5 17 -15 50 -23 75 -8 25 -17 54 -19 65 -2 11 -8 29 -13 40 -8
18 -87 235 -95 260 -4 13 -23 60 -43 105 -8 19 -19 44 -23 55 -47 114 -259
519 -292 555 -7 8 -12 17 -10 20 1 3 -5 13 -13 23 -8 9 -15 19 -15 22 0 6 -96
152 -144 220 -20 28 -41 58 -48 69 -28 40 -188 243 -212 270 -6 6 -40 45 -76
86 -178 205 -540 537 -730 670 -19 13 -44 32 -54 42 -11 10 -25 18 -32 18 -7
0 -14 3 -16 8 -4 9 -85 72 -93 72 -3 0 -39 23 -80 50 -41 28 -79 50 -85 50 -5
0 -10 5 -10 10 0 6 -4 10 -9 10 -5 0 -59 29 -122 65 -138 79 -378 197 -519
255 -142 58 -152 62 -175 70 -11 4 -33 13 -48 19 -16 6 -33 9 -38 6 -5 -4 -9
-2 -9 4 0 5 -14 13 -32 16 -18 4 -39 11 -48 15 -12 6 -59 21 -110 35 -65 17
-100 28 -120 35 -14 6 -34 11 -45 13 -11 2 -38 9 -60 15 -22 6 -53 13 -70 16
-16 3 -40 7 -52 10 -58 15 -70 17 -98 21 -16 3 -41 7 -55 10 -47 11 -65 14
-100 19 -19 3 -46 7 -60 10 -35 6 -129 18 -250 30 -100 11 -190 17 -331 20
l-139 4 0 -46z"/>
</g>
</svg>
