<svg xmlns="http://www.w3.org/2000/svg" width="50" height="50" viewBox="0 0 50 50">
  <g fill="none" fill-rule="evenodd">
    <path fill="#CCCCCC" d="M50,24.691358 C50,38.3277778 38.8075,49.382716 25,49.382716 C11.1925,49.382716 0,38.3277778 0,24.691358 C0,11.0549383 11.1925,0 25,0 C38.8075,0 50,11.0549383 50,24.691358"/>
    <path fill="#FFFFFF" d="M13,17.2153236 C13,15.6675396 13.4879951,14.0994135 14.464,12.5108983 C15.4400049,10.9223831 16.8639906,9.60678637 18.736,8.56406869 C20.6080094,7.52135102 22.7919875,7 25.288,7 C27.6080116,7 29.6559911,7.43581687 31.432,8.30746367 C33.2080089,9.17911048 34.5799952,10.3643694 35.548,11.8632761 C36.5160048,13.3621827 37,14.9914047 37,16.7509908 C37,18.1358502 36.7240028,19.3496205 36.172,20.3923382 C35.6199972,21.4350559 34.9640038,22.335201 34.204,23.0928005 C33.4439962,23.8504001 32.0800098,25.1252662 30.112,26.9174373 C29.5679973,27.4225036 29.1320016,27.8664666 28.804,28.2493395 C28.4759984,28.6322124 28.2320008,28.9824951 28.072,29.3001982 C27.9119992,29.6179012 27.7880004,29.9355995 27.7,30.2533025 C27.6119996,30.5710056 27.4800009,31.1290141 27.304,31.9273448 C26.9999985,33.621761 26.048008,34.4689564 24.448,34.4689564 C23.6159958,34.4689564 22.9160028,34.1919887 22.348,33.6380449 C21.7799972,33.0841011 21.496,32.2613441 21.496,31.169749 C21.496,29.8011821 21.7039979,28.6159231 22.12,27.6139366 C22.5360021,26.6119501 23.0879966,25.7321702 23.776,24.9745707 C24.4640034,24.2169711 25.3919942,23.316826 26.56,22.2741083 C27.5840051,21.3617304 28.3239977,20.6733841 28.78,20.2090489 C29.2360023,19.7447137 29.6199984,19.2274357 29.932,18.6571995 C30.2440016,18.0869632 30.4,17.4678589 30.4,16.7998679 C30.4,15.4964708 29.9240048,14.396746 28.972,13.5006605 C28.0199952,12.604575 26.7920075,12.156539 25.288,12.156539 C23.5279912,12.156539 22.2320042,12.6086481 21.4,13.5128798 C20.5679958,14.4171115 19.8640029,15.7490004 19.288,17.5085865 C18.7439973,19.3496349 17.7120076,20.2701453 16.192,20.2701453 C15.2959955,20.2701453 14.5400031,19.948374 13.924,19.3048217 C13.3079969,18.6612693 13,17.964777 13,17.2153236 Z M24.712,44 C23.7359951,44 22.8840036,43.6782287 22.156,43.0346764 C21.4279964,42.391124 21.064,41.4909789 21.064,40.334214 C21.064,39.3077888 21.4159965,38.4443012 22.12,37.7437252 C22.8240035,37.0431493 23.6879949,36.6928666 24.712,36.6928666 C25.720005,36.6928666 26.5679966,37.0431493 27.256,37.7437252 C27.9440034,38.4443012 28.288,39.3077888 28.288,40.334214 C28.288,41.4746865 27.9280036,42.3707585 27.208,43.0224571 C26.4879964,43.6741556 25.6560047,44 24.712,44 Z"/>
  </g>
</svg>
