<svg xmlns="http://www.w3.org/2000/svg" width="50" height="50" viewBox="0 0 50 50" xmlns:xlink="http://www.w3.org/1999/xlink">
  <defs>
    <polygon id="b" points=".02 45 37.471 45 37.471 .172 .02 .172"/>
    <ellipse id="a" cx="25" cy="25" rx="25" ry="25"/>
    <mask id="d" width="50" height="50" x="0" y="0" fill="white">
      <use xlink:href="#a"/>
    </mask>
  </defs>
  <g fill="none" fill-rule="evenodd">
    <path fill="#CCCCCC" d="M50,25 C50,11.1925 38.806875,0 25,0 C11.191875,0 0,11.1925 0,25 C0,38.8075 11.191875,50 25,50 C38.806875,50 50,38.8075 50,25"/>
    <g transform="translate(6.25 5)">
      <mask id="c" fill="white">
        <use xlink:href="#b"/>
      </mask>
      <path fill="#FFFFFF" d="M37.4713125,36.5606875 C35.7169375,35.1150625 33.4769375,34.3369375 31.3594375,33.6225625 C27.6156875,32.3419375 24.3638125,31.2088125 24.2169375,26.7763125 C26.0400625,24.7569375 26.5813125,21.3100625 26.6788125,20.5213125 C28.6994375,17.0738125 28.2063125,15.2519375 27.7138125,14.2169375 C28.8469375,11.5581875 28.4031875,9.6863125 27.9600625,7.8638125 C27.5656875,6.3375625 27.2213125,4.9088125 27.8131875,2.8894375 L27.9600625,2.3475625 L27.4681875,2.0519375 C24.4138125,0.1800625 18.6025625,-0.6080625 14.8588125,1.1650625 C12.8400625,2.1506875 11.6088125,3.7263125 11.2625625,5.7950625 C8.8500625,7.6169375 8.6038125,11.4094375 9.6869375,14.1675625 C9.2450625,15.2031875 8.7031875,17.0250625 10.7213125,20.4725625 C10.8206875,21.2606875 11.3625625,24.7081875 13.1850625,26.7275625 C13.0356875,31.1600625 9.7869375,32.2438125 6.0431875,33.5738125 C3.9738125,34.3106875 1.7606875,35.1006875 0.0200625,36.5500625 C4.6000625,41.7300625 11.2913125,45.0000625 18.7500625,45.0000625 C26.2038125,45.0000625 32.8906875,41.7344375 37.4713125,36.5606875" mask="url(#c)"/>
    </g>
    <use stroke="#CCCCCC" stroke-width="4" mask="url(#d)" xlink:href="#a"/>
  </g>
</svg>
