<?xml version="1.0" encoding="UTF-8" standalone="no"?>
<svg id="svg4063" xmlns:rdf="http://www.w3.org/1999/02/22-rdf-syntax-ns#" xmlns="http://www.w3.org/2000/svg" height="27" width="27" version="1.1" xmlns:cc="http://creativecommons.org/ns#" xmlns:dc="http://purl.org/dc/elements/1.1/" viewBox="0 0 26.999999 26.999998">
 <defs id="defs4065">
  <clipPath id="clipPath3524" clipPathUnits="userSpaceOnUse">
   <path id="path3526" d="m401 356.5c0-7.47 6.03-13.5 13.5-13.5s13.5 6.03 13.5 13.5-6.03 13.5-13.5 13.5-13.5-6.03-13.5-13.5zm15.63-7.5c0-0.66-0.57-1.23-1.23-1.23h-1.86c-0.66 0-1.23 0.57-1.23 1.23v7.86c0 0.69 0.57 1.23 1.23 1.23h1.86c0.66 0 1.23-0.57 1.23-1.23v-7.86zm-2.16 11.13c-1.38 0-2.52 1.14-2.52 2.55s1.14 2.55 2.52 2.55c1.41 0 2.55-1.14 2.55-2.55s-1.14-2.55-2.55-2.55z" clip-rule="evenodd"/>
  </clipPath>
  <clipPath id="clipPath3530" clipPathUnits="userSpaceOnUse">
   <path id="path3532" d="m401 343h27v27h-27v-27z"/>
  </clipPath>
 </defs>
 <metadata id="metadata4068">
  <rdf:RDF>
   <cc:Work rdf:about="">
    <dc:format>image/svg+xml</dc:format>
    <dc:type rdf:resource="http://purl.org/dc/dcmitype/StillImage"/>
    <dc:title/>
   </cc:Work>
  </rdf:RDF>
 </metadata>
 <g id="layer1" transform="translate(-331.7 -227.95)">
  <g id="g3520" transform="matrix(1 0 0 -1 -69.304 597.95)">
   <g id="g3522" clip-path="url(#clipPath3524)">
    <g id="g3528" clip-path="url(#clipPath3530)">
     <path id="path3534" d="m396 375h37v-37h-37v37z" fill="#4a4a4a"/>
    </g>
   </g>
  </g>
 </g>
</svg>
