<?xml version="1.0" encoding="UTF-8" standalone="no"?>
<svg width="30px" height="27px" viewBox="0 0 30 27" version="1.1" xmlns="http://www.w3.org/2000/svg" xmlns:xlink="http://www.w3.org/1999/xlink">
    <!-- Generator: Sketch 3.8.3 (29802) - http://www.bohemiancoding.com/sketch -->
    <title>warning</title>
    <desc>Created with Sketch.</desc>
    <defs></defs>
    <g id="Page-1" stroke="none" stroke-width="1" fill="none" fill-rule="evenodd">
        <g id="warning" fill="#DE4C4C">
            <g id="Warning">
                <g>
                    <path d="M29.2665,25.47 L15.906,0.522 C15.72,0.1995 15.375,0 15,0 C14.6235,0 14.2785,0.1995 14.094,0.522 L0.735,25.47 C0.5535,25.7865 0.5565,26.1765 0.7425,26.49 C0.93,26.8065 1.2705,27 1.6395,27 L28.3605,27 C28.728,27 29.0715,26.8065 29.2575,26.49 C29.4435,26.1765 29.4465,25.7865 29.2665,25.47 L29.2665,25.47 Z M16.5,24 L13.5,24 L13.5,21 L16.5,21 L16.5,24 L16.5,24 Z M16.5,18.75 L13.5,18.75 L13.5,9 L16.5,9 L16.5,18.75 L16.5,18.75 Z" id="Shape"></path>
                </g>
            </g>
        </g>
    </g>
</svg>