<svg xmlns="http://www.w3.org/2000/svg" width="50" height="50" viewBox="0 0 50 50" xmlns:xlink="http://www.w3.org/1999/xlink">
  <defs>
    <polygon id="b" points="0 50 49.383 50 49.383 0 0 0 0 50"/>
    <path id="d" d="M8.33481647,42.1107682 C8.33481647,42.1107682 16.6660867,49.6844719 24.7346629,50 C32.8032392,50.3155281 40.9967127,43.3880376 40.9967127,43.3880376 L40.9967127,6.11606697 L26.4628293,2.68582589 L7.22135802,5.27588717 L8.33481647,42.1107682 Z"/>
    <ellipse id="a" cx="25" cy="25" rx="25" ry="25"/>
    <mask id="f" width="50" height="50" x="0" y="0" fill="white">
      <use xlink:href="#a"/>
    </mask>
  </defs>
  <g fill="none" fill-rule="evenodd">
    <mask id="c" fill="white">
      <use xlink:href="#b"/>
    </mask>
    <path fill="#CCCCCC" d="M49.3830247,25.0003125 C49.3830247,11.1928125 38.3280864,0.0003125 24.6916667,0.0003125 C11.0552469,0.0003125 0.000308641975,11.1928125 0.000308641975,25.0003125 C0.000308641975,38.8071875 11.0552469,50.0003125 24.6916667,50.0003125 C38.3280864,50.0003125 49.3830247,38.8071875 49.3830247,25.0003125" mask="url(#c)"/>
    <mask id="e" fill="white">
      <use xlink:href="#d"/>
    </mask>
    <path fill="#FFFFFF" d="M42.1534568,42.6751875 C40.8719753,41.9220625 39.3941975,41.3876875 37.9219753,40.8539375 C34.2404938,39.5114375 30.4120988,38.1195625 29.1837037,33.2976875 C32.621358,32.4533125 36.4003704,29.8676875 37.8244444,27.3826875 L38.0207407,26.9851875 L37.6775309,26.7364375 C35.567037,25.1458125 35.075679,21.5670625 34.5837037,17.7395625 C33.9460494,12.2214375 33.1120988,5.9089375 26.5324691,5.3120625 C23.98,5.0633125 21.8201235,6.1070625 20.6898765,8.1451875 C15.2404938,9.4376875 14.8485185,14.3095625 14.5046914,18.5845625 C14.2590123,21.9645625 13.9639506,25.1458125 11.6083951,26.7364375 L11.2151852,26.9851875 L11.4614815,27.3826875 C12.8355556,29.8676875 16.6645679,32.4033125 20.1009877,33.2976875 C18.8738272,38.1195625 15.0935802,39.5114375 11.4120988,40.8539375 C9.9645679,41.3851875 8.49790123,41.9183125 7.22135802,42.6658125 C11.6904938,47.1970625 17.8676543,50.0001875 24.6917284,50.0001875 C31.5114815,50.0001875 37.6849383,47.2008125 42.1534568,42.6751875" mask="url(#e)"/>
    <use stroke="#CCCCCC" stroke-width="4" mask="url(#f)" xlink:href="#a"/>
  </g>
</svg>
