<?xml version="1.0" encoding="UTF-8" standalone="no"?>
<svg width="50px" height="50px" viewBox="0 0 50 50" version="1.1" xmlns="http://www.w3.org/2000/svg" xmlns:xlink="http://www.w3.org/1999/xlink">
    <!-- Generator: Sketch 3.8.3 (29802) - http://www.bohemiancoding.com/sketch -->
    <title>girls</title>
    <desc>Created with Sketch.</desc>
    <defs></defs>
    <g id="Day-View" stroke="none" stroke-width="1" fill="none" fill-rule="evenodd">
        <g id="girls">
            <path d="M25,50 C11.1925,50 0,38.806875 0,25 C0,11.193125 11.1925,0 25,0 C38.8075,0 50,11.193125 50,25 C50,38.806875 38.8075,50 25,50 Z" id="Fill-1" fill="#CBCBCB"></path>
            <path d="M19.455875,35.358 C19.448375,35.49675 19.438375,35.63175 19.42525,35.76175 C19.288375,37.123625 19.689625,38.119875 15.87525,39.763 C13.44275,40.811125 10.23025,41.903625 7.914625,43.243 C12.38525,47.431125 18.390875,49.999875 25.00025,49.999875 C31.609625,49.999875 37.615875,47.4305 42.0865,43.24175 C39.77025,41.902375 36.559625,40.8105 34.127125,39.762375 C30.313375,38.119875 30.834625,37.123625 30.697125,35.76175 C30.694625,35.73425 30.692125,35.70675 30.689625,35.67925 C32.057125,35.283 34.297125,34.37675 35.4565,32.652375 C37.0965,30.212375 36.6565,27.052375 36.75775,25.386125 C36.859625,23.7205 36.939625,19.95425 36.222125,17.053625 C35.50525,14.153625 34.593375,11.44925 32.897125,9.948 C31.202125,8.446125 29.849625,8.553 29.025875,8.7955 C28.959,8.5505 28.7815,8.1505 28.30775,7.9605 C27.597125,7.676125 23.7765,6.852375 20.169625,8.761125 C16.56275,10.6705 15.0565,14.492375 14.149625,18.001125 C13.24275,21.5105 12.7765,25.332375 13.6165,29.692375 C14.35775,33.5405 17.71525,34.90925 19.455875,35.358" id="Fill-3" fill="#4A4A4A"></path>
        </g>
    </g>
</svg>