<svg xmlns="http://www.w3.org/2000/svg" width="50" height="50" viewBox="0 0 50 50" xmlns:xlink="http://www.w3.org/1999/xlink">
  <defs>
    <polygon id="b" points="25 49.383 0 49.383 0 0 25 0 50 0 50 49.383 25 49.383"/>
    <polygon id="d" points=".572 41.975 36.928 41.975 36.928 .149 .572 .149 .572 41.975"/>
    <circle id="a" cx="25" cy="25" r="25"/>
    <mask id="f" width="50" height="50" x="0" y="0" fill="white">
      <use xlink:href="#a"/>
    </mask>
  </defs>
  <g fill="none" fill-rule="evenodd">
    <g>
      <mask id="c" fill="white">
        <use xlink:href="#b"/>
      </mask>
      <path fill="#CBCBCB" d="M49.9996875,24.691358 C49.9996875,38.3277778 38.8071875,49.382716 24.9996875,49.382716 C11.1928125,49.382716 -0.0003125,38.3277778 -0.0003125,24.691358 C-0.0003125,11.054321 11.1928125,0 24.9996875,0 C38.8071875,0 49.9996875,11.054321 49.9996875,24.691358" mask="url(#c)"/>
    </g>
    <g transform="translate(6.25 7.408)">
      <mask id="e" fill="white">
        <use xlink:href="#d"/>
      </mask>
      <path fill="#FFFFFF" d="M36.928375,34.224321 C36.23525,33.361358 35.207125,32.5520988 33.66775,32.0039506 C30.39275,30.8385185 26.657125,30.3212346 24.2315,28.9922222 C24.014625,28.874321 23.833375,28.724321 23.679625,28.5564198 C30.029,30.1206173 34.2965,26.2607407 34.2965,26.2607407 C34.2965,26.2607407 29.874625,24.4891358 30.759,13.7132099 C31.643375,2.93728395 25.895875,0.422469136 22.800875,0.172469136 C20.540875,-0.0102469136 19.420875,0.914444444 18.98025,1.42740741 C18.54025,0.914444444 17.419625,-0.0102469136 15.159625,0.172469136 C12.064625,0.422469136 6.317125,2.93728395 7.2015,13.7132099 C8.085875,24.4891358 3.664,26.2607407 3.664,26.2607407 C3.664,26.2607407 7.669,29.8817284 13.692125,28.6866667 C13.5665,28.8020988 13.42525,28.9058025 13.265875,28.9928395 C10.84025,30.3224691 7.104625,30.8403704 3.83025,32.0064198 C2.292125,32.5539506 1.264,33.3625926 0.5715,34.2249383 C5.129625,38.9940741 11.58525,41.9755556 18.749625,41.9755556 C25.914,41.9755556 32.37025,38.9940741 36.928375,34.224321" mask="url(#e)"/>
    </g>
    <use stroke="#CCCCCC" stroke-width="4" mask="url(#f)" xlink:href="#a"/>
  </g>
</svg>
