<?xml version="1.0" encoding="UTF-8" standalone="no"?>
<svg width="50px" height="50px" viewBox="0 0 50 50" version="1.1" xmlns="http://www.w3.org/2000/svg" xmlns:xlink="http://www.w3.org/1999/xlink">
    <!-- Generator: Sketch 3.8.3 (29802) - http://www.bohemiancoding.com/sketch -->
    <title>genderUnknown</title>
    <desc>Created with Sketch.</desc>
    <defs></defs>
    <g id="Day-View" stroke="none" stroke-width="1" fill="none" fill-rule="evenodd">
        <g id="genderUnknown">
            <path d="M25,50 C11.1925,50 0,38.806875 0,25 C0,11.193125 11.1925,0 25,0 C38.8075,0 50,11.193125 50,25 C50,38.806875 38.8075,50 25,50 Z" id="Fill-1" fill="#CBCBCB"></path>
            <path d="M16,19.3476562 C16,18.2343694 16.3574183,17.106451 17.0722656,15.9638672 C17.7871129,14.8212833 18.8300713,13.8750037 20.2011719,13.125 C21.5722725,12.3749963 23.1718659,12 25,12 C26.6992272,12 28.1992122,12.3134734 29.5,12.9404297 C30.8007878,13.5673859 31.8056605,14.4199165 32.5146484,15.4980469 C33.2236364,16.5761773 33.578125,17.7480405 33.578125,19.0136719 C33.578125,20.0097706 33.3759786,20.8828088 32.9716797,21.6328125 C32.5673808,22.3828162 32.0869168,23.0302707 31.5302734,23.5751953 C30.97363,24.1201199 29.9746166,25.0371029 28.5332031,26.3261719 C28.1347636,26.6894549 27.8154309,27.0087877 27.5751953,27.2841797 C27.3349597,27.5595717 27.1562506,27.8115223 27.0390625,28.0400391 C26.9218744,28.2685558 26.831055,28.4970692 26.7666016,28.7255859 C26.7021481,28.9541027 26.6054694,29.3554659 26.4765625,29.9296875 C26.2539051,31.1484436 25.5566465,31.7578125 24.3847656,31.7578125 C23.7753876,31.7578125 23.2626974,31.5585957 22.8466797,31.1601562 C22.430662,30.7617168 22.2226562,30.1699258 22.2226562,29.3847656 C22.2226562,28.4003857 22.3749985,27.5478552 22.6796875,26.8271484 C22.9843765,26.1064417 23.3886694,25.4736355 23.8925781,24.9287109 C24.3964869,24.3837863 25.0761676,23.7363319 25.9316406,22.9863281 C26.6816444,22.3300748 27.2236311,21.8349626 27.5576172,21.5009766 C27.8916032,21.1669905 28.1728504,20.7949239 28.4013672,20.3847656 C28.629884,19.9746073 28.7441406,19.5292993 28.7441406,19.0488281 C28.7441406,18.1113234 28.3955113,17.3203157 27.6982422,16.6757812 C27.0009731,16.0312468 26.101568,15.7089844 25,15.7089844 C23.7109311,15.7089844 22.7617218,16.0341764 22.1523438,16.6845703 C21.5429657,17.3349642 21.0273459,18.2929624 20.6054688,19.5585938 C20.2070293,20.8828191 19.4511774,21.5449219 18.3378906,21.5449219 C17.6816373,21.5449219 17.1279319,21.3134789 16.6767578,20.8505859 C16.2255837,20.387693 16,19.8867214 16,19.3476562 L16,19.3476562 Z M24.578125,38.6132812 C23.8632777,38.6132812 23.2392605,38.3818383 22.7060547,37.9189453 C22.1728489,37.4560524 21.90625,36.8085979 21.90625,35.9765625 C21.90625,35.2382776 22.1640599,34.61719 22.6796875,34.1132812 C23.1953151,33.6093725 23.8281213,33.3574219 24.578125,33.3574219 C25.3164099,33.3574219 25.9374975,33.6093725 26.4414062,34.1132812 C26.945315,34.61719 27.1972656,35.2382776 27.1972656,35.9765625 C27.1972656,36.7968791 26.9335964,37.4414039 26.40625,37.9101562 C25.8789036,38.3789086 25.2695347,38.6132812 24.578125,38.6132812 L24.578125,38.6132812 Z" id="?" fill="#4A4A4A"></path>
        </g>
    </g>
</svg>