<?xml version="1.0" encoding="UTF-8" standalone="no"?>
<svg width="50px" height="50px" viewBox="0 0 50 50" version="1.1" xmlns="http://www.w3.org/2000/svg" xmlns:xlink="http://www.w3.org/1999/xlink">
    <!-- Generator: Sketch 3.8.3 (29802) - http://www.bohemiancoding.com/sketch -->
    <title>boy</title>
    <desc>Created with Sketch.</desc>
    <defs></defs>
    <g id="Day-View" stroke="none" stroke-width="1" fill="none" fill-rule="evenodd">
        <g id="boy">
            <path d="M25,50 C11.1925,50 0,38.806875 0,25 C0,11.193125 11.1925,0 25,0 C38.8075,0 50,11.193125 50,25 C50,38.806875 38.8075,50 25,50 Z" id="Fill-1" fill="#CBCBCB"></path>
            <path d="M25,50 C31.881875,50 38.1125,47.21875 42.63375,42.72 C41.9725,41.79 40.93625,40.899375 39.313125,40.314375 C36.171875,39.1825 32.5875,38.679375 30.260625,37.388125 C28.98125,36.67875 28.82875,34.9025 29.951875,33.965625 C31.874375,32.360625 32.935,29.814375 33.505625,27.225 C34.58125,26.4975 37.24625,21.841875 34.6475,21.134375 C35.18,18.63375 34.711875,15.904375 34.39,14.518125 C35.9925,11.4825 34.773125,8.916875 34.144375,7.91875 C34.021875,7.723125 33.735625,7.7425 33.629375,7.948125 C31.571875,11.931875 23.65125,6.379375 18.433125,10.626875 C13.78875,14.408125 14.826875,19.63375 15.268125,21.181875 C13.28375,22.016875 15.496875,26.473125 16.4925,27.21625 C17.061875,29.80875 18.123125,32.358125 20.048125,33.965625 C21.17125,34.9025 21.018125,36.67875 19.73875,37.388125 C17.411875,38.679375 13.828125,39.1825 10.68625,40.314375 C9.06375,40.899375 8.0275,41.79 7.36625,42.72 C11.8875,47.21875 18.118125,50 25,50" id="Fill-3" fill="#4A4A4A"></path>
        </g>
    </g>
</svg>