<svg xmlns="http://www.w3.org/2000/svg" width="117" height="30" viewBox="0 0 117 30" xmlns:xlink="http://www.w3.org/1999/xlink">
  <defs>
    <path id="a" d="M14.8492105,3.99473684 C20.9273684,3.99473684 25.8710526,8.94 25.8710526,15.0157895 C25.8710526,21.0939474 20.9273684,26.0392105 14.8492105,26.0392105 C8.77026316,26.0392105 3.82736842,21.0939474 3.82736842,15.0157895 C3.82736842,11.1544737 5.88947368,7.52605263 9.20605263,5.54684211 L7.24657895,2.25947368 C2.77736842,4.92710526 0,9.81394737 0,15.0157895 C0,23.2042105 6.66157895,29.8673684 14.8492105,29.8673684 C23.0360526,29.8673684 29.7,23.2042105 29.7,15.0157895 C29.7,6.82815789 23.0360526,0.167368421 14.8492105,0.167368421 L14.8492105,3.99473684 L14.8492105,3.99473684 Z"/>
    <path id="c" d="M20.6028947,4.91526316 C18.6347368,2.05105263 15.3394737,0.167368421 11.6092105,0.167368421 C5.59578947,0.167368421 0.704210526,5.06052632 0.704210526,11.0739474 L0.704210526,29.5981579 L4.53157895,29.5981579 L4.53157895,11.0739474 C4.53157895,7.17157895 7.70684211,3.99473684 11.6092105,3.99473684 C15.5123684,3.99473684 18.6884211,7.17157895 18.6884211,11.0739474 L18.6884211,29.5981579 L22.5165789,29.5981579 L22.5165789,11.0739474 C22.5165789,7.17157895 25.6918421,3.99473684 29.5934211,3.99473684 C33.4973684,3.99473684 36.6718421,7.17157895 36.6718421,11.0739474 L36.6718421,29.5981579 L40.5,29.5981579 L40.5,11.0739474 C40.5,5.06052632 35.6068421,0.167368421 29.5934211,0.167368421 C25.8639474,0.167368421 22.5694737,2.05105263 20.6028947,4.91526316 L20.6028947,4.91526316 Z"/>
    <path id="e" d="M0.452368421,13.3476316 L0.452368421,29.5981579 L4.28052632,29.5981579 L4.28052632,13.3476316 C4.28052632,8.19078947 8.47578947,3.99473684 13.6318421,3.99473684 C18.7871053,3.99473684 22.9831579,8.19078947 22.9831579,13.3476316 L22.9831579,29.5981579 L26.8105263,29.5981579 L26.8105263,13.3476316 C26.8105263,6.07973684 20.8981579,0.167368421 13.6318421,0.167368421 C6.36473684,0.167368421 0.452368421,6.07973684 0.452368421,13.3476316 L0.452368421,13.3476316 Z"/>
    <polygon id="g" points=".184 29.598 4.011 29.598 4.011 .201 .184 .201"/>
  </defs>
  <g fill="none" fill-rule="evenodd">
    <g transform="translate(.04)">
      <mask id="b" fill="white">
        <use xlink:href="#a"/>
      </mask>
      <polygon fill="#FFFFFF" points="-3.947 33.814 33.647 33.814 33.647 -3.781 -3.947 -3.781" mask="url(#b)"/>
    </g>
    <g transform="translate(34.776)">
      <mask id="d" fill="white">
        <use xlink:href="#c"/>
      </mask>
      <polygon fill="#FFFFFF" points="-3.243 33.546 44.448 33.546 44.448 -3.781 -3.243 -3.781" mask="url(#d)"/>
    </g>
    <g transform="translate(80.566)">
      <mask id="f" fill="white">
        <use xlink:href="#e"/>
      </mask>
      <polygon fill="#FFFFFF" points="-3.495 33.546 30.758 33.546 30.758 -3.781 -3.495 -3.781" mask="url(#f)"/>
    </g>
    <g transform="translate(112.934)">
      <mask id="h" fill="white">
        <use xlink:href="#g"/>
      </mask>
      <polygon fill="#FFFFFF" points="-3.764 33.546 7.959 33.546 7.959 -3.746 -3.764 -3.746" mask="url(#h)"/>
    </g>
  </g>
</svg>
