<?xml version="1.0" encoding="UTF-8"?>
<svg width="94px" height="24px" viewBox="0 0 94 24" version="1.1" xmlns="http://www.w3.org/2000/svg" xmlns:xlink="http://www.w3.org/1999/xlink">
  <!-- Generator: Sketch 46 (44423) - http://www.bohemiancoding.com/sketch -->
  <title>Omni Logo</title>
  <desc>Created with Sketch.</desc>
  <defs>
    <path d="M11.93028,3.19578947 C16.8136457,3.19578947 20.7855429,7.152 20.7855429,12.0126316 C20.7855429,16.8751579 16.8136457,20.8313684 11.93028,20.8313684 C7.04628,20.8313684 3.07501714,16.8751579 3.07501714,12.0126316 C3.07501714,8.92357895 4.73177143,6.02084211 7.39640571,4.43747368 L5.82210857,1.80757895 C2.23141714,3.94168421 0,7.85115789 0,12.0126316 C0,18.5633684 5.35210286,23.8938947 11.93028,23.8938947 C18.5078229,23.8938947 23.8618286,18.5633684 23.8618286,12.0126316 C23.8618286,5.46252632 18.5078229,0.133894737 11.93028,0.133894737 L11.93028,3.19578947 L11.93028,3.19578947 Z"
      id="path-1"></path>
    <path d="M16.5529543,3.93221053 C14.97168,1.64084211 12.3241714,0.133894737 9.32717143,0.133894737 C4.49581714,0.133894737 0.565782857,4.04842105 0.565782857,8.85915789 L0.565782857,23.6785263 L3.6408,23.6785263 L3.6408,8.85915789 C3.6408,5.73726316 6.19189714,3.19578947 9.32717143,3.19578947 C12.46308,3.19578947 15.0148114,5.73726316 15.0148114,8.85915789 L15.0148114,23.6785263 L18.0904629,23.6785263 L18.0904629,8.85915789 C18.0904629,5.73726316 20.64156,3.19578947 23.7762,3.19578947 C26.9127429,3.19578947 29.4632057,5.73726316 29.4632057,8.85915789 L29.4632057,23.6785263 L32.5388571,23.6785263 L32.5388571,8.85915789 C32.5388571,4.04842105 28.6075543,0.133894737 23.7762,0.133894737 C20.7798343,0.133894737 18.13296,1.64084211 16.5529543,3.93221053 L16.5529543,3.93221053 Z"
      id="path-3"></path>
    <path d="M0.363445714,10.6781053 L0.363445714,23.6785263 L3.43909714,23.6785263 L3.43909714,10.6781053 C3.43909714,6.55263158 6.80969143,3.19578947 10.9522114,3.19578947 C15.0940971,3.19578947 18.4653257,6.55263158 18.4653257,10.6781053 L18.4653257,23.6785263 L21.5403429,23.6785263 L21.5403429,10.6781053 C21.5403429,4.86378947 16.7901771,0.133894737 10.9522114,0.133894737 C5.11361143,0.133894737 0.363445714,4.86378947 0.363445714,10.6781053 L0.363445714,10.6781053 Z"
      id="path-5"></path>
    <polygon id="path-7" points="0.147788571 23.6785263 3.22280571 23.6785263 3.22280571 0.161052632 0.147788571 0.161052632"></polygon>
  </defs>
  <g id="Page-1">
    <g id="Group-58">
      <mask id="mask-2" fill="white">
        <use xlink:href="#path-1"></use>
      </mask>
      <g id="Clip-57"></g>
      <polygon id="Fill-56" fill="#FFFFFF" mask="url(#mask-2)" points="-3.17142857 27.0511579 27.0326229 27.0511579 27.0326229 -3.02463158 -3.17142857 -3.02463158"></polygon>
    </g>
    <g id="Group-61" transform="translate(27.940286, 0.000000)">
      <mask id="mask-4" fill="white">
        <use xlink:href="#path-3"></use>
      </mask>
      <g id="Clip-60"></g>
      <polygon id="Fill-59" fill="#FFFFFF" mask="url(#mask-4)" points="-2.60564571 26.8364211 35.71092 26.8364211 35.71092 -3.02463158 -2.60564571 -3.02463158"></polygon>
    </g>
    <g id="Group-64" transform="translate(64.728857, 0.000000)">
      <mask id="mask-6" fill="white">
        <use xlink:href="#path-5"></use>
      </mask>
      <g id="Clip-63"></g>
      <polygon id="Fill-62" fill="#FFFFFF" mask="url(#mask-6)" points="-2.80798286 26.8364211 24.7117714 26.8364211 24.7117714 -3.02463158 -2.80798286 -3.02463158"></polygon>
    </g>
    <g id="Group-67" transform="translate(90.734571, 0.000000)">
      <mask id="mask-8" fill="white">
        <use xlink:href="#path-7"></use>
      </mask>
      <g id="Clip-66"></g>
      <polygon id="Fill-65" fill="#FFFFFF" mask="url(#mask-8)" points="-3.02427429 26.8364211 6.39423429 26.8364211 6.39423429 -2.99684211 -3.02427429 -2.99684211"></polygon>
    </g>
  </g>
</svg>
