<?xml version="1.0" encoding="utf-8"?>
<!-- Generator: Adobe Illustrator 19.0.0, SVG Export Plug-In . SVG Version: 6.00 Build 0)  -->
<svg version="1.1" id="Layer_1" xmlns="http://www.w3.org/2000/svg" xmlns:xlink="http://www.w3.org/1999/xlink" x="0px" y="0px"
	 viewBox="0 0 148.1 37.6" style="enable-background:new 0 0 148.1 37.6;" xml:space="preserve">
<style type="text/css">
	.st0{clip-path:url(#SVGID_2_);}
	.st1{clip-path:url(#SVGID_4_);fill:#3881C3;}
	.st2{clip-path:url(#SVGID_6_);}
	.st3{clip-path:url(#SVGID_8_);fill:#174462;}
	.st4{clip-path:url(#SVGID_10_);}
	.st5{clip-path:url(#SVGID_12_);fill:#174462;}
	.st6{clip-path:url(#SVGID_14_);}
	.st7{clip-path:url(#SVGID_16_);fill:#174462;}
</style>
<g>
	<g>
		<defs>
			<path id="SVGID_1_" d="M18.8,37.6C8.4,37.6,0,29.1,0,18.8C0,12.2,3.5,6,9.2,2.6l2.5,4.2c-4.2,2.5-6.8,7.1-6.8,12
				c0,7.7,6.3,14,14,14c7.7,0,14-6.3,14-14c0-7.7-6.3-14-14-14V0c10.4,0,18.8,8.4,18.8,18.8C37.6,29.1,29.2,37.6,18.8,37.6"/>
		</defs>
		<clipPath id="SVGID_2_">
			<use xlink:href="#SVGID_1_"  style="overflow:visible;"/>
		</clipPath>
		<g class="st0">
			<defs>
				<rect id="SVGID_3_" x="-437" y="-131.3" width="1024" height="600"/>
			</defs>
			<clipPath id="SVGID_4_">
				<use xlink:href="#SVGID_3_"  style="overflow:visible;"/>
			</clipPath>
			<rect x="-5" y="-5" class="st1" width="47.6" height="47.6"/>
		</g>
	</g>
	<g>
		<defs>
			<path id="SVGID_5_" d="M81.5,0c-4.7,0-8.9,2.4-11.4,6c-2.5-3.6-6.7-6-11.4-6c-7.6,0-13.8,6.2-13.8,13.8v23.8h4.8V13.8
				c0-4.9,4-9,9-9c4.9,0,9,4,9,9v23.8h4.8V13.8c0-4.9,4-9,9-9c4.9,0,9,4,9,9v23.8h4.8V13.8C95.3,6.2,89.1,0,81.5,0"/>
		</defs>
		<clipPath id="SVGID_6_">
			<use xlink:href="#SVGID_5_"  style="overflow:visible;"/>
		</clipPath>
		<g class="st2">
			<defs>
				<rect id="SVGID_7_" x="-437" y="-131.3" width="1024" height="600"/>
			</defs>
			<clipPath id="SVGID_8_">
				<use xlink:href="#SVGID_7_"  style="overflow:visible;"/>
			</clipPath>
			<rect x="39.9" y="-5" class="st3" width="60.4" height="47.3"/>
		</g>
	</g>
	<g>
		<defs>
			<path id="SVGID_9_" d="M136,37.6h-4.8V16.7c0-6.5-5.3-11.8-11.8-11.8c-6.5,0-11.8,5.3-11.8,11.8v20.9h-4.8V16.7
				c0-9.2,7.5-16.7,16.7-16.7c9.2,0,16.7,7.5,16.7,16.7V37.6z"/>
		</defs>
		<clipPath id="SVGID_10_">
			<use xlink:href="#SVGID_9_"  style="overflow:visible;"/>
		</clipPath>
		<g class="st4">
			<defs>
				<rect id="SVGID_11_" x="-437" y="-131.3" width="1024" height="600"/>
			</defs>
			<clipPath id="SVGID_12_">
				<use xlink:href="#SVGID_11_"  style="overflow:visible;"/>
			</clipPath>
			<rect x="97.6" y="-5" class="st5" width="43.4" height="47.3"/>
		</g>
	</g>
	<g>
		<defs>
			<rect id="SVGID_13_" x="143.2" width="4.8" height="37.6"/>
		</defs>
		<clipPath id="SVGID_14_">
			<use xlink:href="#SVGID_13_"  style="overflow:visible;"/>
		</clipPath>
		<g class="st6">
			<defs>
				<rect id="SVGID_15_" x="-437" y="-131.3" width="1024" height="600"/>
			</defs>
			<clipPath id="SVGID_16_">
				<use xlink:href="#SVGID_15_"  style="overflow:visible;"/>
			</clipPath>
			<rect x="138.2" y="-5" class="st7" width="14.8" height="47.2"/>
		</g>
	</g>
</g>
</svg>
