<?xml version="1.0" encoding="UTF-8" standalone="no"?>
<svg width="68px" height="40px" viewBox="0 0 68 40" version="1.1" xmlns="http://www.w3.org/2000/svg" xmlns:xlink="http://www.w3.org/1999/xlink">
    <!-- Generator: Sketch 3.8.3 (29802) - http://www.bohemiancoding.com/sketch -->
    <title>ef header</title>
    <desc>Created with Sketch.</desc>
    <defs></defs>
    <g id="Page-1" stroke="none" stroke-width="1" fill="none" fill-rule="evenodd">
        <g id="ef-header" fill="#fff">
            <g id="ef-logo">
                <g>
                    <path d="M6.57091803,7.67033333 L7.96436066,0.897 L12.1123607,0.897 C9.99655738,3.03922222 8.14940984,5.30033333 6.57091803,7.67033333" id="Fill-1"></path>
                    <path d="M19.3046426,39.6603333 L12.5157902,39.6603333 C10.9930361,37.9436667 9.79579016,36.0047778 8.94857705,33.8814444 C7.96759344,31.4247778 7.47041311,28.7703333 7.47041311,25.9836667 C7.47041311,22.3636667 8.29756066,18.6858889 9.93290492,15.0592222 C11.6273311,11.2781111 14.1199213,7.74033333 17.3292984,4.53922222 C18.6748066,3.20033333 20.0938885,1.987 21.5809705,0.897 L28.1457574,0.897 C27.9350689,0.992555556 27.7232656,1.09811111 27.5114623,1.19811111 C24.6688393,2.58366667 22.0580852,4.44922222 19.7583475,6.74588889 C17.3415607,9.157 15.404118,11.797 14.0017574,14.597 C12.6406426,17.3114444 11.8201836,20.1003333 11.5571016,22.8825556 C11.0197902,28.5192222 12.8412984,33.7325556 16.6771672,37.557 C17.4742164,38.3514444 18.3526426,39.0536667 19.3046426,39.6603333" id="Fill-3"></path>
                    <path d="M10.8339607,39.6603333 L5.0796,39.6603333 C4.44753443,38.5992222 3.89573115,37.4881111 3.43645246,36.3381111 C2.68287869,34.4614444 2.16674754,32.4903333 1.89251803,30.4458889 L5.79527213,11.4525556 C7.70038689,7.92477778 10.2130426,4.60366667 13.2797311,1.54255556 C13.4993377,1.32366667 13.7189443,1.11033333 13.9441246,0.897 L19.4710754,0.897 C18.4176328,1.74588889 17.3987475,2.657 16.4211082,3.63255556 C13.0957967,6.94588889 10.5173705,10.6103333 8.75494426,14.5336667 C7.04714098,18.3281111 6.1820918,22.1825556 6.1820918,25.9858889 C6.1820918,28.9336667 6.7116,31.7514444 7.75389508,34.3525556 C8.51750164,36.2747778 9.54753443,38.0481111 10.8339607,39.6603333" id="Fill-5"></path>
                    <path d="M34.9884525,28.8552222 L35.4064852,26.8285556 C36.4967148,26.363 37.5222885,25.6741111 38.3962557,24.8063333 C39.823141,23.3818889 40.6926492,21.6052222 40.8364525,19.8052222 C40.9836,17.9974444 40.3950098,16.3341111 39.1832721,15.1285556 C38.8310098,14.773 38.4319279,14.4796667 37.9927148,14.2418889 L38.4386164,12.0752222 C39.3136984,12.4007778 40.0962557,12.8996667 40.7561902,13.5574444 C42.1396,14.9385556 42.8708787,16.6852222 42.8708787,18.6118889 C42.8708787,21.1141111 41.6022885,23.7596667 39.2947475,26.0574444 C38.0027475,27.353 36.5123213,28.2874444 34.9884525,28.8552222" id="Fill-7"></path>
                    <path d="M35.734223,25.2354444 L37.7196,15.5754444 C37.9169115,15.7121111 38.0997311,15.8643333 38.2714033,16.0343333 C39.2100262,16.9721111 39.6715344,18.2732222 39.5544852,19.7054444 C39.4340918,21.1987778 38.7005836,22.6876667 37.4843869,23.8998889 C36.9593377,24.4265556 36.3618295,24.8754444 35.734223,25.2354444" id="Fill-9"></path>
                    <path d="M34.2003213,32.6942222 L34.6896984,30.3131111 C36.6962557,29.7142222 38.6047148,28.562 40.2077311,26.9664444 C42.7571738,24.4275556 44.1617639,21.4597778 44.1617639,18.612 C44.1617639,16.3364444 43.2989443,14.2742222 41.6669443,12.6486667 C40.8364525,11.8264444 39.823141,11.202 38.6938951,10.8153333 L39.2044525,8.34755556 C40.838682,8.75866667 42.2934361,9.56755556 43.4583541,10.7308889 C47.9385508,15.1986667 47.090223,22.7775556 41.4874689,28.3642222 C39.3304197,30.5142222 36.7820918,32.0131111 34.2003213,32.6942222" id="Fill-11"></path>
                    <path d="M3.59686557,39.6603333 L-0.000445901639,39.6603333 L1.22243934,33.7114444 C1.49332459,34.7703333 1.83332459,35.8014444 2.24243934,36.8125556 C2.63260328,37.7958889 3.08519344,38.7425556 3.59686557,39.6603333" id="Fill-13"></path>
                    <path d="M21.9325639,9.90555556 L18.6150557,9.90555556 C19.2504656,9.13555556 19.9338098,8.38222222 20.667318,7.65 C23.9402361,4.39111111 27.7649574,2.12111111 31.6554492,0.896666667 L35.273941,0.896666667 L34.8559082,2.93666667 C30.3634492,3.58777778 25.9902689,5.85222222 22.4665311,9.35888889 C22.2848262,9.54111111 22.1098098,9.72666667 21.9325639,9.90555556" id="Fill-16"></path>
                    <path d="M33.388223,36.6471111 L33.9155016,34.0837778 C36.9297967,33.4215556 39.9095344,31.7515556 42.3998951,29.2693333 C48.5221246,23.1693333 49.368223,14.8071111 44.3718951,9.82488889 C43.0196984,8.476 41.3475672,7.55266667 39.4636328,7.08822222 L40.0444197,4.246 C42.5760262,4.69155556 44.8857967,5.806 46.7128787,7.62044444 C49.1541902,10.0548889 50.4662557,13.0526667 50.5933377,16.4004444 C50.5955672,16.5693333 50.5989115,16.7404444 50.5989115,16.906 C50.5989115,17.6293333 50.5454033,18.3582222 50.4395016,19.106 C49.8353049,23.2215556 47.6169443,27.3726667 44.1857311,30.7926667 C41.1536,33.8093333 37.2876328,35.8826667 33.388223,36.6471111" id="Fill-18"></path>
                    <path d="M27.2178361,24.5844444 L24.9225574,24.5844444 C24.7453115,23.9422222 24.6550164,23.26 24.6550164,22.5466667 C24.6550164,20.1144444 25.7563934,17.5544444 27.6904918,15.4411111 L30.0660328,15.4411111 C29.7918033,15.6611111 29.5276066,15.8955556 29.2734426,16.1444444 C27.5600656,17.8577778 26.6180984,19.9233333 26.6180984,21.97 C26.6180984,22.9044444 26.8243279,23.7944444 27.2178361,24.5844444" id="Fill-20"></path>
                    <path d="M33.424118,9.90555556 L29.6428721,9.90555556 C30.958282,9.17555556 32.340577,8.64 33.7496262,8.33222222 L33.424118,9.90555556 Z" id="Fill-22"></path>
                    <path d="M51.3156984,12.8624444 C51.3000918,12.7946667 51.2822557,12.7335556 51.2599607,12.668 C50.5799607,10.4435556 49.3559607,8.44244444 47.6191738,6.71355556 C46.0908459,5.188 44.2292066,4.08022222 42.0955672,3.41911111 C41.5114361,3.23911111 40.9150426,3.09355556 40.3041574,2.98688889 L40.736682,0.896888889 L44.4956328,0.896888889 C46.5367475,1.64577778 48.3961574,2.80244444 49.9746492,4.37133333 C51.5999607,5.99022222 52.8317639,7.85022222 53.6421902,9.90577778 L51.9254689,9.90577778 L51.3156984,12.8624444 Z" id="Fill-24"></path>
                    <path d="M59.4020131,9.90555556 L55.0165705,9.90555556 C54.148177,7.49666667 52.7569639,5.33222222 50.8830623,3.46333333 C49.8764393,2.45888889 48.7471934,1.6 47.5098164,0.896666667 L54.5327672,0.896666667 C56.9216852,3.46222222 58.5659475,6.52666667 59.4020131,9.90555556" id="Fill-26"></path>
                    <path d="M27.261423,9.90555556 L23.747718,9.90555556 C26.9693574,6.83333333 30.815259,4.93111111 34.5764393,4.28222222 L34.0279803,6.97111111 C31.6591279,7.39444444 29.3426689,8.40777778 27.261423,9.90555556" id="Fill-28"></path>
                    <path d="M28.7081508,32.8547778 C27.0282164,32.4703333 25.5032328,31.657 24.2067738,30.4658889 L29.1752328,30.4658889 L29.2053311,30.4658889 L29.2031016,30.4714444 L28.7081508,32.8547778 Z" id="Fill-30"></path>
                    <path d="M19.9501967,24.5844444 L17.0351148,24.5844444 C17.0306557,24.4022222 17.0261967,24.22 17.0261967,24.0344444 C17.0261967,21.1377778 17.8477705,18.2088889 19.405082,15.4411111 L22.1562951,15.4411111 C20.6837049,17.9 19.8755082,20.6011111 19.8755082,23.2433333 C19.8755082,23.6988889 19.9022623,24.1444444 19.9501967,24.5844444" id="Fill-32"></path>
                    <path d="M27.8775475,36.811 C25.0973508,36.3965556 22.6549246,35.1943333 20.721941,33.2676667 C19.8881049,32.4354444 19.1813508,31.4943333 18.6184,30.4632222 L22.4208262,30.4632222 C22.6047607,30.6798889 22.7953836,30.8865556 22.9960393,31.0887778 C24.5377443,32.6198889 26.3904656,33.6487778 28.4416131,34.1087778 L27.8775475,36.811 Z" id="Fill-34"></path>
                    <path d="M27.2810426,39.6603333 L22.0316656,39.6603333 C20.3495016,38.9225556 18.8568459,37.9114444 17.5860262,36.6481111 C14.0243869,33.1003333 12.3411082,28.2514444 12.8371738,23.0047778 C13.2462885,18.6758889 15.1291082,14.3025556 18.2147475,10.4003333 L17.1869443,15.4414444 L17.9382885,15.4414444 C16.4980262,18.2147778 15.7377639,21.137 15.7377639,24.0336667 C15.7377639,24.2192222 15.7455672,24.3992222 15.7489115,24.5847778 L15.2952066,24.5847778 L14.114682,30.4658889 L17.1769115,30.4658889 C17.8379607,31.8358889 18.7253049,33.0936667 19.8110754,34.1758889 C21.9246492,36.2858889 24.5889115,37.6092222 27.6188131,38.0725556 L27.2810426,39.6603333 Z" id="Fill-36"></path>
                    <path d="M23.598118,24.5844444 L21.2437574,24.5844444 C21.1913639,24.1477778 21.1623803,23.7011111 21.1623803,23.2433333 C21.1623803,20.5955556 22.0564131,17.8733333 23.6772656,15.4411111 L26.0026426,15.4411111 C25.3226426,16.3077778 24.7619213,17.2322222 24.332741,18.1955556 C23.6928721,19.6322222 23.3662492,21.0944444 23.3662492,22.5466667 C23.3662492,23.2455556 23.4476262,23.9311111 23.598118,24.5844444" id="Fill-38"></path>
                    <path d="M37.0938885,39.6603333 L32.7697574,39.6603333 L33.1108721,38.0003333 C37.431659,37.2681111 41.7535607,35.0314444 45.097823,31.7025556 C46.2783475,30.5225556 47.3251016,29.2592222 48.2213639,27.9347778 L47.146741,33.147 C47.0152,33.2825556 46.8814295,33.4236667 46.7420852,33.5581111 C44.0031344,36.2925556 40.6477246,38.3847778 37.0938885,39.6603333" id="Fill-40"></path>
                    <path d="M45.8072525,39.6603333 L40.369482,39.6603333 C42.6424656,38.5403333 44.7861377,37.0992222 46.6867934,35.3803333 L45.8072525,39.6603333 Z" id="Fill-42"></path>
                    <path d="M52.2639082,26.0492222 L49.3778098,26.0492222 C50.5750557,23.8681111 51.3765639,21.5792222 51.7109902,19.2914444 C51.8291541,18.4847778 51.883777,17.6903333 51.883777,16.9058889 L54.7776787,16.9058889 C54.7509246,17.4147778 54.7119082,17.9247778 54.6472525,18.4403333 C54.3328918,20.9992222 53.5213508,23.577 52.2639082,26.0492222" id="Fill-44"></path>
                    <path d="M65.4199016,9.90555556 L60.7256721,9.90555556 C59.9531475,6.57666667 58.4437705,3.51666667 56.2488197,0.896666667 L62.322,0.896666667 C62.9217377,1.93222222 63.4445574,3.01111111 63.890459,4.13777778 C64.6183934,5.97555556 65.1322951,7.90444444 65.4199016,9.90555556" id="Fill-46"></path>
                    <path d="M66.2146098,7.21466667 C65.9203148,6.00133333 65.5457574,4.818 65.0864787,3.66577778 C64.7096918,2.71355556 64.2805115,1.79133333 63.797823,0.896888889 L67.5099541,0.896888889 L66.2146098,7.21466667 Z" id="Fill-48"></path>
                    <path d="M62.034282,26.0514444 L59.0656918,26.0514444 C60.1692984,23.3925556 60.8905443,20.6558889 61.1781508,17.9247778 C61.2149377,17.5858889 61.2439213,17.2447778 61.2639869,16.907 L63.8847738,16.907 L62.034282,26.0514444 Z" id="Fill-50"></path>
                    <path d="M57.6689049,26.0492222 L53.6970361,26.0492222 C54.8597246,23.6181111 55.6188721,21.1036667 55.927659,18.597 C55.9978885,18.0292222 56.0424787,17.467 56.0647738,16.9058889 L59.9764459,16.9058889 C59.9530361,17.2014444 59.9285115,17.4936667 59.8961836,17.7914444 C59.6007738,20.567 58.8472,23.3492222 57.6689049,26.0492222" id="Fill-52"></path>
                    <path d="M30.085318,24.5844444 L28.7097115,24.5844444 C28.1824328,23.8488889 27.9037443,22.9544444 27.9037443,21.97 C27.9037443,20.2666667 28.7141705,18.52 30.1856459,17.0566667 C30.7028918,16.54 31.2736459,16.1011111 31.8733836,15.7544444 L30.085318,24.5844444 Z" id="Fill-54"></path>
                </g>
            </g>
        </g>
    </g>
</svg>
