<svg xmlns="http://www.w3.org/2000/svg" width="149" height="38" viewBox="0 0 149 38" xmlns:xlink="http://www.w3.org/1999/xlink">
  <defs>
    <path id="a" d="M18.809,5.06 C26.508,5.06 32.77,11.324 32.77,19.02 C32.77,26.719 26.508,32.983 18.809,32.983 C11.109,32.983 4.848,26.719 4.848,19.02 C4.848,14.129 7.46,9.533 11.661,7.026 L9.179,2.862 C3.518,6.241 0,12.431 0,19.02 C0,29.392 8.438,37.832 18.809,37.832 C29.179,37.832 37.62,29.392 37.62,19.02 C37.62,8.649 29.179,0.212 18.809,0.212 L18.809,5.06 L18.809,5.06 Z"/>
    <path id="c" d="M26.097,6.226 C23.604,2.598 19.43,0.212 14.705,0.212 C7.088,0.212 0.892,6.41 0.892,14.027 L0.892,37.832 L5.74,37.832 L5.74,14.027 C5.74,9.084 9.762,5.06 14.705,5.06 C19.649,5.06 23.672,9.084 23.672,14.027 L23.672,37.832 L28.521,37.832 L28.521,14.027 C28.521,9.084 32.543,5.06 37.485,5.06 C42.43,5.06 46.451,9.084 46.451,14.027 L46.451,37.832 L51.3,37.832 L51.3,14.027 C51.3,6.41 45.102,0.212 37.485,0.212 C32.761,0.212 28.588,2.598 26.097,6.226 L26.097,6.226 Z"/>
    <path id="e" d="M0.573,16.907 L0.573,37.832 L5.422,37.832 L5.422,16.907 C5.422,10.375 10.736,5.06 17.267,5.06 C23.797,5.06 29.112,10.375 29.112,16.907 L29.112,37.832 L33.96,37.832 L33.96,16.907 C33.96,7.701 26.471,0.212 17.267,0.212 C8.062,0.212 0.573,7.701 0.573,16.907 L0.573,16.907 Z"/>
  </defs>
  <g fill="none" fill-rule="evenodd">
    <mask id="b" fill="white">
      <use xlink:href="#a"/>
    </mask>
    <polygon fill="#3880C2" points="-5 42.831 42.619 42.831 42.619 -4.789 -5 -4.789" mask="url(#b)"/>
    <g transform="translate(44)">
      <mask id="d" fill="white">
        <use xlink:href="#c"/>
      </mask>
      <polygon fill="#164361" points="-4.108 42.491 56.301 42.491 56.301 -4.789 -4.108 -4.789" mask="url(#d)"/>
    </g>
    <g transform="translate(102)">
      <mask id="f" fill="white">
        <use xlink:href="#e"/>
      </mask>
      <polygon fill="#164361" points="-4.427 42.491 38.96 42.491 38.96 -4.789 -4.427 -4.789" mask="url(#f)"/>
    </g>
    <polygon fill="#164361" points="143.233 37.832 148.081 37.832 148.081 .256 143.233 .256"/>
  </g>
</svg>
